<?xml version="1.0" standalone="no"?>
<!DOCTYPE svg PUBLIC "-//W3C//DTD SVG 1.1//EN" "http://www.w3.org/Graphics/SVG/1.1/DTD/svg11.dtd" >
<svg xmlns="http://www.w3.org/2000/svg">
<metadata></metadata>
<defs>
<font id="gibson_lightitalic" horiz-adv-x="1112" >
<font-face units-per-em="2048" ascent="1638" descent="-410" />
<missing-glyph horiz-adv-x="397" />
<glyph unicode="&#xfb01;" horiz-adv-x="913" d="M47 -389q33 61 47 147l174 1090h-137l16 100h138q26 170 44 232q63 218 221 249q27 5 58 5q98 0 127 -21l-24 -96q-52 20 -99 20q-36 0 -65 -11.5t-49 -29t-36.5 -46.5t-25.5 -55t-17 -63.5t-11.5 -64t-8.5 -63.5t-8 -56h232l-17 -100h-231l-170 -1077q-7 -45 -20 -85 t-22 -58l-9 -17h-107zM621 66q0 45 8 92l102 649q6 47 6 78q0 19 -1.5 36t-3.5 24l-1 7h107q6 -22 6 -65q0 -45 -8 -94l-103 -650q-4 -27 -4 -75q0 -19 1.5 -36t3.5 -24l1 -8h-108q-6 23 -6 66zM772 1272q0 41 31 73.5t71 32.5q32 0 53 -22t21 -53q0 -42 -30.5 -73.5 t-71.5 -31.5q-32 0 -53 21.5t-21 52.5z" />
<glyph unicode="&#xfb02;" horiz-adv-x="913" d="M47 -389q33 61 47 147l174 1090h-137l16 100h138q26 170 44 232q63 218 221 249q27 5 58 5q98 0 127 -21l-24 -96q-52 20 -99 20q-36 0 -65 -11.5t-49 -29t-36.5 -46.5t-25.5 -55t-17 -63.5t-11.5 -64t-8.5 -63.5t-8 -56h232l-17 -100h-231l-170 -1077q-7 -45 -20 -85 t-22 -58l-9 -17h-107zM618 66q0 40 9 92l176 1110q6 47 6 78q0 19 -1.5 36t-3.5 24l-1 7h106q6 -22 6 -65q0 -46 -8 -95l-176 -1110q-4 -27 -4 -75q0 -19 1.5 -36t3.5 -24l1 -8h-108q-7 23 -7 66z" />
<glyph unicode="&#xfb03;" horiz-adv-x="1376" d="M47 -389q33 61 47 147l174 1090h-137l16 100h138q26 170 44 232q63 218 221 249q27 5 58 5q98 0 127 -21l-24 -96q-52 20 -99 20q-36 0 -65 -11.5t-49 -29t-36.5 -46.5t-25.5 -55t-17 -63.5t-11.5 -64t-8.5 -63.5t-8 -56h371q26 170 44 232q63 218 221 249q27 5 58 5 q98 0 127 -21l-24 -96q-52 20 -98 20q-41 0 -73 -13.5t-53.5 -40.5t-36 -54.5t-24.5 -70t-15 -71.5t-11 -74.5t-9 -64.5h232l-17 -100h-231l-170 -1077q-7 -45 -20 -85t-22 -58l-9 -17h-107q33 61 47 147l174 1090h-370l-170 -1077q-7 -45 -20 -85t-22 -58l-9 -17h-107z M1085 66q0 40 9 92l102 649q6 46 6 78q0 19 -1.5 36t-2.5 24l-2 7h107q6 -22 6 -65q0 -39 -9 -94l-102 -650q-4 -27 -4 -75q0 -19 1.5 -36t2.5 -24l2 -8h-108q-7 23 -7 66zM1237 1272q0 41 31 73.5t71 32.5q32 0 53 -22t21 -53q0 -42 -30.5 -73.5t-71.5 -31.5 q-32 0 -53 21.5t-21 52.5z" />
<glyph unicode="&#xfb04;" horiz-adv-x="1376" d="M47 -389q33 61 47 147l174 1090h-137l16 100h138q26 170 44 232q63 218 221 249q27 5 58 5q98 0 127 -21l-24 -96q-52 20 -99 20q-36 0 -65 -11.5t-49 -29t-36.5 -46.5t-25.5 -55t-17 -63.5t-11.5 -64t-8.5 -63.5t-8 -56h371q26 170 44 232q63 218 221 249q27 5 58 5 q98 0 127 -21l-24 -96q-52 20 -98 20q-41 0 -73 -13.5t-53.5 -40.5t-36 -54.5t-24.5 -70t-15 -71.5t-11 -74.5t-9 -64.5h232l-17 -100h-231l-170 -1077q-7 -45 -20 -85t-22 -58l-9 -17h-107q33 61 47 147l174 1090h-370l-170 -1077q-7 -45 -20 -85t-22 -58l-9 -17h-107z M1085 66q0 40 9 92l176 1110q6 46 6 78q0 19 -1.5 36t-2.5 24l-2 7h106q6 -22 6 -65q0 -46 -8 -95l-176 -1110q-4 -27 -4 -75q0 -19 1.5 -36t2.5 -24l2 -8h-108q-7 23 -7 66z" />
<glyph horiz-adv-x="2048" />
<glyph horiz-adv-x="2048" />
<glyph horiz-adv-x="682" />
<glyph unicode="&#xd;" horiz-adv-x="397" />
<glyph unicode=" "  horiz-adv-x="397" />
<glyph unicode="&#x09;" horiz-adv-x="397" />
<glyph unicode="&#xa0;" horiz-adv-x="397" />
<glyph unicode="!" horiz-adv-x="565" d="M156 59q0 48 32.5 83.5t79.5 35.5q35 0 57.5 -22.5t22.5 -59.5q0 -46 -32.5 -81t-79.5 -35q-35 0 -57.5 22t-22.5 57zM246 338l162 1075h110l-180 -1075h-92z" />
<glyph unicode="&#x22;" horiz-adv-x="794" d="M346 1024l51 389h111l-72 -389h-90zM594 1024l51 389h111l-74 -389h-88z" />
<glyph unicode="#" d="M102 485l17 101h229l94 317h-215l17 103h227l129 428h92l-129 -428h271l129 428h92l-127 -428h225l-16 -103h-240l-94 -317h223l-14 -101h-238l-127 -430h-92l127 430h-270l-127 -430h-92l126 430h-217zM440 586h271l94 317h-270z" />
<glyph unicode="$" d="M127 262l104 53q21 -103 91 -168.5t174 -66.5l96 610q-123 66 -166 98q-112 87 -117 219v13q0 168 114 283.5t288 130.5l24 159h96l-26 -159q207 -18 280 -207l-92 -64q-24 73 -76.5 120t-125.5 54l-91 -567q127 -67 166 -96q109 -79 125 -197q4 -25 4 -53 q0 -174 -121 -301.5t-299 -142.5l-28 -175h-94l26 172q-134 0 -227.5 76.5t-124.5 208.5zM420 1042q0 -35 12 -66.5t27 -52t45.5 -44t50 -35.5t57.5 -33l82 526q-117 -12 -195.5 -94.5t-78.5 -200.5zM592 80q79 5 146 52t105 119t38 150q0 23 -4 44t-8 37t-16.5 33t-19 27 t-25.5 25t-26.5 21t-32.5 20.5t-32.5 18.5t-36.5 20z" />
<glyph unicode="%" horiz-adv-x="1435" d="M213 2l1065 1442l70 -47l-1065 -1444zM213 1032q0 155 101 271t257 116q116 0 186 -72.5t70 -189.5q0 -101 -43.5 -189t-126.5 -143t-188 -55q-116 0 -186 72.5t-70 189.5zM311 1044q0 -80 46 -131t126 -51q109 0 177.5 85t68.5 196q0 82 -45.5 133t-126.5 51 q-108 0 -177 -86t-69 -197zM733 242q0 155 100.5 270t256.5 115q116 0 186 -72.5t70 -189.5q0 -155 -101 -270t-258 -115q-115 0 -184.5 73t-69.5 189zM831 254q0 -81 45.5 -132.5t124.5 -51.5q109 0 177.5 85.5t68.5 196.5q0 82 -45.5 133.5t-126.5 51.5q-72 0 -129 -42 t-86 -106t-29 -135z" />
<glyph unicode="&#x26;" horiz-adv-x="1290" d="M86 285q0 60 14 114t35.5 97t58 84t71.5 71t86 62.5t91 54.5t97 51q-7 11 -27 43.5t-27.5 46t-22 42t-20 48t-11 47t-5.5 54.5q0 147 98.5 240.5t251.5 93.5q112 0 184 -60t72 -170q0 -69 -30 -132t-84 -113.5t-106 -86.5t-120 -73l264 -402q49 50 114.5 143.5 t98.5 157.5l97 -30q-104 -190 -256 -349l211 -307l-2 -12h-136l-153 233q-81 -82 -150 -134t-163.5 -88t-198.5 -36q-147 0 -239.5 84.5t-92.5 225.5zM207 315q0 -110 69.5 -174.5t180.5 -64.5t225.5 70t194.5 167l-285 432q-152 -82 -211 -125q-167 -124 -174 -290v-15z M537 1108q0 -20 2.5 -38t10 -38t11.5 -32t18 -35t18 -29.5t22 -33t20 -30.5q59 32 98.5 58t86.5 67t71.5 90.5t24.5 106.5q0 71 -44 107t-116 36q-96 0 -159.5 -66.5t-63.5 -162.5z" />
<glyph unicode="'" horiz-adv-x="544" d="M346 1024l51 389h111l-72 -389h-90z" />
<glyph unicode="(" horiz-adv-x="495" d="M137 393q0 311 117.5 608t325.5 555l63 -43q-174 -219 -283.5 -529t-109.5 -587q0 -155 30.5 -326.5t88.5 -293.5l-80 -43q-152 318 -152 659z" />
<glyph unicode=")" horiz-adv-x="495" d="M-31 -223q175 218 284 528t109 588q0 157 -29 328t-87 292l78 43q153 -314 153 -659q0 -312 -117 -608.5t-325 -554.5z" />
<glyph unicode="*" horiz-adv-x="1042" d="M307 1165l51 97l263 -117l32 299h103l-64 -299l299 117l21 -97l-310 -96l150 -264l-92 -57l-123 278l-211 -278l-72 57l234 264z" />
<glyph unicode="+" horiz-adv-x="1320" d="M102 659v93h471v471h93v-471h471v-93h-471v-471h-93v471h-471z" />
<glyph unicode="," horiz-adv-x="565" d="M68 -287l190 451h123l-229 -451h-84z" />
<glyph unicode="-" horiz-adv-x="520" d="M82 518l16 103h432l-14 -103h-434z" />
<glyph unicode="." horiz-adv-x="565" d="M154 59q0 46 33.5 80.5t78.5 34.5q35 0 58.5 -22.5t23.5 -57.5q0 -46 -33 -80t-79 -34q-36 0 -59 22t-23 57z" />
<glyph unicode="/" horiz-adv-x="1003" d="M-23 -143l1104 1751l82 -39l-1100 -1751z" />
<glyph unicode="0" d="M113 508q0 93 15.5 193.5t46.5 205.5t83 198.5t118.5 167.5t160 117.5t200.5 43.5q87 0 156 -31t112.5 -82t72.5 -121t40.5 -143t11.5 -154q0 -93 -15.5 -193.5t-46.5 -205.5t-83 -198.5t-118.5 -167.5t-160 -117.5t-200.5 -43.5q-87 0 -156 31t-112.5 82t-72.5 121 t-40.5 143t-11.5 154zM227 508q0 -62 8 -118.5t29 -113.5t53 -98.5t85 -67.5t120 -26q88 0 163.5 41t128 110.5t93 154.5t63.5 179.5t34.5 179.5t11.5 160q0 62 -8 118.5t-29 113.5t-53 98.5t-85 67.5t-120 26q-88 0 -163 -41t-127.5 -110.5t-93 -154.5t-64 -179.5t-35 -180 t-11.5 -159.5z" />
<glyph unicode="1" horiz-adv-x="823" d="M285 1317l14 96h387l-223 -1413h-109l209 1317h-278z" />
<glyph unicode="2" d="M98 84l572 502q63 55 108.5 102t94 110.5t74.5 133t26 141.5q0 121 -75.5 190.5t-197.5 69.5q-115 0 -210.5 -70.5t-161.5 -181.5l-74 54q178 299 463 299q162 0 266 -90t104 -250q0 -74 -24 -146.5t-56.5 -127t-89.5 -118.5t-99 -103t-109 -97l-453 -396h735l-18 -106 h-869z" />
<glyph unicode="3" d="M100 227l93 70q38 -91 119 -153t175 -62q111 0 200.5 40.5t144.5 123.5t55 196q0 47 -12 84t-30.5 62t-48.5 43.5t-59.5 28.5t-70 15.5t-73 7t-75.5 1.5l17 111h92q139 0 233 88.5t94 228.5q0 104 -73.5 162.5t-180.5 58.5q-101 0 -183 -46.5t-169 -133.5l-61 64 q102 110 201 163.5t239 53.5q143 0 242.5 -79.5t99.5 -219.5q0 -137 -81.5 -247t-211.5 -143v-2q103 -17 164 -99.5t61 -188.5q0 -142 -74.5 -252t-195 -166.5t-264.5 -56.5q-118 0 -221.5 69t-145.5 178z" />
<glyph unicode="4" d="M57 328l15 94l868 1001h100l-157 -991h209l-17 -104h-209l-51 -328h-108l51 328h-701zM199 432h575l131 819z" />
<glyph unicode="5" d="M80 217l92 64q31 -97 117 -149t194 -52q117 0 212.5 58.5t148.5 157.5t53 216q0 133 -83 211t-216 78q-161 0 -248 -76l-65 41l231 647h612l-16 -100h-530l-164 -449q85 39 205 39q169 0 279 -105t110 -272q0 -152 -72.5 -278t-200 -199.5t-282.5 -73.5q-129 0 -234.5 63 t-142.5 179z" />
<glyph unicode="6" d="M154 440q0 85 10.5 176t35 188.5t60 187.5t89.5 171t119.5 141t153.5 95t189 35q95 0 191.5 -39t140.5 -111l-74 -80q-118 133 -278 133q-82 0 -153 -33t-123.5 -91t-94 -127.5t-70.5 -153t-47.5 -155.5t-30.5 -146q71 121 179 189.5t243 68.5q156 0 256.5 -102 t100.5 -259q0 -106 -38.5 -206t-105 -177t-164 -123.5t-208.5 -46.5q-381 0 -381 465zM274 362q0 -130 74 -207t203 -77q114 0 203.5 61.5t135.5 158t46 208.5q0 129 -71.5 205.5t-200.5 76.5q-113 0 -203.5 -60.5t-138.5 -157.5t-48 -208z" />
<glyph unicode="7" d="M201 0l876 1313h-794l16 100h897l21 -63l-904 -1350h-112z" />
<glyph unicode="8" d="M129 307q0 155 88.5 275.5t237.5 167.5v2q-170 75 -170 254q0 187 129 307.5t323 120.5q142 0 240 -78.5t98 -216.5t-71.5 -236.5t-200.5 -150.5v-2q98 -35 152.5 -113t54.5 -184q0 -212 -143 -344t-361 -132q-166 0 -271.5 84.5t-105.5 245.5zM244 334q0 -118 78.5 -187 t199.5 -69q156 0 266.5 107.5t110.5 263.5q0 120 -78 185.5t-200 65.5q-159 0 -268 -104t-109 -262zM395 1014q0 -103 68 -158t174 -55q139 0 231.5 88.5t92.5 228.5q0 103 -67.5 159t-172.5 56q-139 0 -232.5 -89.5t-93.5 -229.5z" />
<glyph unicode="9" d="M90 125l74 80q111 -129 293 -129q70 0 132.5 25t109.5 66.5t88 100.5t69.5 120.5t52 133.5t37.5 132.5t25 123.5q-71 -121 -179.5 -189.5t-244.5 -68.5q-155 0 -256 102t-101 259q0 142 65 268t185 205.5t267 79.5q383 0 383 -465q0 -83 -10.5 -173t-35 -187.5 t-60 -187.5t-88.5 -172t-117.5 -142.5t-151.5 -96t-185 -35.5q-241 0 -352 150zM307 905q0 -130 71.5 -206t201.5 -76q113 0 203 60.5t138 157.5t48 208q0 130 -74 207t-203 77q-114 0 -203.5 -61.5t-135.5 -158t-46 -208.5z" />
<glyph unicode=":" horiz-adv-x="565" d="M156 59q0 48 32.5 83.5t79.5 35.5q35 0 57.5 -22.5t22.5 -59.5q0 -46 -32.5 -81t-79.5 -35q-35 0 -57.5 22t-22.5 57zM279 846q0 46 33.5 81.5t78.5 35.5q37 0 59.5 -22.5t22.5 -57.5q0 -48 -33 -83.5t-80 -35.5q-36 0 -58.5 23t-22.5 59z" />
<glyph unicode=";" horiz-adv-x="565" d="M68 -287l192 453h121l-229 -453h-84zM279 846q0 46 33.5 81.5t78.5 35.5q37 0 59.5 -22.5t22.5 -57.5q0 -48 -33 -83.5t-80 -35.5q-36 0 -58.5 23t-22.5 59z" />
<glyph unicode="&#x3c;" horiz-adv-x="1320" d="M102 655v103l1035 481v-102l-932 -430l932 -431v-102z" />
<glyph unicode="=" horiz-adv-x="1320" d="M102 502v92h1035v-92h-1035zM102 819v92h1035v-92h-1035z" />
<glyph unicode="&#x3e;" horiz-adv-x="1320" d="M102 174v102l932 431l-932 430v102l1035 -481v-103z" />
<glyph unicode="?" horiz-adv-x="923" d="M283 1217q125 217 370 217q128 0 211.5 -72t83.5 -197q0 -74 -22.5 -135t-63 -108t-82.5 -84.5t-96 -86.5t-88 -92q-25 -31 -42.5 -77t-23.5 -73t-16 -93.5t-12 -77.5h-92q2 17 7 63.5t8 66.5t10.5 59t16 63t23.5 55t35 57q29 39 76.5 82t87.5 77t78 75t60 94t22 117 q0 89 -58.5 137.5t-148.5 48.5q-86 0 -158.5 -46t-112.5 -124zM317 59q0 48 33 83.5t80 35.5q35 0 57.5 -22.5t22.5 -59.5q0 -46 -33 -81t-80 -35q-35 0 -57.5 22t-22.5 57z" />
<glyph unicode="@" horiz-adv-x="1589" d="M96 279q0 117 30.5 233.5t86 218.5t136 190.5t176.5 151.5t212.5 99t239.5 36q117 0 221 -35t183 -99t125 -163t46 -219q0 -84 -27 -179.5t-78.5 -186t-118.5 -164t-155.5 -118t-181.5 -44.5q-130 0 -127 129q-55 -54 -132 -91.5t-163 -37.5q-89 0 -135.5 65.5 t-46.5 157.5q0 81 28 174t80.5 181t120.5 160t154.5 115.5t175.5 43.5q67 0 123.5 -27t79.5 -84l35 70h119q-8 -15 -52 -100.5t-86 -168t-87.5 -177t-74 -164.5t-28.5 -94q0 -52 61 -52q85 0 165 61t134 151t86.5 188.5t32.5 175.5q0 138 -68.5 238.5t-178.5 149t-246 48.5 q-157 0 -299.5 -69.5t-242.5 -183.5t-159 -262t-59 -302q0 -230 130.5 -373t358.5 -143q145 0 319.5 50t270.5 134l31 -69q-114 -102 -291 -156.5t-344 -54.5q-266 0 -423 164.5t-157 431.5zM498 250q0 -69 30.5 -109.5t96.5 -40.5q52 0 101 23t90 65.5t75.5 89.5t67 109.5 t54.5 109.5t47.5 105.5t37.5 83.5q-11 57 -62.5 86t-113.5 29q-81 0 -161.5 -57.5t-136.5 -142t-91 -180t-35 -171.5z" />
<glyph unicode="A" horiz-adv-x="1251" d="M-35 0l807 1417h62l356 -1417h-127l-100 424h-646l-233 -424h-119zM377 530h561l-168 713z" />
<glyph unicode="B" horiz-adv-x="1116" d="M125 0l223 1413h301q65 0 116 -5.5t105.5 -23t90.5 -46.5t59.5 -80.5t23.5 -120.5q0 -129 -72.5 -240t-193.5 -145v-2q121 -25 192.5 -96t71.5 -189q0 -113 -51.5 -208.5t-144.5 -164.5q-75 -55 -159 -73.5t-198 -18.5h-364zM250 104h235q71 0 133 10.5t119 36.5t98 64.5 t65 99t24 136.5q0 59 -23 102.5t-57.5 68t-85 39t-95.5 19t-100 4.5h-221zM358 784h183q82 0 149.5 17.5t122.5 54.5t86 101.5t31 152.5q0 50 -17 86.5t-43.5 58t-66 34t-77 16.5t-83.5 4h-201z" />
<glyph unicode="C" horiz-adv-x="1339" d="M141 565q0 172 60.5 330t165.5 277.5t258 190.5t327 71q287 0 457 -211l-80 -80q-54 91 -165 139.5t-228 48.5q-147 0 -275 -63t-215 -167t-136.5 -239t-49.5 -278q0 -223 129 -361.5t350 -138.5q130 0 249.5 48t211.5 138l62 -73q-228 -222 -539 -222q-264 0 -423 163 t-159 427z" />
<glyph unicode="D" horiz-adv-x="1339" d="M125 0l223 1413h375q174 0 311 -71.5t215 -205.5t78 -309q0 -227 -110 -417t-300 -300t-417 -110h-375zM250 104h256q145 0 275.5 56t224.5 151.5t149 227t55 276.5q0 229 -141.5 361.5t-372.5 132.5h-254z" />
<glyph unicode="E" horiz-adv-x="1021" d="M125 0l223 1413h742l-17 -104h-631l-80 -506h596l-16 -103h-598l-94 -596h647l-16 -104h-756z" />
<glyph unicode="F" horiz-adv-x="944" d="M125 0l223 1413h692l-16 -104h-582l-88 -549h549l-18 -105h-547l-105 -655h-108z" />
<glyph unicode="G" horiz-adv-x="1488" d="M141 571q0 169 60.5 326.5t165 276t256.5 189.5t325 71q163 0 284.5 -60t215.5 -192l-86 -80q-145 229 -430 229q-148 0 -275.5 -63t-213.5 -168t-134.5 -240.5t-48.5 -279.5q0 -224 133 -360t357 -136q126 0 260 38t209 114l59 382h-418l17 103h526l-86 -537 q-96 -105 -260 -157t-334 -52q-262 0 -422 166.5t-160 429.5z" />
<glyph unicode="H" horiz-adv-x="1400" d="M125 0l223 1413h111l-97 -604h836l96 604h109l-223 -1413h-111l113 705h-836l-113 -705h-108z" />
<glyph unicode="I" horiz-adv-x="444" d="M125 0l223 1413h111l-226 -1413h-108z" />
<glyph unicode="J" horiz-adv-x="444" d="M-190 -399l16 96q35 -16 102 -16q42 0 74.5 20.5t50.5 47.5t33 72.5t20.5 74.5t12.5 75q1 8 2 11l227 1431h111l-226 -1421q-10 -61 -22 -110t-37 -108.5t-56.5 -99t-82 -67t-113.5 -27.5q-69 0 -112 21z" />
<glyph unicode="K" horiz-adv-x="1081" d="M125 0l223 1413h111l-105 -655l742 655h143l-635 -553l451 -860h-137l-402 784l-182 -159l-101 -625h-108z" />
<glyph unicode="L" horiz-adv-x="784" d="M125 0l223 1413h111l-209 -1309h485l-16 -104h-594z" />
<glyph unicode="M" horiz-adv-x="1667" d="M55 0l363 1413h125l274 -1194h4l654 1194h124l-86 -1413h-108l78 1214l-697 -1239h-12l-301 1239h-2l-305 -1214h-111z" />
<glyph unicode="N" horiz-adv-x="1456" d="M125 0l223 1413h109l700 -1210l193 1210h108l-223 -1413h-98l-707 1231l-197 -1231h-108z" />
<glyph unicode="O" horiz-adv-x="1558" d="M141 565q0 173 61 331.5t167 277.5t260 189.5t329 70.5q261 0 423.5 -164.5t162.5 -425.5q0 -138 -38.5 -268.5t-112 -238.5t-172.5 -189.5t-226.5 -127t-267.5 -45.5q-262 0 -424 164t-162 426zM258 584q0 -222 132.5 -361t352.5 -139q147 0 276 62.5t217.5 166.5 t139.5 239t51 279q0 222 -132.5 361t-352.5 139q-147 0 -276 -62.5t-217.5 -166.5t-139.5 -239t-51 -279z" />
<glyph unicode="P" horiz-adv-x="993" d="M125 0l223 1413h314q77 0 143.5 -17t121 -52t86 -96t31.5 -142q0 -109 -39 -195.5t-108 -140.5t-159.5 -82.5t-196.5 -28.5h-203l-105 -659h-108zM354 762h207q157 0 262 85t105 240q0 117 -79 169.5t-202 52.5h-205z" />
<glyph unicode="Q" horiz-adv-x="1558" d="M141 565q0 172 61 330.5t167 277.5t260 190t329 71q261 0 423.5 -164.5t162.5 -425.5q0 -201 -80 -378.5t-227 -301.5l121 -189l-90 -65l-125 184q-188 -119 -416 -119q-262 0 -424 164t-162 426zM258 584q0 -222 132.5 -361t352.5 -139q184 0 340 98l-104 158l92 66 l107 -154q119 107 184 261t65 318q0 222 -132.5 361t-352.5 139q-147 0 -276 -62.5t-217.5 -166.5t-139.5 -239t-51 -279z" />
<glyph unicode="R" horiz-adv-x="993" d="M125 0l223 1413h316q161 0 265.5 -77t104.5 -232q0 -181 -110 -299.5t-287 -145.5l309 -659h-141l-297 653h-170l-105 -653h-108zM354 758h162q69 0 128 10.5t110.5 35t87.5 62.5t57 95.5t21 130.5q0 55 -19 95.5t-48 63.5t-72.5 36.5t-83.5 17.5t-91 4h-164z" />
<glyph unicode="S" horiz-adv-x="1038" d="M82 231l88 60q37 -98 121.5 -156.5t191.5 -58.5q145 0 256 95t111 239q0 63 -31.5 111t-82.5 79.5t-112 59.5t-122 58.5t-112 68t-82.5 97t-31.5 136.5q0 127 64 222.5t167.5 143.5t229.5 48q217 0 326 -187l-82 -63q-50 78 -113 113.5t-157 35.5q-136 0 -229 -79.5 t-93 -213.5q0 -50 19.5 -90.5t53 -68t76.5 -51.5t90.5 -45t95 -43t90.5 -51t76.5 -64t53 -86.5t19.5 -114.5q0 -100 -42.5 -186t-113 -143.5t-161.5 -89.5t-189 -32q-133 0 -230.5 66.5t-144.5 189.5z" />
<glyph unicode="T" horiz-adv-x="960" d="M184 1309l17 104h915l-16 -104h-404l-207 -1309h-110l209 1309h-404z" />
<glyph unicode="U" horiz-adv-x="1290" d="M182 360q0 75 23 209l133 844h111l-130 -813q-22 -154 -22 -211q0 -145 83.5 -226t229.5 -81q94 0 167.5 29t121 74.5t82.5 116.5t53.5 139.5t32.5 158.5l129 813h109l-134 -844q-17 -106 -43 -190.5t-71 -162t-106.5 -129t-152 -82t-204.5 -30.5q-185 0 -298.5 101 t-113.5 284z" />
<glyph unicode="V" horiz-adv-x="1101" d="M190 1413h119l230 -1220l614 1220h115l-721 -1415h-86z" />
<glyph unicode="W" horiz-adv-x="1792" d="M201 1413h116l146 -1214l553 1214h117l167 -1214l531 1214h117l-623 -1415h-100l-178 1247l-572 -1247h-100z" />
<glyph unicode="X" horiz-adv-x="1056" d="M-35 0l563 727l-305 686h127l260 -606l451 606h129l-524 -686l333 -727h-133l-282 647l-486 -647h-133z" />
<glyph unicode="Y" horiz-adv-x="1081" d="M188 1413h129l291 -702l512 702h127l-602 -809l-96 -604h-109l95 604z" />
<glyph unicode="Z" horiz-adv-x="1062" d="M16 0l15 94l983 1215h-768l16 104h916l-13 -76l-999 -1233h815l-16 -104h-949z" />
<glyph unicode="[" horiz-adv-x="495" d="M12 -272l289 1828h320l-15 -90h-211l-262 -1646h213l-14 -92h-320z" />
<glyph unicode="\" horiz-adv-x="993" d="M248 1587l92 41l569 -1608l-94 -40z" />
<glyph unicode="]" horiz-adv-x="495" d="M12 -272l15 92h211l262 1646h-213l14 90h320l-289 -1828h-320z" />
<glyph unicode="^" horiz-adv-x="1320" d="M199 614l368 799h103l368 -799h-102l-318 697l-317 -697h-102z" />
<glyph unicode="_" horiz-adv-x="1024" d="M0 49h1024v-100h-1024v100z" />
<glyph unicode="`" horiz-adv-x="555" d="M297 1413h133l141 -297h-92z" />
<glyph unicode="a" horiz-adv-x="1132" d="M102 377q0 117 39.5 224.5t109 188.5t170.5 129t218 48q214 0 309 -189h2l27 172h108l-127 -794q-6 -37 -6 -88q0 -19 1.5 -36t2.5 -24l2 -8h-108q-6 23 -6 66q0 37 6 79l4 23h-2q-69 -90 -163 -140.5t-202 -50.5q-185 0 -285 109t-100 291zM217 389q0 -138 74.5 -223.5 t210.5 -85.5q93 0 172.5 41.5t130.5 110t79.5 154t28.5 175.5q0 138 -74 223.5t-210 85.5q-124 0 -220 -71.5t-144 -179.5t-48 -230z" />
<glyph unicode="b" horiz-adv-x="1142" d="M90 0q33 61 47 147l176 1106q7 45 20 85t23 58l9 17h104q-33 -59 -47 -145l-78 -488h2q158 189 371 189q176 0 277.5 -109t101.5 -285q0 -160 -65 -294.5t-190 -217.5t-286 -83q-104 0 -183.5 48t-121.5 140h-2l-2 -12q-7 -43 -19.5 -82t-20.5 -56l-9 -18h-107zM285 391 q0 -138 75 -224.5t211 -86.5q124 0 220 72t144 180.5t48 230.5q0 138 -75 223.5t-212 85.5q-93 0 -172.5 -41.5t-130.5 -110t-79.5 -154t-28.5 -175.5z" />
<glyph unicode="c" horiz-adv-x="933" d="M104 385q0 152 68.5 285t194.5 215t280 82q100 0 196.5 -42.5t139.5 -121.5l-78 -70q-52 74 -117.5 106.5t-158.5 32.5q-118 0 -214.5 -72t-147 -180t-50.5 -223q0 -138 77 -227.5t214 -89.5q87 0 181 33.5t153 91.5l39 -80q-75 -71 -182 -108t-218 -37 q-169 0 -273 116.5t-104 288.5z" />
<glyph unicode="d" horiz-adv-x="1142" d="M102 379q0 117 39.5 224.5t109 188t170.5 129t218 48.5q214 0 309 -189h2l78 488q6 47 6 78q0 19 -1.5 36t-2.5 24l-2 7h107q6 -22 6 -65q0 -46 -8 -95l-177 -1110q-4 -27 -4 -75q0 -19 1.5 -36t2.5 -24l2 -8h-108q-8 20 -8 63q0 42 14 111q-69 -91 -165 -142.5 t-204 -51.5q-185 0 -285 108.5t-100 290.5zM217 391q0 -138 75 -224.5t210 -86.5q93 0 172.5 42t131 110.5t80.5 154.5t29 176q0 138 -75 223.5t-211 85.5q-124 0 -220 -71.5t-144 -179.5t-48 -230z" />
<glyph unicode="e" horiz-adv-x="995" d="M106 383q0 125 45 235.5t119.5 186t170.5 119t198 43.5q139 0 218 -70t79 -166q0 -56 -30 -106.5t-89.5 -93t-162 -68t-234.5 -25.5q-78 0 -195 13q-6 -41 -6 -78q0 -138 71.5 -217.5t203.5 -79.5q41 0 82 7t73.5 17.5t61.5 24t50.5 26.5t37 23.5t23.5 17.5l9 7l37 -76 q-6 -6 -16.5 -15.5t-48.5 -34t-81 -43.5t-112 -34.5t-143 -15.5q-168 0 -264.5 111t-96.5 292zM244 543q94 -11 182 -11q109 0 197 20.5t146 68t58 114.5q0 57 -59 98t-152 41q-79 0 -147 -32.5t-112.5 -84t-73 -106.5t-39.5 -108z" />
<glyph unicode="f" horiz-adv-x="477" d="M47 -389q33 61 47 147l174 1090h-137l16 100h138q26 170 44 232q63 218 221 249q27 5 58 5q98 0 127 -21l-24 -96q-52 20 -99 20q-36 0 -65 -11.5t-49 -29t-36.5 -46.5t-25.5 -55t-17 -63.5t-11.5 -64t-8.5 -63.5t-8 -56h232l-17 -100h-231l-170 -1077q-7 -45 -20 -85 t-22 -58l-9 -17h-107z" />
<glyph unicode="g" horiz-adv-x="1132" d="M37 -264l76 84q47 -58 139 -93.5t174 -35.5q90 0 160 28.5t114.5 73t77.5 113t50 135t30 152.5h-2q-67 -92 -163.5 -143.5t-207.5 -51.5q-172 0 -276.5 109.5t-104.5 281.5q0 91 24.5 177.5t72 158.5t112 126.5t148.5 85t178 30.5q103 0 187 -48.5t122 -140.5h2l2 19 q4 43 17 81t24 55l11 17h106q-33 -61 -47 -147l-96 -598q-17 -111 -41 -195.5t-67 -166.5t-102.5 -135t-149.5 -85.5t-206 -32.5q-98 0 -201 38.5t-163 107.5zM217 401q0 -139 76 -220t213 -81q124 0 219 68t142.5 173.5t47.5 227.5q0 138 -75.5 219.5t-212.5 81.5 q-93 0 -171.5 -39.5t-130 -105t-80 -150t-28.5 -174.5z" />
<glyph unicode="h" horiz-adv-x="1034" d="M115 0l200 1268q7 54 7 78q0 19 -2 36t-4 24l-1 7h107q6 -22 6 -65q0 -46 -8 -95l-74 -462h2q53 81 139.5 129.5t180.5 48.5q272 0 272 -269q0 -43 -12 -133l-68 -424q-4 -27 -4 -75q0 -19 1.5 -36t2.5 -24l2 -8h-108q-6 23 -6 66q0 45 8 92l63 405q12 78 12 115 q0 96 -44 145t-140 49q-78 0 -141.5 -35.5t-104.5 -95.5t-66.5 -127.5t-37.5 -142.5l-76 -471h-106z" />
<glyph unicode="i" horiz-adv-x="421" d="M131 66q0 45 8 92l103 649q6 47 6 78q0 19 -1.5 36t-2.5 24l-2 7h106q6 -22 6 -65q0 -45 -8 -94l-102 -650q-4 -27 -4 -75q0 -19 1.5 -36t2.5 -24l2 -8h-109q-6 23 -6 66zM283 1272q0 41 31 73.5t71 32.5q32 0 53 -22t21 -53q0 -41 -31 -73t-72 -32q-32 0 -52.5 21.5 t-20.5 52.5z" />
<glyph unicode="j" horiz-adv-x="421" d="M-188 -393l14 96q36 -16 88 -16q25 0 47 7t38.5 16t31 27.5t24 32t18.5 40.5t13.5 41.5t10.5 45.5t7.5 42.5t6.5 42.5l129 811q7 45 20 85t22 57l9 17h106q-33 -61 -47 -147l-131 -823q-10 -62 -22 -110.5t-37 -104t-57.5 -92t-84.5 -61t-118 -24.5q-60 0 -88 17z M283 1272q0 41 31 72.5t71 31.5q32 0 53 -21t21 -52q0 -41 -31 -73t-72 -32q-32 0 -52.5 21t-20.5 53z" />
<glyph unicode="k" horiz-adv-x="882" d="M115 0l200 1268q7 54 7 78q0 19 -2 36t-4 24l-1 7h107q6 -22 6 -65q0 -46 -8 -95l-115 -725l502 424h133l-432 -362l340 -590h-133l-291 520l-139 -117l-64 -403h-106z" />
<glyph unicode="l" horiz-adv-x="421" d="M131 66q0 45 8 92l176 1110q7 54 7 78q0 19 -2 36t-4 24l-1 7h107q6 -22 6 -65q0 -46 -8 -95l-176 -1110q-4 -27 -4 -75q0 -19 1.5 -36t2.5 -24l2 -8h-109q-6 23 -6 66z" />
<glyph unicode="m" horiz-adv-x="1544" d="M104 0l134 834q2 18 2 49q0 19 -2 36t-4 24l-1 7h107q6 -22 6 -65q0 -36 -10 -97h2q45 77 129 128t172 51q98 0 160.5 -49.5t79.5 -145.5q56 86 140 140.5t179 54.5q256 0 256 -271q0 -53 -10 -118l-70 -435q-4 -27 -4 -75q0 -19 1.5 -36t2.5 -24l2 -8h-108q-6 23 -6 66 q0 45 8 92l67 420q9 53 9 104q0 188 -158 188q-70 0 -129 -34t-98.5 -90.5t-64.5 -119.5t-36 -130l-78 -496h-108l92 578q10 58 10 104q0 188 -158 188q-70 0 -129 -34t-98 -90.5t-64 -119.5t-36 -130l-80 -496h-107z" />
<glyph unicode="n" horiz-adv-x="1011" d="M104 0l129 805q7 54 7 78q0 19 -2 36t-4 24l-1 7h107q6 -22 6 -65q0 -32 -10 -97h2q53 81 139 130t180 49q271 0 271 -273q0 -38 -13 -131l-67 -420q-4 -27 -4 -75q0 -19 1.5 -36t2.5 -24l2 -8h-109q-6 23 -6 66q0 45 8 92l64 395q12 82 12 125q0 98 -44.5 145t-141.5 47 q-78 0 -140.5 -34t-102.5 -91.5t-64.5 -123t-36.5 -140.5l-78 -481h-107z" />
<glyph unicode="o" horiz-adv-x="1101" d="M102 383q0 155 71.5 288.5t200 214.5t283.5 81q177 0 287.5 -115t110.5 -293q0 -155 -71 -287.5t-198.5 -212t-283.5 -79.5q-178 0 -289 112.5t-111 290.5zM217 397q0 -140 81 -228.5t220 -88.5q122 0 221 69t152 177t53 229q0 139 -81 227t-220 88q-123 0 -222 -68.5 t-151.5 -176t-52.5 -228.5z" />
<glyph unicode="p" horiz-adv-x="1142" d="M70 -324q0 46 8 93l164 1038q6 47 6 76q0 19 -1.5 36t-2.5 24l-2 7h106q6 -22 6 -65q0 -45 -8 -94l-2 -13h2q158 189 371 189q176 0 277.5 -108.5t101.5 -285.5q0 -159 -65 -294t-190 -218.5t-286 -83.5q-104 0 -183.5 48.5t-121.5 142.5h-2l-66 -414q-4 -27 -4 -76 q0 -19 1.5 -36t2.5 -24l2 -7h-108q-6 22 -6 65zM285 389q0 -138 74.5 -223.5t211.5 -85.5q124 0 220 71.5t144 179.5t48 230q0 138 -75 223.5t-212 85.5q-93 0 -172.5 -41.5t-130.5 -110t-79.5 -154t-28.5 -175.5z" />
<glyph unicode="q" horiz-adv-x="1132" d="M102 377q0 117 39.5 224.5t109 188.5t170.5 129t218 48q214 0 309 -189h2l2 13q7 45 20 85t22 57l10 17h106q-35 -65 -47 -147l-164 -1032q-7 -45 -20 -85t-22 -58l-9 -17h-107q33 61 47 147l66 410h-2q-69 -90 -163 -140.5t-202 -50.5q-185 0 -285 109t-100 291z M217 389q0 -138 74.5 -223.5t210.5 -85.5q93 0 172.5 41.5t130.5 110t79.5 154t28.5 175.5q0 138 -74 223.5t-210 85.5q-124 0 -220 -71.5t-144 -179.5t-48 -230z" />
<glyph unicode="r" horiz-adv-x="595" d="M104 0l129 807q7 54 7 76q0 19 -2 36t-4 24l-1 7h107q6 -22 6 -65q0 -45 -8 -94l-2 -11q39 88 104 138.5t154 50.5q49 0 98 -17l-26 -106h-9q-29 16 -90 16q-62 0 -113 -34t-82.5 -89.5t-50 -111.5t-28.5 -115l-82 -512h-107z" />
<glyph unicode="s" horiz-adv-x="774" d="M33 166l82 63q33 -71 98.5 -110t146.5 -39q96 0 168 55t72 150q0 41 -23.5 72t-61 51.5t-83 38t-91 37t-83 43t-61 61t-23.5 86.5q0 132 94 212.5t228 80.5q89 0 152 -33t114 -107l-78 -63q-32 53 -85.5 81.5t-117.5 28.5q-81 0 -140.5 -47t-59.5 -127q0 -30 18.5 -55 t48.5 -41.5t69 -33.5t79 -31.5t79 -36.5t69 -46.5t48.5 -62t18.5 -84.5q0 -149 -107.5 -239t-259.5 -90q-105 0 -189 47t-122 139z" />
<glyph unicode="t" horiz-adv-x="555" d="M131 848l14 100h140l24 156q6 46 6 78q0 19 -1.5 36t-3.5 24l-1 7h107q6 -22 6 -65q0 -45 -8 -94l-23 -142h232l-17 -100h-231l-76 -490q-18 -110 -18 -149q0 -129 104 -129q54 0 104 26l-6 -96q-51 -30 -143 -30q-86 0 -129 49.5t-43 136.5q0 84 18 210t47 280.5 t35 191.5h-137z" />
<glyph unicode="u" horiz-adv-x="1007" d="M143 248q0 40 13 137l67 422q6 47 6 78q0 19 -1.5 36t-3.5 24l-1 7h107q6 -22 6 -65q0 -41 -8 -90l-68 -428q-10 -58 -10 -107q0 -94 46 -140t142 -46q73 0 133.5 31.5t100.5 84.5t65.5 115.5t36.5 132.5l80 512h109l-129 -809q-5 -34 -5 -75q0 -19 1.5 -36t3.5 -24l2 -8 h-109q-6 23 -6 66q0 50 6 81q-56 -79 -139.5 -123t-179.5 -44q-265 0 -265 268z" />
<glyph unicode="v" horiz-adv-x="874" d="M117 950h112l189 -790l438 790h113l-537 -950h-82z" />
<glyph unicode="w" horiz-adv-x="1429" d="M137 950h111l121 -788l407 790h82l158 -790l370 788h113l-457 -950h-92l-157 791l-410 -791h-90z" />
<glyph unicode="x" horiz-adv-x="892" d="M-35 0l455 502l-260 448h119l213 -379l333 379h119l-401 -448l295 -502h-123l-246 432l-381 -432h-123z" />
<glyph unicode="y" horiz-adv-x="864" d="M-27 -369l37 103q41 -21 92 -21q90 0 144 113l92 188l-221 936h112l183 -821l444 821h113l-647 -1175q-43 -80 -97.5 -127t-132.5 -47t-119 30z" />
<glyph unicode="z" horiz-adv-x="854" d="M6 0l12 80l705 766h-553l16 100h693l-15 -78l-702 -768h612l-16 -100h-752z" />
<glyph unicode="{" horiz-adv-x="495" d="M80 588l16 110q69 0 106.5 48.5t49.5 123.5l59 377q14 89 32 142t53.5 93.5t91.5 57t143 16.5l-15 -90q-48 0 -75 -4t-51.5 -17.5t-37.5 -41t-20 -74.5l-67 -428q-17 -110 -51.5 -169t-123.5 -89v-2q58 -21 80.5 -55.5t22.5 -96.5q0 -98 -41 -291.5t-41 -289.5 q0 -26 8 -43t18.5 -26t31.5 -13.5t35 -5t41 -0.5h9l-14 -92h-31q-102 0 -151 41.5t-49 140.5q0 94 37.5 280t37.5 279q0 119 -104 119z" />
<glyph unicode="|" horiz-adv-x="512" d="M168 -205v1843h92v-1843h-92z" />
<glyph unicode="}" horiz-adv-x="495" d="M-16 -272l14 92q93 0 131 24t51 111l70 430q8 54 17 88.5t27 69.5t49.5 58.5t78.5 39.5v2q-56 21 -78 55.5t-22 98.5q0 98 40.5 290.5t40.5 288.5q0 27 -9.5 45t-20 26.5t-34.5 13t-37 5t-44 0.5l14 90h31q104 0 153.5 -40.5t49.5 -141.5q0 -93 -39 -279.5t-39 -279.5 q0 -117 107 -117l-19 -110q-69 0 -106.5 -48.5t-49.5 -123.5l-59 -379q-14 -88 -32 -141t-53 -94t-90.5 -57.5t-141.5 -16.5z" />
<glyph unicode="~" horiz-adv-x="1320" d="M123 492q110 204 276 204q38 0 83.5 -13t75.5 -27t77 -38q7 -3 35 -17t37.5 -18.5t33 -14.5t37 -14t32 -7.5t34.5 -3.5q110 0 194 153l78 -51q-115 -205 -276 -205q-38 0 -84.5 13.5t-73 25.5t-78.5 37q-4 2 -30 15.5t-32.5 16.5t-28.5 13.5t-32 14t-28 9t-32 7.5t-28 2 q-106 0 -194 -154z" />
<glyph unicode="&#xa1;" horiz-adv-x="565" d="M111 -463l180 1075h92l-162 -1075h-110zM281 854q0 47 33 82t79 35q35 0 57.5 -22.5t22.5 -57.5q0 -48 -33 -83.5t-78 -35.5q-37 0 -59 22.5t-22 59.5z" />
<glyph unicode="&#xa2;" d="M186 537q0 140 61.5 265.5t175.5 210.5t257 103l31 195h92l-31 -191q81 -3 172.5 -43t130.5 -100l-69 -80q-36 55 -106.5 88.5t-141.5 38.5l-125 -791q71 2 159 38.5t138 86.5l39 -82q-55 -56 -163.5 -99.5t-189.5 -43.5l-30 -194h-92l30 198q-156 20 -247 130.5 t-91 269.5zM295 553q0 -122 64.5 -207.5t181.5 -105.5l123 780q-158 -26 -263.5 -165t-105.5 -302z" />
<glyph unicode="&#xa3;" d="M84 0l18 106h226q72 95 110.5 205.5t34.5 223.5v47h-237l16 96h209q-3 16 -13.5 61t-15.5 68t-11.5 60t-9.5 69t-3 63q0 183 115.5 309t301.5 126q232 0 297 -187l-86 -59q-24 75 -84 112t-143 37q-73 0 -129.5 -27.5t-90.5 -75.5t-51.5 -108.5t-17.5 -130.5q0 -30 3 -61 t10 -69.5t11 -59t15 -68t14 -59.5h301l-14 -96h-276l2 -45q6 -227 -144 -431h539l-16 -106h-881z" />
<glyph unicode="&#xa4;" d="M92 539l14 98h132q9 79 24 156h-131l16 100h138q23 78 56.5 151.5t84 145.5t110.5 125.5t139 86t165 32.5q122 0 199.5 -42t131.5 -145l-77 -69q-46 81 -110.5 118t-160.5 37q-65 0 -125 -28t-105 -72.5t-83.5 -104t-63.5 -117.5t-43 -118h564l-15 -100h-573 q-17 -89 -25 -156h574l-17 -98h-565v-39q-2 -74 11.5 -143t44.5 -132t90 -101t139 -38q94 0 177.5 44t143.5 120l62 -64q-62 -97 -172.5 -154t-227.5 -57q-90 0 -160 34.5t-113 89.5t-70 130.5t-36 151.5t-6 158h-137z" />
<glyph unicode="&#xa5;" d="M174 436l14 99h349l12 75l-37 92h-297l16 99h244l-246 612h127l269 -692l485 692h129l-442 -612h245l-16 -99h-297l-65 -92l-13 -75h348l-16 -99h-346l-70 -436h-116l69 436h-346z" />
<glyph unicode="&#xa6;" horiz-adv-x="512" d="M168 0v635h92v-635h-92zM168 1004v634h92v-634h-92z" />
<glyph unicode="&#xa7;" d="M111 -152l92 39q18 -99 86 -149.5t172 -50.5q116 0 194 73t78 189q0 55 -27 98t-70 72t-94.5 55t-103.5 54t-95 62t-70 87t-27 121q0 116 77 214.5t189 137.5q-56 38 -88.5 99.5t-32.5 127.5q0 154 108 255.5t267 101.5q123 0 204.5 -56t106.5 -172l-86 -49 q-44 186 -239 186q-106 0 -178 -68.5t-72 -174.5q0 -51 24.5 -91.5t64 -68t87.5 -53t96 -53.5t87.5 -61.5t64 -85.5t24.5 -118q0 -116 -71.5 -209t-182.5 -139q68 -44 107 -110t39 -144q0 -107 -56 -194t-149 -135t-203 -48q-134 0 -218.5 64.5t-104.5 193.5zM354 516 q0 -23 5 -43.5t17 -39t23 -33t32 -30t34.5 -25.5t40 -24t38.5 -20t40.5 -19.5t36.5 -17.5q99 33 161 110.5t62 178.5q0 20 -5 39.5t-12 35t-21 32t-24.5 28t-31.5 26t-32 22t-36 20.5t-35 18t-36.5 17.5t-32.5 15.5q-98 -33 -161 -112t-63 -179z" />
<glyph unicode="&#xa8;" horiz-adv-x="555" d="M215 1247q0 43 29.5 76t72.5 33q32 0 52 -21t20 -53q0 -42 -30 -76.5t-72 -34.5q-32 0 -52 21.5t-20 54.5zM481 1247q0 42 29.5 75.5t71.5 33.5q32 0 51.5 -20.5t19.5 -53.5q0 -43 -29 -77t-71 -34q-32 0 -52 21.5t-20 54.5z" />
<glyph unicode="&#xa9;" horiz-adv-x="1638" d="M49 707q0 150 57 285.5t154 232.5t232.5 154t285.5 57t285.5 -57t232.5 -154t154 -232.5t57 -285.5t-57 -285.5t-154 -233t-232.5 -154.5t-285.5 -57t-285.5 57t-232.5 154.5t-154 233t-57 285.5zM137 707q0 -129 51.5 -247.5t137.5 -204.5t204.5 -137.5t247.5 -51.5 t247.5 51.5t204.5 137.5t137.5 204.5t51.5 247.5t-51.5 247.5t-137.5 204.5t-204.5 137.5t-247.5 51.5t-247.5 -51.5t-204.5 -137.5t-137.5 -204.5t-51.5 -247.5zM389 707q0 187 120.5 309.5t297.5 122.5q107 0 187.5 -35.5t123.5 -85.5l-57 -74q-34 43 -99.5 76t-148.5 33 q-134 0 -225.5 -92t-91.5 -250q0 -159 89 -251.5t228 -92.5q157 0 256 102l59 -63q-44 -53 -126 -92.5t-195 -39.5q-177 0 -297.5 123t-120.5 310z" />
<glyph unicode="&#xaa;" horiz-adv-x="665" d="M100 514q0 33 8 61t20.5 48t33.5 35.5t41 26t50 17.5t52.5 11t56.5 6t54.5 2.5t54.5 1t49 0.5q4 28 4 45q0 59 -37.5 89t-97.5 30q-39 0 -91.5 -14.5t-78.5 -36.5l-31 63q99 70 220 70q97 0 155 -44.5t58 -138.5q0 -61 -10 -130t-27 -154t-23 -129h-96l10 73 q-37 -36 -94 -60t-109 -24q-70 0 -121 41.5t-51 110.5zM207 528q0 -44 32.5 -64t79.5 -20q44 0 91 23t77 57l21 129q-11 0 -44.5 0.5t-55.5 -0.5t-55.5 -4t-56 -11t-45 -21t-33.5 -36t-11 -53z" />
<glyph unicode="&#xab;" horiz-adv-x="864" d="M129 475l340 381l63 -59l-284 -322l184 -323l-84 -58zM410 475l340 381l63 -59l-285 -322l185 -323l-84 -58z" />
<glyph unicode="&#xac;" horiz-adv-x="1325" d="M102 819v92h1035v-563h-93v471h-942z" />
<glyph unicode="&#xad;" horiz-adv-x="520" d="M82 518l16 103h432l-14 -103h-434z" />
<glyph unicode="&#xae;" horiz-adv-x="1638" d="M49 707q0 150 57 285.5t154 232.5t232.5 154t285.5 57t285.5 -57t232.5 -154t154 -232.5t57 -285.5t-57 -285.5t-154 -233t-232.5 -154.5t-285.5 -57t-285.5 57t-232.5 154.5t-154 233t-57 285.5zM137 707q0 -129 51.5 -247.5t137.5 -204.5t204.5 -137.5t247.5 -51.5 t247.5 51.5t204.5 137.5t137.5 204.5t51.5 247.5t-51.5 247.5t-137.5 204.5t-204.5 137.5t-247.5 51.5t-247.5 -51.5t-204.5 -137.5t-137.5 -204.5t-51.5 -247.5zM526 289v835h238q128 0 205.5 -61.5t77.5 -175.5q0 -55 -18.5 -98.5t-49 -69.5t-62 -40.5t-65.5 -21.5 l238 -368h-127l-220 358h-116v-358h-101zM627 735h123q188 0 188 152q0 149 -188 149h-123v-301z" />
<glyph unicode="&#xaf;" horiz-adv-x="555" d="M254 1167l12 82h436l-12 -82h-436z" />
<glyph unicode="&#xb0;" horiz-adv-x="819" d="M66 1208q0 128 89 212.5t214 84.5t213 -84.5t88 -212.5t-88 -212.5t-213 -84.5t-214 84.5t-89 212.5zM158 1208q0 -87 60 -149t151 -62q90 0 149.5 62t59.5 149t-59 148t-150 61t-151 -61.5t-60 -147.5z" />
<glyph unicode="&#xb1;" horiz-adv-x="1320" d="M102 219v92h1035v-92h-1035zM102 834v92h471v430h93v-430h471v-92h-471v-431h-93v431h-471z" />
<glyph unicode="&#xb2;" horiz-adv-x="704" d="M131 598l12 80l379 348q37 34 59 56.5t51 58.5t43.5 72.5t14.5 74.5q0 66 -48.5 101.5t-117.5 35.5q-161 0 -213 -174l-86 6q33 114 117 184t201 70q100 0 170.5 -55t70.5 -153q0 -69 -39.5 -139.5t-75.5 -107.5t-108 -102q-14 -12 -20 -18l-277 -250h434l-14 -88h-553z " />
<glyph unicode="&#xb3;" horiz-adv-x="704" d="M162 801l88 18q4 -70 49 -107.5t117 -37.5q90 0 157.5 57.5t67.5 145.5q0 147 -209 151l14 84q47 2 88 12t77.5 31t57.5 58t21 87q0 58 -43 91.5t-102 33.5q-67 0 -119.5 -36t-77.5 -99l-72 27q37 86 114 139t169 53q93 0 158 -51.5t65 -142.5q0 -83 -53.5 -148 t-134.5 -94q64 -19 101.5 -69.5t37.5 -116.5q0 -129 -100.5 -214t-231.5 -85q-103 0 -169.5 55.5t-69.5 157.5z" />
<glyph unicode="&#xb4;" horiz-adv-x="555" d="M250 1116l237 297h131l-274 -297h-94z" />
<glyph unicode="&#xb5;" horiz-adv-x="1019" d="M43 -389l211 1335h108l-88 -547q-10 -65 -10 -116q0 -205 193 -205q139 0 220 93t105 239l84 536h109l-152 -948h-106l22 139q-51 -67 -136.5 -114.5t-164.5 -47.5q-66 0 -130 24.5t-85 74.5l-73 -463h-107z" />
<glyph unicode="&#xb6;" d="M227 926q0 227 132.5 357t363.5 130h444l-14 -96h-109l-270 -1706h-102l270 1706h-172l-270 -1706h-103l158 1001q-151 0 -239.5 82t-88.5 232z" />
<glyph unicode="&#xb7;" horiz-adv-x="565" d="M236 571q0 46 33.5 80.5t78.5 34.5q35 0 58.5 -22.5t23.5 -57.5q0 -46 -33.5 -80t-79.5 -34q-35 0 -58 22t-23 57z" />
<glyph unicode="&#xb8;" horiz-adv-x="595" d="M55 -297l256 297h95l-218 -297h-133z" />
<glyph unicode="&#xb9;" horiz-adv-x="704" d="M391 1409l12 80h263l-142 -891h-90l127 811h-170z" />
<glyph unicode="&#xba;" horiz-adv-x="745" d="M137 612q0 143 98.5 250t245.5 107q109 0 178.5 -70.5t69.5 -179.5q0 -143 -98.5 -250t-245.5 -107q-109 0 -178.5 70.5t-69.5 179.5zM238 627q0 -75 43.5 -122.5t117.5 -47.5q99 0 164.5 78.5t65.5 179.5q0 74 -44.5 119t-117.5 45q-101 0 -165 -75t-64 -177z" />
<glyph unicode="&#xbb;" horiz-adv-x="864" d="M111 154l284 321l-184 324l84 57l219 -381l-340 -381zM391 154l285 321l-184 324l83 57l222 -381l-342 -381z" />
<glyph unicode="&#xbc;" horiz-adv-x="1695" d="M221 2l1067 1442l70 -47l-1067 -1444zM305 1333l14 80h261l-127 -811h-93l117 731h-172zM831 188l11 54l573 671h70l-103 -637h129l-14 -88h-129l-29 -188h-90l29 188h-447zM965 276h327l76 476z" />
<glyph unicode="&#xbd;" horiz-adv-x="1697" d="M221 2l1067 1442l70 -47l-1067 -1444zM305 1333l14 80h261l-136 -852h-90l123 772h-172zM965 63l338 297q42 38 66 62t58 64.5t50 81.5t16 83q0 67 -43.5 106.5t-110.5 39.5q-126 0 -215 -154l-65 43q61 95 133.5 146t173.5 51q94 0 158.5 -58t64.5 -151q0 -56 -27 -117 t-65.5 -110.5t-97 -106.5t-104 -94.5t-106.5 -86t-85 -69.5h424l-15 -90h-542z" />
<glyph unicode="&#xbe;" horiz-adv-x="1695" d="M162 799l88 20q4 -71 48.5 -108t115.5 -37q91 0 159 57t68 146q0 145 -209 149l14 86q47 2 88 12t77.5 31t57.5 58t21 87q0 58 -43 91.5t-102 33.5q-67 0 -119.5 -36t-77.5 -99l-72 27q37 86 114 139t169 53q93 0 158 -51.5t65 -142.5q0 -83 -53.5 -148t-134.5 -96 q64 -17 101.5 -67.5t37.5 -118.5q0 -128 -100.5 -212.5t-231.5 -84.5q-104 0 -170 55t-69 156zM301 2l1065 1442l70 -47l-1065 -1444zM831 188l11 54l573 671h70l-103 -637h129l-14 -88h-129l-29 -188h-90l29 188h-447zM965 276h327l76 476z" />
<glyph unicode="&#xbf;" horiz-adv-x="923" d="M45 -215q0 74 22.5 134.5t63 107.5t82.5 85t96 87t88 92q25 31 42.5 77.5t23.5 72t17 95t12 76.5h92q-2 -14 -7.5 -63t-8 -67t-10 -58.5t-16.5 -63.5t-24 -54.5t-35 -57.5q-29 -39 -76 -82t-87 -77t-78 -75t-60 -94t-22 -117q0 -89 57.5 -137.5t147.5 -48.5 q87 0 159.5 46t112.5 124l74 -53q-60 -104 -154 -160.5t-217 -56.5q-128 0 -211.5 71.5t-83.5 196.5zM481 854q0 46 34 81.5t79 35.5q37 0 59.5 -22.5t22.5 -57.5q0 -48 -33 -83.5t-80 -35.5q-36 0 -59 23t-23 59z" />
<glyph unicode="&#xc0;" horiz-adv-x="1251" d="M-35 0l807 1419h62l356 -1419h-127l-100 424h-644l-235 -424h-119zM377 530h561l-168 713zM594 1833h133l141 -301h-92z" />
<glyph unicode="&#xc1;" horiz-adv-x="1251" d="M-35 0l807 1419h62l356 -1419h-127l-100 424h-644l-235 -424h-119zM377 530h561l-168 713zM774 1532l236 301h133l-277 -301h-92z" />
<glyph unicode="&#xc2;" horiz-adv-x="1251" d="M-35 0l807 1419h62l356 -1419h-127l-100 424h-644l-235 -424h-119zM377 530h561l-168 713zM602 1532l236 301h61l141 -301h-92l-94 213l-160 -213h-92z" />
<glyph unicode="&#xc3;" horiz-adv-x="1251" d="M-35 0l807 1419h62l356 -1419h-127l-100 424h-644l-235 -424h-119zM377 530h561l-168 713zM557 1614q16 66 66 114t114 48q37 0 72 -15t57.5 -33.5t51.5 -33.5t55 -15q33 0 59.5 26.5t34.5 61.5l66 -22q-16 -65 -66.5 -113.5t-114.5 -48.5q-37 0 -72.5 15.5t-57.5 33.5 t-50.5 33.5t-54.5 15.5q-33 0 -59.5 -26.5t-36.5 -61.5z" />
<glyph unicode="&#xc4;" horiz-adv-x="1251" d="M-35 0l807 1419h62l356 -1419h-127l-100 424h-644l-235 -424h-119zM377 530h561l-168 713zM623 1655q0 42 30 76t72 34q33 0 52.5 -21t19.5 -54q0 -43 -29.5 -77t-71.5 -34q-33 0 -53 21.5t-20 54.5zM889 1655q0 43 29.5 76.5t72.5 33.5q32 0 52 -21t20 -54 q0 -43 -29.5 -77t-72.5 -34q-32 0 -52 21.5t-20 54.5z" />
<glyph unicode="&#xc5;" horiz-adv-x="1251" d="M-35 0l807 1419h62l356 -1419h-127l-100 424h-644l-235 -424h-119zM377 530h561l-168 713zM666 1663q0 84 63 149.5t148 65.5q66 0 108.5 -44t42.5 -110q0 -85 -63.5 -151t-147.5 -66q-66 0 -108.5 44.5t-42.5 111.5zM743 1673q0 -38 24 -64t62 -26q50 0 85.5 40t35.5 89 q0 39 -24 65.5t-62 26.5q-50 0 -85.5 -40t-35.5 -91z" />
<glyph unicode="&#xc6;" horiz-adv-x="1624" d="M-94 0l1042 1413h738l-17 -104h-579l-78 -496h542l-16 -104h-543l-96 -605h592l-16 -104h-703l70 428h-504l-309 -428h-123zM416 535h442l123 778h-2z" />
<glyph unicode="&#xc7;" horiz-adv-x="1339" d="M141 565q0 172 60.5 330.5t165.5 277.5t258 190t327 71q287 0 457 -211l-80 -80q-54 91 -165 139.5t-228 48.5q-147 0 -275 -63t-215 -167t-136.5 -239t-49.5 -278q0 -223 129 -361.5t350 -138.5q130 0 249.5 48t211.5 138l62 -73q-228 -219 -533 -222l-174 -282h-131 l211 287q-227 28 -360.5 186.5t-133.5 398.5z" />
<glyph unicode="&#xc8;" horiz-adv-x="1021" d="M125 0l223 1413h742l-17 -102h-631l-80 -506h596l-16 -105h-596l-96 -596h647l-16 -104h-756zM539 1833h133l141 -301h-92z" />
<glyph unicode="&#xc9;" horiz-adv-x="1021" d="M125 0l223 1413h742l-17 -102h-631l-80 -506h596l-16 -105h-596l-96 -596h647l-16 -104h-756zM629 1532l237 301h133l-276 -301h-94z" />
<glyph unicode="&#xca;" horiz-adv-x="1021" d="M125 0l223 1413h742l-17 -102h-631l-80 -506h596l-16 -105h-596l-96 -596h647l-16 -104h-756zM518 1532l236 301h61l143 -301h-94l-92 213l-162 -213h-92z" />
<glyph unicode="&#xcb;" horiz-adv-x="1021" d="M125 0l223 1413h742l-17 -102h-631l-80 -506h596l-16 -105h-596l-96 -596h647l-16 -104h-756zM541 1655q0 43 29 76.5t71 33.5q33 0 53.5 -21t20.5 -54q0 -43 -30 -77t-73 -34q-32 0 -51.5 21.5t-19.5 54.5zM805 1655q0 43 29.5 76.5t72.5 33.5q32 0 52 -21t20 -54 q0 -43 -29.5 -77t-72.5 -34q-32 0 -52 21.5t-20 54.5z" />
<glyph unicode="&#xcc;" horiz-adv-x="444" d="M125 0l223 1413h111l-226 -1413h-108zM205 1833h133l141 -301h-94z" />
<glyph unicode="&#xcd;" horiz-adv-x="444" d="M125 0l223 1413h111l-226 -1413h-108zM365 1532l237 301h133l-276 -301h-94z" />
<glyph unicode="&#xce;" horiz-adv-x="444" d="M125 0l223 1413h111l-226 -1413h-108zM203 1532l235 301h62l141 -301h-92l-94 213l-160 -213h-92z" />
<glyph unicode="&#xcf;" horiz-adv-x="444" d="M125 0l223 1413h111l-226 -1413h-108zM225 1665q0 43 30 77t73 34q32 0 51.5 -21.5t19.5 -54.5q0 -43 -29 -77t-71 -34q-33 0 -53.5 21.5t-20.5 54.5zM492 1665q0 43 29.5 77t72.5 34q32 0 52 -21.5t20 -54.5q0 -43 -30 -77t-73 -34q-32 0 -51.5 21.5t-19.5 54.5z" />
<glyph unicode="&#xd0;" horiz-adv-x="1339" d="M96 694l17 105h137l98 614h375q174 0 311 -71.5t215 -205.5t78 -309q0 -227 -110 -417t-300 -300t-417 -110h-375l108 694h-137zM250 104h256q145 0 275.5 56t224.5 151.5t149 227t55 276.5q0 229 -141.5 361.5t-372.5 132.5h-254l-82 -510h396l-17 -105h-395z" />
<glyph unicode="&#xd1;" horiz-adv-x="1456" d="M125 0l223 1413h109l700 -1210l193 1210h108l-223 -1413h-98l-707 1233l-197 -1233h-108zM657 1614q16 65 66.5 113.5t114.5 48.5q37 0 72.5 -15t57.5 -33.5t50.5 -33.5t54.5 -15q34 0 60 26t36 62l64 -22q-16 -66 -66 -114t-114 -48q-46 0 -88 24.5t-78.5 49t-69.5 24.5 t-59.5 -26.5t-34.5 -61.5z" />
<glyph unicode="&#xd2;" horiz-adv-x="1558" d="M141 565q0 173 61 331.5t167 277.5t260 189.5t329 70.5q261 0 423.5 -164.5t162.5 -425.5q0 -138 -38.5 -268.5t-112 -238.5t-172.5 -189.5t-226.5 -127t-267.5 -45.5q-262 0 -424 164t-162 426zM258 584q0 -222 132.5 -361t352.5 -139q147 0 276 62.5t217.5 166.5 t139.5 239t51 279q0 222 -132.5 361t-352.5 139q-147 0 -276 -62.5t-217.5 -166.5t-139.5 -239t-51 -279zM748 1833h131l143 -301h-94z" />
<glyph unicode="&#xd3;" horiz-adv-x="1558" d="M141 565q0 173 61 331.5t167 277.5t260 189.5t329 70.5q261 0 423.5 -164.5t162.5 -425.5q0 -138 -38.5 -268.5t-112 -238.5t-172.5 -189.5t-226.5 -127t-267.5 -45.5q-262 0 -424 164t-162 426zM258 584q0 -222 132.5 -361t352.5 -139q147 0 276 62.5t217.5 166.5 t139.5 239t51 279q0 222 -132.5 361t-352.5 139q-147 0 -276 -62.5t-217.5 -166.5t-139.5 -239t-51 -279zM926 1532l237 301h133l-278 -301h-92z" />
<glyph unicode="&#xd4;" horiz-adv-x="1558" d="M141 565q0 173 61 331.5t167 277.5t260 189.5t329 70.5q261 0 423.5 -164.5t162.5 -425.5q0 -138 -38.5 -268.5t-112 -238.5t-172.5 -189.5t-226.5 -127t-267.5 -45.5q-262 0 -424 164t-162 426zM258 584q0 -222 132.5 -361t352.5 -139q147 0 276 62.5t217.5 166.5 t139.5 239t51 279q0 222 -132.5 361t-352.5 139q-147 0 -276 -62.5t-217.5 -166.5t-139.5 -239t-51 -279zM754 1532l237 301h60l143 -301h-94l-92 213l-162 -213h-92z" />
<glyph unicode="&#xd5;" horiz-adv-x="1558" d="M141 565q0 173 61 331.5t167 277.5t260 189.5t329 70.5q261 0 423.5 -164.5t162.5 -425.5q0 -138 -38.5 -268.5t-112 -238.5t-172.5 -189.5t-226.5 -127t-267.5 -45.5q-262 0 -424 164t-162 426zM258 584q0 -222 132.5 -361t352.5 -139q147 0 276 62.5t217.5 166.5 t139.5 239t51 279q0 222 -132.5 361t-352.5 139q-147 0 -276 -62.5t-217.5 -166.5t-139.5 -239t-51 -279zM709 1614q16 66 66 114t114 48q37 0 72.5 -15t57.5 -33.5t50.5 -33.5t54.5 -15q34 0 60.5 26.5t36.5 61.5l63 -22q-16 -66 -66 -114t-114 -48q-46 0 -88 24.5 t-78.5 49t-69.5 24.5t-59.5 -26.5t-34.5 -61.5z" />
<glyph unicode="&#xd6;" horiz-adv-x="1558" d="M141 565q0 173 61 331.5t167 277.5t260 189.5t329 70.5q261 0 423.5 -164.5t162.5 -425.5q0 -138 -38.5 -268.5t-112 -238.5t-172.5 -189.5t-226.5 -127t-267.5 -45.5q-262 0 -424 164t-162 426zM258 584q0 -222 132.5 -361t352.5 -139q147 0 276 62.5t217.5 166.5 t139.5 239t51 279q0 222 -132.5 361t-352.5 139q-147 0 -276 -62.5t-217.5 -166.5t-139.5 -239t-51 -279zM776 1655q0 43 30 76.5t73 33.5q32 0 51.5 -21t19.5 -54q0 -43 -29.5 -77t-72.5 -34q-32 0 -52 21.5t-20 54.5zM1040 1655q0 42 30.5 76t72.5 34q33 0 52 -21t19 -54 q0 -43 -29 -77t-71 -34q-33 0 -53.5 21.5t-20.5 54.5z" />
<glyph unicode="&#xd7;" horiz-adv-x="1320" d="M123 270l430 435l-430 432l61 65l434 -434l437 434l61 -65l-430 -432l430 -435l-61 -65l-437 434l-434 -434z" />
<glyph unicode="&#xd8;" horiz-adv-x="1558" d="M53 47l187 170q-99 144 -99 348q0 173 61 331.5t167 277.5t260 189.5t329 70.5q124 0 237.5 -43.5t195.5 -130.5l192 174l55 -68l-192 -174q98 -147 98 -348q0 -138 -38.5 -268.5t-112 -238.5t-172.5 -189.5t-226.5 -127t-267.5 -45.5q-124 0 -237 43.5t-195 128.5 l-186 -167zM258 584q0 -166 74 -283l973 883q-67 73 -162.5 110t-200.5 37q-147 0 -276 -62.5t-217.5 -166.5t-139.5 -239t-51 -279zM385 229q67 -72 161 -108.5t197 -36.5q147 0 276 62.5t217.5 166.5t139.5 239t51 279q0 163 -69 281z" />
<glyph unicode="&#xd9;" horiz-adv-x="1290" d="M182 360q0 75 23 209l133 844h111l-130 -813q-22 -154 -22 -211q0 -145 83.5 -226t229.5 -81q94 0 167.5 29t121 74.5t82.5 116.5t53.5 139.5t32.5 158.5l129 813h109l-134 -844q-17 -106 -43 -190.5t-71 -162t-106.5 -129t-152 -82t-204.5 -30.5q-185 0 -298.5 101 t-113.5 284zM659 1833h134l141 -301h-92z" />
<glyph unicode="&#xda;" horiz-adv-x="1290" d="M182 360q0 75 23 209l133 844h111l-130 -813q-22 -154 -22 -211q0 -145 83.5 -226t229.5 -81q94 0 167.5 29t121 74.5t82.5 116.5t53.5 139.5t32.5 158.5l129 813h109l-134 -844q-17 -106 -43 -190.5t-71 -162t-106.5 -129t-152 -82t-204.5 -30.5q-185 0 -298.5 101 t-113.5 284zM748 1532l235 301h133l-276 -301h-92z" />
<glyph unicode="&#xdb;" horiz-adv-x="1290" d="M182 360q0 75 23 209l133 844h111l-130 -813q-22 -154 -22 -211q0 -145 83.5 -226t229.5 -81q94 0 167.5 29t121 74.5t82.5 116.5t53.5 139.5t32.5 158.5l129 813h109l-134 -844q-17 -106 -43 -190.5t-71 -162t-106.5 -129t-152 -82t-204.5 -30.5q-185 0 -298.5 101 t-113.5 284zM621 1532l237 301h62l141 -301h-94l-93 213l-159 -213h-94z" />
<glyph unicode="&#xdc;" horiz-adv-x="1290" d="M182 360q0 75 23 209l133 844h111l-130 -813q-22 -154 -22 -211q0 -145 83.5 -226t229.5 -81q94 0 167.5 29t121 74.5t82.5 116.5t53.5 139.5t32.5 158.5l129 813h109l-134 -844q-17 -106 -43 -190.5t-71 -162t-106.5 -129t-152 -82t-204.5 -30.5q-185 0 -298.5 101 t-113.5 284zM643 1655q0 43 29.5 76.5t72.5 33.5q32 0 52 -21t20 -54q0 -43 -29.5 -77t-72.5 -34q-32 0 -52 21.5t-20 54.5zM909 1655q0 42 29.5 76t71.5 34q33 0 53 -21t20 -54q0 -43 -29.5 -77t-72.5 -34q-32 0 -52 21.5t-20 54.5z" />
<glyph unicode="&#xdd;" horiz-adv-x="1081" d="M188 1413h129l291 -702l512 702h127l-602 -809l-96 -604h-109l95 604zM645 1532l238 301h133l-277 -301h-94z" />
<glyph unicode="&#xde;" horiz-adv-x="983" d="M125 0l223 1413h111l-47 -291h39q35 1 71 0t72 -1.5t72 -5.5t69.5 -11.5t65 -18.5t58.5 -27.5t49 -39t38 -52.5t24.5 -67.5t8.5 -83.5q0 -141 -68.5 -244t-181 -153.5t-254.5 -50.5h-182l-60 -367h-108zM309 471h187q157 0 261.5 85.5t104.5 240.5q0 116 -79 169.5 t-201 53.5h-187z" />
<glyph unicode="&#xdf;" horiz-adv-x="1042" d="M29 -389q33 61 47 147l186 1174q11 68 19 111.5t24.5 101.5t36 95.5t51.5 77.5t72 63t96.5 38t126.5 15q112 0 190 -69t78 -181q0 -122 -61.5 -214.5t-179.5 -121.5v-2q124 -13 199 -113t75 -229q0 -112 -41.5 -208.5t-113 -163.5t-171.5 -105.5t-214 -38.5q-44 0 -99 10 l27 104q49 -12 98 -12q174 0 288 118t114 294q0 70 -21.5 121t-55.5 80.5t-86 47.5t-103 23.5t-117 5.5l16 103q336 0 336 280q0 80 -56.5 127t-136.5 47q-70 0 -120 -25t-79.5 -73t-44.5 -97t-26 -118l-199 -1253q-7 -45 -20 -85t-22 -58l-9 -17h-104z" />
<glyph unicode="&#xe0;" horiz-adv-x="1132" d="M102 377q0 117 39.5 224.5t109 188.5t170.5 129t218 48q214 0 309 -189h2l27 172h108l-127 -794q-6 -37 -6 -88q0 -19 1.5 -36t2.5 -24l2 -8h-108q-6 23 -6 66q0 37 6 79l4 23h-2q-69 -90 -163 -140.5t-202 -50.5q-185 0 -285 109t-100 291zM217 389q0 -138 74.5 -223.5 t210.5 -85.5q93 0 172.5 41.5t130.5 110t79.5 154t28.5 175.5q0 138 -74 223.5t-210 85.5q-124 0 -220 -71.5t-144 -179.5t-48 -230zM461 1413h133l141 -297h-92z" />
<glyph unicode="&#xe1;" horiz-adv-x="1132" d="M102 377q0 117 39.5 224.5t109 188.5t170.5 129t218 48q214 0 309 -189h2l27 172h108l-127 -794q-6 -37 -6 -88q0 -19 1.5 -36t2.5 -24l2 -8h-108q-6 23 -6 66q0 37 6 79l4 23h-2q-69 -90 -163 -140.5t-202 -50.5q-185 0 -285 109t-100 291zM217 389q0 -138 74.5 -223.5 t210.5 -85.5q93 0 172.5 41.5t130.5 110t79.5 154t28.5 175.5q0 138 -74 223.5t-210 85.5q-124 0 -220 -71.5t-144 -179.5t-48 -230zM514 1116l238 297h131l-275 -297h-94z" />
<glyph unicode="&#xe2;" horiz-adv-x="1132" d="M102 377q0 117 39.5 224.5t109 188.5t170.5 129t218 48q214 0 309 -189h2l27 172h108l-127 -794q-6 -37 -6 -88q0 -19 1.5 -36t2.5 -24l2 -8h-108q-6 23 -6 66q0 37 6 79l4 23h-2q-69 -90 -163 -140.5t-202 -50.5q-185 0 -285 109t-100 291zM217 389q0 -138 74.5 -223.5 t210.5 -85.5q93 0 172.5 41.5t130.5 110t79.5 154t28.5 175.5q0 138 -74 223.5t-210 85.5q-124 0 -220 -71.5t-144 -179.5t-48 -230zM397 1116l238 297h61l142 -297h-93l-94 211l-159 -211h-95z" />
<glyph unicode="&#xe3;" horiz-adv-x="1132" d="M102 377q0 117 39.5 224.5t109 188.5t170.5 129t218 48q214 0 309 -189h2l27 172h108l-127 -794q-6 -37 -6 -88q0 -19 1.5 -36t2.5 -24l2 -8h-108q-6 23 -6 66q0 37 6 79l4 23h-2q-69 -90 -163 -140.5t-202 -50.5q-185 0 -285 109t-100 291zM217 389q0 -138 74.5 -223.5 t210.5 -85.5q93 0 172.5 41.5t130.5 110t79.5 154t28.5 175.5q0 138 -74 223.5t-210 85.5q-124 0 -220 -71.5t-144 -179.5t-48 -230zM350 1208q18 65 67.5 111.5t112.5 46.5q47 0 89.5 -23.5t78.5 -47t68 -23.5q33 0 59.5 25.5t36.5 60.5l64 -21q-16 -65 -66 -112t-115 -47 q-46 0 -88 23.5t-78 47t-69 23.5t-58.5 -25t-35.5 -59z" />
<glyph unicode="&#xe4;" horiz-adv-x="1132" d="M102 377q0 117 39.5 224.5t109 188.5t170.5 129t218 48q214 0 309 -189h2l27 172h108l-127 -794q-6 -37 -6 -88q0 -19 1.5 -36t2.5 -24l2 -8h-108q-6 23 -6 66q0 37 6 79l4 23h-2q-69 -90 -163 -140.5t-202 -50.5q-185 0 -285 109t-100 291zM217 389q0 -138 74.5 -223.5 t210.5 -85.5q93 0 172.5 41.5t130.5 110t79.5 154t28.5 175.5q0 138 -74 223.5t-210 85.5q-124 0 -220 -71.5t-144 -179.5t-48 -230zM422 1247q0 43 29.5 76t72.5 33q32 0 52 -21t20 -53q0 -42 -30 -76.5t-72 -34.5q-32 0 -52 21.5t-20 54.5zM688 1247q0 42 29 75.5t71 33.5 q32 0 52 -21t20 -53q0 -43 -29 -77t-71 -34q-32 0 -52 21.5t-20 54.5z" />
<glyph unicode="&#xe5;" horiz-adv-x="1132" d="M102 377q0 117 39.5 224.5t109 188.5t170.5 129t218 48q214 0 309 -189h2l27 172h108l-127 -794q-6 -37 -6 -88q0 -19 1.5 -36t2.5 -24l2 -8h-108q-6 23 -6 66q0 37 6 79l4 23h-2q-69 -90 -163 -140.5t-202 -50.5q-185 0 -285 109t-100 291zM217 389q0 -138 74.5 -223.5 t210.5 -85.5q93 0 172.5 41.5t130.5 110t79.5 154t28.5 175.5q0 138 -74 223.5t-210 85.5q-124 0 -220 -71.5t-144 -179.5t-48 -230zM436 1266q0 84 63.5 149.5t147.5 65.5q66 0 109 -45t43 -111q0 -84 -63.5 -149.5t-147.5 -65.5q-66 0 -109 45t-43 111zM514 1276 q0 -38 24 -64t62 -26q50 0 85.5 39t35.5 90q0 38 -24 64t-62 26q-49 0 -85 -39.5t-36 -89.5z" />
<glyph unicode="&#xe6;" horiz-adv-x="1587" d="M55 219q0 82 31 144.5t79.5 100t117 61t134.5 32t140 8.5q86 0 164 -10q12 70 12 113q0 97 -60 150.5t-159 53.5q-68 0 -148.5 -23.5t-134.5 -60.5l-28 82q158 97 321 97q45 0 93.5 -12t94.5 -35t78 -63.5t37 -92.5q75 95 182 149t222 54q139 0 218 -70t79 -166 q0 -56 -30 -106.5t-89.5 -93t-162 -68t-234.5 -25.5q-78 0 -195 13q-6 -41 -6 -78q0 -139 71 -218t203 -79q41 0 82 7t73.5 17.5t62 24t51 26.5t37 23.5t23.5 17.5l9 7l37 -76q-6 -6 -16.5 -15.5t-48.5 -34t-81 -43.5t-112 -34.5t-143 -15.5q-121 0 -205 57.5t-125 161.5 q-96 -111 -192.5 -165t-217.5 -54q-113 0 -188.5 64.5t-75.5 174.5zM164 236q0 -79 54.5 -119.5t135.5 -40.5q96 0 197.5 58.5t155.5 152.5q-9 46 -9 96q0 30 4 84q-94 12 -167 12q-57 0 -106 -6t-99.5 -22.5t-85.5 -43t-57.5 -70.5t-22.5 -101zM836 543q94 -11 182 -11 q109 0 197 20.5t146 68t58 114.5q0 57 -59 98t-152 41q-79 0 -147 -32.5t-112.5 -84t-73 -106.5t-39.5 -108z" />
<glyph unicode="&#xe7;" horiz-adv-x="933" d="M104 383q0 110 41 215.5t111 187t173 131.5t218 50q99 0 197 -42.5t139 -121.5l-78 -70q-52 74 -117.5 106.5t-158.5 32.5q-118 0 -214.5 -72.5t-147 -180.5t-50.5 -222q0 -138 77 -227.5t214 -89.5q87 0 181 33t153 90l39 -80q-66 -61 -158.5 -97t-190.5 -46l-200 -277 h-133l235 279q-152 15 -241 129.5t-89 271.5z" />
<glyph unicode="&#xe8;" horiz-adv-x="995" d="M106 383q0 125 45 235.5t119.5 186t170.5 119t198 43.5q139 0 218 -70t79 -166q0 -56 -30 -106.5t-89.5 -93t-162 -68t-234.5 -25.5q-78 0 -195 13q-6 -41 -6 -78q0 -138 71.5 -217.5t203.5 -79.5q41 0 82 7t73.5 17.5t61.5 24t50.5 26.5t37 23.5t23.5 17.5l9 7l37 -76 q-6 -6 -16.5 -15.5t-48.5 -34t-81 -43.5t-112 -34.5t-143 -15.5q-168 0 -264.5 111t-96.5 292zM244 543q94 -11 182 -11q109 0 197 20.5t146 68t58 114.5q0 57 -59 98t-152 41q-79 0 -147 -32.5t-112.5 -84t-73 -106.5t-39.5 -108zM381 1413h133l141 -297h-92z" />
<glyph unicode="&#xe9;" horiz-adv-x="995" d="M106 383q0 125 45 235.5t119.5 186t170.5 119t198 43.5q139 0 218 -70t79 -166q0 -56 -30 -106.5t-89.5 -93t-162 -68t-234.5 -25.5q-78 0 -195 13q-6 -41 -6 -78q0 -138 71.5 -217.5t203.5 -79.5q41 0 82 7t73.5 17.5t61.5 24t50.5 26.5t37 23.5t23.5 17.5l9 7l37 -76 q-6 -6 -16.5 -15.5t-48.5 -34t-81 -43.5t-112 -34.5t-143 -15.5q-168 0 -264.5 111t-96.5 292zM244 543q94 -11 182 -11q109 0 197 20.5t146 68t58 114.5q0 57 -59 98t-152 41q-79 0 -147 -32.5t-112.5 -84t-73 -106.5t-39.5 -108zM436 1116l238 297h131l-275 -297h-94z" />
<glyph unicode="&#xea;" horiz-adv-x="995" d="M106 383q0 125 45 235.5t119.5 186t170.5 119t198 43.5q139 0 218 -70t79 -166q0 -56 -30 -106.5t-89.5 -93t-162 -68t-234.5 -25.5q-78 0 -195 13q-6 -41 -6 -78q0 -138 71.5 -217.5t203.5 -79.5q41 0 82 7t73.5 17.5t61.5 24t50.5 26.5t37 23.5t23.5 17.5l9 7l37 -76 q-6 -6 -16.5 -15.5t-48.5 -34t-81 -43.5t-112 -34.5t-143 -15.5q-168 0 -264.5 111t-96.5 292zM244 543q94 -11 182 -11q109 0 197 20.5t146 68t58 114.5q0 57 -59 98t-152 41q-79 0 -147 -32.5t-112.5 -84t-73 -106.5t-39.5 -108zM360 1116l238 297h61l142 -297h-92 l-95 211l-159 -211h-95z" />
<glyph unicode="&#xeb;" horiz-adv-x="995" d="M106 383q0 125 45 235.5t119.5 186t170.5 119t198 43.5q139 0 218 -70t79 -166q0 -56 -30 -106.5t-89.5 -93t-162 -68t-234.5 -25.5q-78 0 -195 13q-6 -41 -6 -78q0 -138 71.5 -217.5t203.5 -79.5q41 0 82 7t73.5 17.5t61.5 24t50.5 26.5t37 23.5t23.5 17.5l9 7l37 -76 q-6 -6 -16.5 -15.5t-48.5 -34t-81 -43.5t-112 -34.5t-143 -15.5q-168 0 -264.5 111t-96.5 292zM244 543q94 -11 182 -11q109 0 197 20.5t146 68t58 114.5q0 57 -59 98t-152 41q-79 0 -147 -32.5t-112.5 -84t-73 -106.5t-39.5 -108zM381 1247q0 43 29.5 76t72.5 33 q32 0 52 -21t20 -53q0 -42 -30 -76.5t-72 -34.5q-32 0 -52 21.5t-20 54.5zM647 1247q0 42 29.5 75.5t71.5 33.5q32 0 51.5 -20.5t19.5 -53.5q0 -43 -29 -77t-71 -34q-32 0 -52 21.5t-20 54.5z" />
<glyph unicode="&#xec;" horiz-adv-x="421" d="M125 1413h133l141 -301h-92zM131 66q0 45 8 92l103 649q6 47 6 78q0 19 -1.5 36t-2.5 24l-2 7h106q6 -22 6 -65q0 -45 -8 -94l-102 -650q-4 -27 -4 -75q0 -19 1.5 -36t2.5 -24l2 -8h-109q-6 23 -6 66z" />
<glyph unicode="&#xed;" horiz-adv-x="421" d="M131 66q0 45 8 92l103 649q6 47 6 78q0 19 -1.5 36t-2.5 24l-2 7h106q6 -22 6 -65q0 -45 -8 -94l-102 -650q-4 -27 -4 -75q0 -19 1.5 -36t2.5 -24l2 -8h-109q-6 23 -6 66zM289 1112l237 301h133l-276 -301h-94z" />
<glyph unicode="&#xee;" horiz-adv-x="421" d="M125 1112l237 301h60l143 -301h-94l-92 213l-162 -213h-92zM131 66q0 45 8 92l103 649q6 47 6 78q0 19 -1.5 36t-2.5 24l-2 7h106q6 -22 6 -65q0 -45 -8 -94l-102 -650q-4 -27 -4 -75q0 -19 1.5 -36t2.5 -24l2 -8h-109q-6 23 -6 66z" />
<glyph unicode="&#xef;" horiz-adv-x="421" d="M131 66q0 45 8 92l103 649q6 47 6 78q0 19 -1.5 36t-2.5 24l-2 7h106q6 -22 6 -65q0 -45 -8 -94l-102 -650q-4 -27 -4 -75q0 -19 1.5 -36t2.5 -24l2 -8h-109q-6 23 -6 66zM150 1245q0 43 29.5 78t70.5 35q33 0 53.5 -22.5t20.5 -55.5q0 -42 -30.5 -76.5t-72.5 -34.5 q-33 0 -52 21.5t-19 54.5zM414 1245q0 43 29.5 78t72.5 35q32 0 52 -22.5t20 -55.5q0 -43 -30 -77t-73 -34q-32 0 -51.5 21.5t-19.5 54.5z" />
<glyph unicode="&#xf0;" horiz-adv-x="1101" d="M102 379q0 144 72 274.5t199.5 212.5t275.5 82q176 0 281 -114q-68 217 -240 401l-256 -158l-35 70l238 147q-98 95 -176 152l71 65q124 -89 195 -163l268 163l35 -69l-250 -154q131 -136 205 -309.5t74 -357.5q0 -99 -22.5 -192.5t-69.5 -175t-113 -142.5t-158 -96 t-200 -35q-173 0 -283.5 112.5t-110.5 286.5zM215 393q0 -137 83 -225t220 -88q89 0 169 39t135 103t87.5 147t32.5 170q0 138 -82.5 225.5t-220.5 87.5q-89 0 -169 -38.5t-135 -102t-87.5 -147t-32.5 -171.5z" />
<glyph unicode="&#xf1;" horiz-adv-x="1011" d="M104 0l129 805q7 54 7 78q0 19 -2 36t-4 24l-1 7h107q6 -22 6 -65q0 -32 -10 -97h2q53 81 139 130t180 49q271 0 271 -273q0 -38 -13 -131l-67 -420q-4 -27 -4 -75q0 -19 1.5 -36t2.5 -24l2 -8h-109q-6 23 -6 66q0 45 8 92l64 395q12 82 12 125q0 98 -44.5 145t-141.5 47 q-78 0 -140.5 -34t-102.5 -91.5t-64.5 -123t-36.5 -140.5l-78 -481h-107zM369 1206q16 64 66 112t114 48q37 0 72.5 -15t57.5 -33t50.5 -33t54.5 -15q33 0 60 26.5t37 61.5l63 -23q-16 -65 -66 -113t-114 -48q-37 0 -72 15.5t-57.5 33.5t-51.5 33.5t-55 15.5 q-33 0 -59.5 -26.5t-34.5 -61.5z" />
<glyph unicode="&#xf2;" horiz-adv-x="1101" d="M102 383q0 155 71.5 288.5t200 214.5t283.5 81q177 0 287.5 -115t110.5 -293q0 -155 -71 -287.5t-198.5 -212t-283.5 -79.5q-178 0 -289 112.5t-111 290.5zM217 397q0 -140 81 -228.5t220 -88.5q122 0 221 69t152 177t53 229q0 139 -81 227t-220 88q-123 0 -222 -68.5 t-151.5 -176t-52.5 -228.5zM498 1413h133l141 -301h-92z" />
<glyph unicode="&#xf3;" horiz-adv-x="1101" d="M102 383q0 155 71.5 288.5t200 214.5t283.5 81q177 0 287.5 -115t110.5 -293q0 -155 -71 -287.5t-198.5 -212t-283.5 -79.5q-178 0 -289 112.5t-111 290.5zM217 397q0 -140 81 -228.5t220 -88.5q122 0 221 69t152 177t53 229q0 139 -81 227t-220 88q-123 0 -222 -68.5 t-151.5 -176t-52.5 -228.5zM588 1112l237 301h133l-276 -301h-94z" />
<glyph unicode="&#xf4;" horiz-adv-x="1101" d="M102 383q0 155 71.5 288.5t200 214.5t283.5 81q177 0 287.5 -115t110.5 -293q0 -155 -71 -287.5t-198.5 -212t-283.5 -79.5q-178 0 -289 112.5t-111 290.5zM217 397q0 -140 81 -228.5t220 -88.5q122 0 221 69t152 177t53 229q0 139 -81 227t-220 88q-123 0 -222 -68.5 t-151.5 -176t-52.5 -228.5zM461 1112l237 301h62l141 -301h-94l-92 213l-160 -213h-94z" />
<glyph unicode="&#xf5;" horiz-adv-x="1101" d="M102 383q0 155 71.5 288.5t200 214.5t283.5 81q177 0 287.5 -115t110.5 -293q0 -155 -71 -287.5t-198.5 -212t-283.5 -79.5q-178 0 -289 112.5t-111 290.5zM217 397q0 -140 81 -228.5t220 -88.5q122 0 221 69t152 177t53 229q0 139 -81 227t-220 88q-123 0 -222 -68.5 t-151.5 -176t-52.5 -228.5zM418 1206q16 64 66 112t114 48q47 0 89.5 -24t78.5 -48t68 -24q33 0 59.5 26.5t36.5 61.5l63 -23q-16 -65 -66 -113t-114 -48q-37 0 -72 15.5t-57 33.5t-51 33.5t-55 15.5q-34 0 -60.5 -26.5t-34.5 -61.5z" />
<glyph unicode="&#xf6;" horiz-adv-x="1101" d="M102 383q0 155 71.5 288.5t200 214.5t283.5 81q177 0 287.5 -115t110.5 -293q0 -155 -71 -287.5t-198.5 -212t-283.5 -79.5q-178 0 -289 112.5t-111 290.5zM217 397q0 -140 81 -228.5t220 -88.5q122 0 221 69t152 177t53 229q0 139 -81 227t-220 88q-123 0 -222 -68.5 t-151.5 -176t-52.5 -228.5zM485 1245q0 43 30 78t73 35q32 0 51.5 -22.5t19.5 -55.5q0 -43 -29.5 -77t-72.5 -34q-32 0 -52 21.5t-20 54.5zM750 1245q0 43 30 78t72 35q32 0 52 -22.5t20 -55.5q0 -43 -29.5 -77t-71.5 -34q-33 0 -53 21.5t-20 54.5z" />
<glyph unicode="&#xf7;" horiz-adv-x="1320" d="M102 659v93h1035v-93h-1035zM524 408q0 39 27.5 66.5t66.5 27.5q40 0 67.5 -28t27.5 -66q0 -40 -27.5 -67.5t-67.5 -27.5q-38 0 -66 27.5t-28 67.5zM524 1006q0 38 28 66t66 28q40 0 67.5 -28t27.5 -66q0 -40 -27.5 -67.5t-67.5 -27.5q-38 0 -66 27.5t-28 67.5z" />
<glyph unicode="&#xf8;" horiz-adv-x="1101" d="M20 27l144 129q-62 98 -62 227q0 155 71.5 288.5t200 214.5t283.5 81q174 0 287 -113l143 129l52 -63l-146 -132q62 -98 62 -229q0 -155 -71 -287.5t-198.5 -212t-283.5 -79.5q-181 0 -287 112l-143 -129zM217 397q0 -90 35 -161l610 546q-79 88 -219 88 q-123 0 -222 -68.5t-151.5 -176t-52.5 -228.5zM299 168q79 -88 219 -88q122 0 221 69t152 177t53 229q0 89 -35 160z" />
<glyph unicode="&#xf9;" horiz-adv-x="1007" d="M143 248q0 40 13 137l67 422q6 47 6 78q0 19 -1.5 36t-3.5 24l-1 7h107q6 -22 6 -65q0 -41 -8 -90l-68 -428q-10 -58 -10 -107q0 -94 46 -140t142 -46q73 0 133.5 31.5t100.5 84.5t65.5 115.5t36.5 132.5l80 512h109l-129 -809q-5 -34 -5 -75q0 -19 1.5 -36t3.5 -24l2 -8 h-109q-6 23 -6 66q0 50 6 81q-56 -79 -139.5 -123t-179.5 -44q-265 0 -265 268zM430 1413h133l142 -301h-95z" />
<glyph unicode="&#xfa;" horiz-adv-x="1007" d="M143 248q0 40 13 137l67 422q6 47 6 78q0 19 -1.5 36t-3.5 24l-1 7h107q6 -22 6 -65q0 -41 -8 -90l-68 -428q-10 -58 -10 -107q0 -94 46 -140t142 -46q73 0 133.5 31.5t100.5 84.5t65.5 115.5t36.5 132.5l80 512h109l-129 -809q-5 -34 -5 -75q0 -19 1.5 -36t3.5 -24l2 -8 h-109q-6 23 -6 66q0 50 6 81q-56 -79 -139.5 -123t-179.5 -44q-265 0 -265 268zM555 1112l236 301h133l-277 -301h-92z" />
<glyph unicode="&#xfb;" horiz-adv-x="1007" d="M143 248q0 40 13 137l67 422q6 47 6 78q0 19 -1.5 36t-3.5 24l-1 7h107q6 -22 6 -65q0 -41 -8 -90l-68 -428q-10 -58 -10 -107q0 -94 46 -140t142 -46q73 0 133.5 31.5t100.5 84.5t65.5 115.5t36.5 132.5l80 512h109l-129 -809q-5 -34 -5 -75q0 -19 1.5 -36t3.5 -24l2 -8 h-109q-6 23 -6 66q0 50 6 81q-56 -79 -139.5 -123t-179.5 -44q-265 0 -265 268zM410 1112l237 301h62l141 -301h-94l-92 213l-160 -213h-94z" />
<glyph unicode="&#xfc;" horiz-adv-x="1007" d="M143 248q0 40 13 137l67 422q6 47 6 78q0 19 -1.5 36t-3.5 24l-1 7h107q6 -22 6 -65q0 -41 -8 -90l-68 -428q-10 -58 -10 -107q0 -94 46 -140t142 -46q73 0 133.5 31.5t100.5 84.5t65.5 115.5t36.5 132.5l80 512h109l-129 -809q-5 -34 -5 -75q0 -19 1.5 -36t3.5 -24l2 -8 h-109q-6 23 -6 66q0 50 6 81q-56 -79 -139.5 -123t-179.5 -44q-265 0 -265 268zM434 1245q0 43 30 78t73 35q32 0 51.5 -22.5t19.5 -55.5q0 -43 -29.5 -77t-72.5 -34q-32 0 -52 21.5t-20 54.5zM698 1245q0 43 30.5 78t72.5 35q33 0 52 -22.5t19 -55.5q0 -43 -29 -77t-71 -34 q-33 0 -53.5 21.5t-20.5 54.5z" />
<glyph unicode="&#xfd;" horiz-adv-x="864" d="M-27 -369l37 103q41 -21 92 -21q90 0 144 113l92 188l-221 936h112l183 -821l444 821h113l-647 -1175q-43 -80 -97.5 -127t-132.5 -47t-119 30zM475 1112l238 301h133l-277 -301h-94z" />
<glyph unicode="&#xfe;" horiz-adv-x="1142" d="M70 -324q0 46 8 93l237 1499q7 54 7 78q0 19 -2 36t-4 24l-1 7h107q6 -22 6 -65q0 -44 -8 -93l-76 -475h2q156 187 371 187q176 0 277.5 -108t101.5 -284q0 -92 -24 -179.5t-71 -162.5t-111 -131.5t-150.5 -89t-184.5 -32.5q-105 0 -184 47.5t-121 140.5h-2l-66 -414 q-4 -27 -4 -76q0 -19 1.5 -36t2.5 -24l2 -7h-108q-6 22 -6 65zM285 391q0 -140 74.5 -225.5t211.5 -85.5q93 0 172.5 42t131 110.5t80 154t28.5 174.5q0 139 -75 225t-212 86q-93 0 -172.5 -41.5t-130.5 -110t-79.5 -154t-28.5 -175.5z" />
<glyph unicode="&#xff;" horiz-adv-x="864" d="M-27 -369l37 103q41 -21 92 -21q90 0 144 113l92 188l-221 936h112l183 -821l444 821h113l-647 -1175q-43 -80 -97.5 -127t-132.5 -47t-119 30zM373 1255q0 43 29.5 77t72.5 34q32 0 52 -21.5t20 -54.5q0 -42 -29.5 -76t-71.5 -34q-33 0 -53 21t-20 54zM639 1255 q0 43 29.5 77t72.5 34q32 0 52 -21.5t20 -54.5q0 -43 -29.5 -76.5t-72.5 -33.5q-32 0 -52 21t-20 54z" />
<glyph unicode="&#x152;" horiz-adv-x="1976" d="M141 565q0 170 60 328t164.5 278t257 191.5t325.5 71.5q223 0 387 -121l17 100h682l-17 -104h-573l-80 -506h539l-17 -103h-538l-95 -596h588l-16 -104h-699l17 100q-192 -125 -426 -125q-256 0 -416 166t-160 424zM258 584q0 -219 129.5 -359.5t345.5 -140.5 q239 0 432 154l148 938q-140 155 -381 155q-145 0 -273 -64t-214.5 -168.5t-136.5 -239t-50 -275.5z" />
<glyph unicode="&#x153;" horiz-adv-x="1816" d="M102 383q0 155 71.5 288.5t200 214.5t283.5 81q131 0 228 -66t141 -178q75 114 190.5 179t243.5 65q139 0 218 -70t79 -166q0 -56 -30 -106.5t-89.5 -93t-162 -68t-234.5 -25.5q-77 0 -194 13q-7 -47 -7 -78q0 -138 71.5 -217.5t203.5 -79.5q41 0 82 7t73.5 17.5t62 24 t51 26.5t37 23.5t23.5 17.5l9 7l37 -76q-6 -6 -16.5 -15.5t-48.5 -34t-81 -43.5t-112.5 -34.5t-143.5 -15.5q-127 0 -213.5 63t-124.5 176q-76 -110 -192.5 -174.5t-255.5 -64.5q-178 0 -289 112.5t-111 290.5zM217 397q0 -140 81 -228.5t220 -88.5q122 0 221 69t152 177 t53 229q0 139 -81 227t-220 88q-123 0 -222 -68.5t-151.5 -176t-52.5 -228.5zM1065 543q93 -11 182 -11q109 0 197.5 20.5t146.5 68t58 114.5q0 57 -59 98t-152 41q-79 0 -147 -32.5t-113 -83.5t-73.5 -106.5t-39.5 -108.5z" />
<glyph unicode="&#x178;" horiz-adv-x="1081" d="M188 1413h129l291 -702l512 702h127l-602 -809l-96 -604h-109l95 604zM543 1675q0 43 29.5 77t72.5 34q32 0 52 -21.5t20 -54.5q0 -43 -30 -77t-73 -34q-32 0 -51.5 21.5t-19.5 54.5zM809 1675q0 43 29.5 77t72.5 34q32 0 52 -21.5t20 -54.5q0 -43 -29.5 -77t-72.5 -34 q-32 0 -52 21.5t-20 54.5z" />
<glyph unicode="&#x2c6;" horiz-adv-x="555" d="M190 1116l238 297h61l142 -297h-92l-95 211l-159 -211h-95z" />
<glyph unicode="&#x2dc;" horiz-adv-x="555" d="M147 1208q18 65 68 111.5t113 46.5q47 0 89.5 -23.5t78 -47t67.5 -23.5q33 0 59.5 25.5t36.5 60.5l64 -21q-16 -65 -65.5 -112t-114.5 -47q-46 0 -88 23.5t-78.5 47t-69.5 23.5t-58.5 -25t-35.5 -59z" />
<glyph unicode="&#x2000;" horiz-adv-x="939" />
<glyph unicode="&#x2001;" horiz-adv-x="1878" />
<glyph unicode="&#x2002;" horiz-adv-x="939" />
<glyph unicode="&#x2003;" horiz-adv-x="1878" />
<glyph unicode="&#x2004;" horiz-adv-x="626" />
<glyph unicode="&#x2005;" horiz-adv-x="469" />
<glyph unicode="&#x2006;" horiz-adv-x="313" />
<glyph unicode="&#x2007;" horiz-adv-x="313" />
<glyph unicode="&#x2008;" horiz-adv-x="234" />
<glyph unicode="&#x2009;" horiz-adv-x="375" />
<glyph unicode="&#x200a;" horiz-adv-x="104" />
<glyph unicode="&#x2010;" horiz-adv-x="520" d="M82 518l16 103h432l-14 -103h-434z" />
<glyph unicode="&#x2011;" horiz-adv-x="520" d="M82 518l16 103h432l-14 -103h-434z" />
<glyph unicode="&#x2012;" horiz-adv-x="520" d="M82 518l16 103h432l-14 -103h-434z" />
<glyph unicode="&#x2013;" horiz-adv-x="892" d="M39 522l16 92h887l-14 -92h-889z" />
<glyph unicode="&#x2014;" horiz-adv-x="1589" d="M39 522l16 92h1575l-14 -92h-1577z" />
<glyph unicode="&#x2018;" horiz-adv-x="565" d="M285 1024l221 389h82l-180 -389h-123z" />
<glyph unicode="&#x2019;" horiz-adv-x="565" d="M276 1024l181 389h123l-222 -389h-82z" />
<glyph unicode="&#x201a;" horiz-adv-x="565" d="M76 -236l182 390h121l-219 -390h-84z" />
<glyph unicode="&#x201c;" horiz-adv-x="864" d="M285 1024l221 389h82l-180 -389h-123zM580 1024l221 389h82l-181 -389h-122z" />
<glyph unicode="&#x201d;" horiz-adv-x="864" d="M276 1024l181 389h123l-222 -389h-82zM571 1024l181 389h122l-221 -389h-82z" />
<glyph unicode="&#x201e;" horiz-adv-x="864" d="M76 -236l182 390h121l-219 -390h-84zM371 -236l182 390h121l-219 -390h-84z" />
<glyph unicode="&#x2022;" horiz-adv-x="1024" d="M184 748q0 115 85.5 200.5t201.5 85.5t201.5 -85.5t85.5 -200.5q0 -116 -86 -201.5t-201 -85.5t-201 85.5t-86 201.5z" />
<glyph unicode="&#x2026;" horiz-adv-x="1837" d="M205 63q0 42 31 74.5t73 32.5q32 0 54 -22t22 -56q0 -41 -31.5 -73.5t-72.5 -32.5q-34 0 -55 21.5t-21 55.5zM791 63q0 42 31.5 74.5t72.5 32.5q34 0 55 -22t21 -56q0 -41 -32 -73.5t-73 -32.5q-32 0 -53.5 21.5t-21.5 55.5zM1376 63q0 41 32 74t73 33q33 0 54 -22 t21 -56q0 -42 -31 -74t-73 -32q-32 0 -54 22t-22 55z" />
<glyph unicode="&#x202f;" horiz-adv-x="375" />
<glyph unicode="&#x2039;" horiz-adv-x="565" d="M131 475l340 381l64 -59l-285 -322l184 -323l-84 -58z" />
<glyph unicode="&#x203a;" horiz-adv-x="565" d="M94 154l285 321l-184 324l84 57l221 -381l-342 -381z" />
<glyph unicode="&#x205f;" horiz-adv-x="469" />
<glyph unicode="&#x20ac;" d="M92 539l14 98h132q9 79 24 156h-131l16 100h138q23 78 56.5 151.5t84 145.5t110.5 125.5t139 86t165 32.5q122 0 199.5 -42t131.5 -145l-77 -69q-46 81 -110.5 118t-160.5 37q-65 0 -125 -28t-105 -72.5t-83.5 -104t-63.5 -117.5t-43 -118h564l-15 -100h-573 q-17 -89 -25 -156h574l-17 -98h-565v-39q-2 -74 11.5 -143t44.5 -132t90 -101t139 -38q94 0 177.5 44t143.5 120l62 -64q-62 -97 -172.5 -154t-227.5 -57q-90 0 -160 34.5t-113 89.5t-70 130.5t-36 151.5t-6 158h-137z" />
<glyph unicode="&#x2122;" horiz-adv-x="1689" d="M61 1321v92h574v-92h-236v-707h-102v707h-236zM680 614l68 799h143l215 -635h4l215 635h143l68 -799h-102l-52 666h-6l-229 -666h-78l-229 666h-6l-52 -666h-102z" />
<glyph unicode="&#xe000;" horiz-adv-x="952" d="M0 0v952h952v-952h-952z" />
</font>
</defs>
</svg>
