<?xml version="1.0" standalone="no"?>
<!DOCTYPE svg PUBLIC "-//W3C//DTD SVG 1.1//EN" "http://www.w3.org/Graphics/SVG/1.1/DTD/svg11.dtd" >
<svg xmlns="http://www.w3.org/2000/svg">
<metadata></metadata>
<defs>
<font id="mfg_labs_iconsetregular" horiz-adv-x="1920" >
<font-face units-per-em="2048" ascent="1755" descent="-293" />
<missing-glyph horiz-adv-x="500" />
<glyph unicode="+" horiz-adv-x="1800" d="M0 610v244q0 42 29.5 71.5t71.5 29.5h576v575q0 42 29.5 72t71.5 30h244q42 0 71 -30t29 -72v-575h576q42 0 72 -29.5t30 -71.5v-244q0 -42 -30 -71.5t-72 -29.5h-576v-578q0 -42 -29 -71t-71 -29h-244q-42 0 -71.5 29t-29.5 71v578h-576q-42 0 -71.5 29.5t-29.5 71.5z " />
<glyph unicode="@" horiz-adv-x="1820" d="M0 712q0 403 266 683q280 296 718 296q358 0 590 -202q247 -214 247 -568q0 -277 -157 -478q-155 -200 -357 -200q-102 0 -160 64q-56 64 -56 133q0 3 1 8.5t1 9.5q0 3 0.5 11t0.5 12q-45 -91 -96 -140q-95 -95 -230 -95q-136 0 -227 106q-92 107 -92 298q0 222 140 416 q141 195 340 195q117 0 185 -71q51 -57 67 -127l40 154h213l-145 -532q-6 -25 -14.5 -57.5t-9.5 -38.5q-7 -29 -7 -55q0 -37 23 -69q23 -33 72 -33q97 0 196 138q98 140 98 367q0 337 -268 485q-164 93 -376 93q-385 0 -617 -256q-210 -229 -210 -554q0 -361 247 -569 q219 -186 531 -186q216 0 401 87q102 45 211 129l27 20q8 7 20 11.5t27.5 6t31.5 -9t26 -33.5q12 -33 7 -58t-17 -39l-13 -15q-159 -135 -347 -207q-189 -71 -387 -71q-469 0 -727 318q-214 262 -214 623zM696 626q0 -89 38 -145q37 -55 106 -55q120 0 199 199 q76 200 76 314q0 66 -35 110q-36 44 -97 44q-118 0 -202 -159q-85 -158 -85 -308z" />
<glyph unicode="&#xa8;" horiz-adv-x="2048" />
<glyph unicode="&#xa9;" horiz-adv-x="2048" />
<glyph unicode="&#xae;" horiz-adv-x="2048" />
<glyph unicode="&#xb4;" horiz-adv-x="2048" />
<glyph unicode="&#x2000;" horiz-adv-x="993" />
<glyph unicode="&#x2001;" horiz-adv-x="1987" />
<glyph unicode="&#x2002;" horiz-adv-x="993" />
<glyph unicode="&#x2003;" horiz-adv-x="1987" />
<glyph unicode="&#x2004;" horiz-adv-x="662" />
<glyph unicode="&#x2005;" horiz-adv-x="496" />
<glyph unicode="&#x2006;" horiz-adv-x="331" />
<glyph unicode="&#x2007;" horiz-adv-x="331" />
<glyph unicode="&#x2008;" horiz-adv-x="248" />
<glyph unicode="&#x2009;" horiz-adv-x="397" />
<glyph unicode="&#x200a;" horiz-adv-x="110" />
<glyph unicode="&#x202f;" horiz-adv-x="397" />
<glyph unicode="&#x205f;" horiz-adv-x="496" />
<glyph unicode="&#x2122;" horiz-adv-x="2048" />
<glyph unicode="&#x2190;" horiz-adv-x="1921" d="M0 737l800 801q39 37 89 37q51 0 88 -37t37 -88.5t-37 -89.5l-498 -497h1315q53 0 90 -37t37 -89t-37 -88t-90 -36h-1315l498 -499q37 -37 37 -88.5t-37 -88.5t-88.5 -37t-88.5 37z" />
<glyph unicode="&#x2191;" horiz-adv-x="1674" d="M0 739.5q0 52.5 37 89.5l800 800l801 -800q36 -37 36 -90q0 -52 -36 -88q-37 -37 -89 -37t-88 37l-499 498v-1315q0 -52 -36 -88.5t-89 -36.5q-52 0 -88.5 36.5t-36.5 88.5v1315l-498 -498q-37 -37 -88.5 -37t-88.5 37q-37 36 -37 88.5z" />
<glyph unicode="&#x2192;" horiz-adv-x="1921" d="M0 725q0 53 36.5 88.5t88.5 35.5h1316l-497 500q-38 37 -38 89t38 87q36 38 86.5 38t90.5 -38l800 -800l-800 -800q-41 -38 -90 -38t-87 38t-38 89.5t38 87.5l497 497h-1316q-52 0 -88.5 37t-36.5 89z" />
<glyph unicode="&#x2193;" horiz-adv-x="1674" d="M0 594q0 51 37 88t89 37t88 -37l498 -497v1314q0 53 37 89.5t89 36.5t88 -36.5t36 -89.5v-1314l499 497q37 37 88.5 37t88.5 -37q37 -36 37 -88t-37 -89l-800 -800l-801 800q-37 39 -37 89z" />
<glyph unicode="&#x21c7;" d="M0 731q0 18 10.5 36t21.5 27l10 9l1192 742q65 44 111.5 16t46.5 -110v-300h419q44 0 76.5 -32t32.5 -76v-624q0 -44 -32.5 -76t-76.5 -32h-419v-301q0 -82 -46.5 -109t-111.5 16l-1192 742q-42 30 -42 72z" />
<glyph unicode="&#x21c8;" horiz-adv-x="1678" d="M9.5 345.5q-27.5 46.5 15.5 111.5l743 1192q30 42 71 42q19 0 37 -10.5t26 -20.5l9 -11l743 -1192q43 -65 15.5 -111.5t-109.5 -46.5h-301v-419q0 -44 -31.5 -76.5t-75.5 -32.5h-625q-44 0 -76 32.5t-32 76.5v419h-300q-82 0 -109.5 46.5z" />
<glyph unicode="&#x21c9;" d="M0 421v624q0 44 32.5 75.5t76.5 31.5h419v301q0 82 46.5 109t111.5 -16l1192 -741q42 -31 42 -72q0 -19 -10.5 -37t-21.5 -26l-10 -9l-1192 -744q-65 -43 -111.5 -15.5t-46.5 109.5v301h-419q-44 0 -76.5 32.5t-32.5 76.5z" />
<glyph unicode="&#x21ca;" horiz-adv-x="1680" d="M9.5 1117q27.5 46 109.5 46h302v420q0 44 31.5 76t75.5 32h624q44 0 76.5 -32t32.5 -76v-420h300q82 0 109.5 -46t-15.5 -111l-743 -1192q-3 -5 -9.5 -12t-25 -19t-37.5 -12t-37 10.5t-27 21.5l-8 11l-743 1192q-43 65 -15.5 111z" />
<glyph unicode="&#x21d0;" d="M0 762l1080 780v-420h840v-720h-840v-481z" />
<glyph unicode="&#x21d1;" horiz-adv-x="1620" d="M0 592l813 1099l808 -1099h-443v-821h-736v821h-442z" />
<glyph unicode="&#x21d2;" d="M0 363v736h821v443l1099 -813l-1099 -808v442h-821z" />
<glyph unicode="&#x21d3;" horiz-adv-x="1619" d="M0 870h441v821h737v-821h441l-811 -1099z" />
<glyph unicode="&#x2212;" horiz-adv-x="1798" d="M0 609v245q0 42 29.5 71t71.5 29h1596q42 0 72.5 -29t29.5 -71v-245q0 -42 -30 -71t-72 -29h-1596q-42 0 -71.5 29t-29.5 71z" />
<glyph unicode="&#x221e;" horiz-adv-x="2048" />
<glyph unicode="&#x2260;" horiz-adv-x="2048" />
<glyph unicode="&#x2302;" horiz-adv-x="1877" d="M0.5 711.5q-5.5 31.5 42.5 75.5l780 720q48 44 116.5 44t116.5 -44l779 -720q48 -44 42.5 -75.5t-61.5 -31.5h-187v-625q0 -65 -47 -112t-112 -47h-1061q-65 0 -112 47t-47 112v625h-188q-56 0 -61.5 31.5z" />
<glyph unicode="&#x231b;" horiz-adv-x="1200" d="M0 -61v143q0 45 24 100.5t49.5 94.5t77.5 113l49.5 66t54.5 74.5t44.5 67.5t36 72t11.5 61t-11.5 61t-36 72t-44.5 67.5t-54.5 74.5l-49.5 66q-53 75 -78 113t-49 93.5t-24 100.5v143q0 70 50 119.5t121 49.5h858q71 0 121 -49.5t50 -119.5v-143q0 -45 -24 -100.5 t-49 -93.5t-78 -113l-49.5 -66t-54.5 -74.5t-44.5 -67.5t-36 -72t-11.5 -61t11.5 -61t36 -72t44.5 -67.5t54.5 -74.5l49.5 -66q52 -74 77.5 -113t49.5 -94.5t24 -100.5v-143q0 -70 -50 -119t-121 -49h-858q-71 0 -121 49t-50 119zM205 11h81q0 17 5 34.5t17.5 36t24.5 34 t35 35.5t39 33.5t46 35t46.5 33.5t51 35.5t49.5 34.5q16 -11 54.5 -38t57 -40t51.5 -37.5t50 -40t39.5 -38t33.5 -40t19.5 -38.5t8.5 -40h81v71q0 15 -27 64q-17 29 -87 129q-109 154 -146 221q-70 130 -70 235q0 54 16 110.5t51 118t61 101t73 105.5l15 21q67 95 87 130 q12 20 18.5 35.5t7.5 21.5l1 5v71h-790v-71q1 -16 27 -62q20 -35 87 -130q109 -154 146 -221q70 -130 70 -235q0 -54 -16 -110.5t-51 -118t-61 -101t-73 -105.5q-2 -3 -3.5 -5t-4 -5t-4 -5.5t-3.5 -5.5q-70 -100 -87 -129q-27 -49 -27 -64v-71z" />
<glyph unicode="&#x23f1;" horiz-adv-x="2113" d="M0 1279l503 503l168 -168l-84 -84l88 -88q118 71 253 107v208h474v-208q203 -53 364.5 -185t254 -324t92.5 -409q0 -193 -75 -368.5t-202 -303t-302.5 -203t-368.5 -75.5t-369 75.5t-303 203t-202 303t-75 368.5q0 252 127 473l-92 90l-83 -83zM454 631q0 -193 95.5 -357 t259 -260t356.5 -96t357 96t259.5 260t95.5 357t-95.5 356.5t-259.5 259t-357 95.5t-356.5 -95.5t-259 -259t-95.5 -356.5zM696 897q0 49 34 84q35 35 84 35t84 -35l286 -286h406q49 0 83.5 -35t33.5 -84q0 -51 -34 -83q-36 -36 -83 -36h-454q-8 0 -24 2l-10 4l-12 3 q-3 1 -6.5 3.5t-4.5 2.5l-9 6q-7 3 -19 15l-321 321q-34 34 -34 83z" />
<glyph unicode="&#x23f2;" d="M0 731q0 195 76 373t204.5 306.5t306.5 204.5t373 76t373 -76t306.5 -204.5t204.5 -306.5t76 -373t-76 -373t-204.5 -306.5t-306.5 -204.5t-373 -76t-373 76t-306.5 204.5t-204.5 306.5t-76 373zM240 731q0 -196 96.5 -361.5t262.5 -262t361 -96.5q196 0 361.5 96.5 t262 262t96.5 361.5q0 195 -96.5 361t-262 262.5t-361.5 96.5q-146 0 -279.5 -57t-230 -153.5t-153.5 -230t-57 -279.5zM840 731v460q0 49 35 84.5t85 35.5t85 -35.5t35 -84.5v-410l290 -290q35 -35 35 -85t-35 -85t-84 -35q-50 0 -85 35l-326 325q-3 3 -7.5 9.5t-6.5 8.5 q-2 3 -5 9l-3 6t-3 7q-1 1 -4 11q-3 9 -3 10q-3 12 -3 24z" />
<glyph unicode="&#x25fc;" horiz-adv-x="571" d="M0 0z" />
<glyph unicode="&#x2601;" horiz-adv-x="2468" d="M0.5 540q-4.5 92 20 176.5t71 159.5t117.5 133t158 92q158 60 319 26q75 165 228 265.5t340 100.5q127 0 242.5 -49.5t199 -133t133 -199t49.5 -242.5q0 -19 -4 -55q3 0 7.5 2t6.5 2q165 64 326 -7.5t225 -236.5q40 -114 24 -221.5t-88 -198t-181 -132.5 q-75 -28 -148 -29h-1473v1q-175 0 -322.5 99.5t-211.5 267.5q-34 87 -38.5 179z" />
<glyph unicode="&#x2605;" horiz-adv-x="1907" d="M3 956q24 76 208 76h462l141 425v2q38 114 89 154.5t101.5 0t88.5 -154.5l1 -2l140 -425h462q120 0 174 -35t30.5 -94.5t-121.5 -129.5l-10 -8l-362 -259l139 -424l3 -4q56 -174 -9 -222.5t-214 58.5l-6 4l-5 3l-362 260l-367 -263l-4 -4q-149 -107 -215 -58.5t-8 222.5 l1 2v3l139 423l-362 259l-4 4l-5 4q-149 107 -125 183z" />
<glyph unicode="&#x2606;" horiz-adv-x="2043" d="M6.5 908q-25.5 64 32.5 101.5t187 37.5h495l151 456v2q30 92 69 139t81 47q41 0 80 -47t69 -139l2 -2l149 -456h495q129 0 187 -37.5t32.5 -101.5t-130.5 -139l-10 -8l-389 -278l150 -452l2 -7q39 -122 22.5 -186.5t-81.5 -64.5q-75 0 -179 77l-12 7l-387 278l-393 -281 l-6 -4q-107 -79 -180 -79q-65 0 -81.5 65.5t22.5 187.5l2 7l150 452l-389 278l-4 5l-6 3q-105 75 -130.5 139zM345 855l416 -297l-43 -134l-117 -354l421 301l420 -301l-116 354l-44 134l416 297h-514l-43 132l-119 359l-163 -491h-514z" />
<glyph unicode="&#x2640;" horiz-adv-x="1165" d="M0 1109q0 118 46.5 226t124.5 186t186 124t226 46q157 0 291.5 -78t213 -212t78.5 -292q0 -203 -126 -360.5t-319 -204.5v-161h196q58 0 98.5 -40t40.5 -98t-40.5 -99t-98.5 -41h-196v-195q0 -58 -40 -98.5t-98 -40.5t-99 40.5t-41 98.5v195h-195q-58 0 -98 41t-40 99 t40 98t98 40h195v161q-193 47 -318 204.5t-125 360.5zM279 1109q0 -126 89 -215t215 -89t215 89t89 215t-89 215t-215 89t-215 -89t-89 -215z" />
<glyph unicode="&#x2642;" horiz-adv-x="1544" d="M0 557q0 121 47 231t127 190t190 127t231 47q166 0 309 -86l211 212h-97q-47 0 -80.5 33t-33.5 80t33.5 80t80.5 33h413q47 0 80 -33t33 -80v-412q0 -47 -33 -80.5t-80 -33.5t-80.5 33.5t-33.5 80.5v98l-212 -212q87 -142 87 -308q0 -162 -80 -299.5t-217.5 -218 t-299.5 -80.5q-161 0 -298.5 80.5t-217 218t-79.5 299.5zM285 557q0 -128 91 -220t219 -92q129 0 220.5 91.5t91.5 220.5t-91.5 220.5t-220.5 91.5q-128 0 -219 -92t-91 -220z" />
<glyph unicode="&#x265a;" horiz-adv-x="1860" d="M4 1237q18 86 92 134q74 49 160.5 31t134.5 -92q37 -59 34 -125t-42 -119q46 -66 92 -111.5t84.5 -66t66 -28t52.5 -7.5q4 1 40 6q43 0 73 32t45 87.5t21.5 109.5t7.5 117q-65 20 -106.5 76t-41.5 126q0 88 62 150t151 62t151 -62t62 -150q0 -70 -41.5 -126t-106.5 -76 q1 -63 7.5 -117t21.5 -109.5t45.5 -87.5t73.5 -32q4 -1 12 -2t14.5 -2t12.5 -2q25 0 53 7.5t66.5 28t84.5 66t92 111.5q-40 53 -43 119.5t34 124.5q48 74 134 92t160 -31q74 -48 92.5 -134t-29.5 -160q-38 -57 -100.5 -81.5t-127.5 -8.5q-60 -90 -110 -203t-70 -181l-20 -68 q-15 -66 -32 -166t-32.5 -201.5t-20.5 -130.5q-10 -57 -75 -103t-148 -68.5t-160 -22.5q-78 0 -161 22.5t-148 68.5t-75 103q-5 28 -19 130.5t-30.5 202.5t-34.5 165q-7 28 -21.5 75t-66.5 167t-112 210q-65 -16 -128 8.5t-100 81.5q-48 74 -30 160z" />
<glyph unicode="&#x2665;" d="M0 1101q0 211 150.5 360.5t362.5 149.5q142 0 261 -71t186 -189q67 118 186 189t261 71q212 0 362.5 -149.5t150.5 -360.5q0 -196 -130 -340l-702 -827q-52 -62 -128 -62t-128 62l-702 827q-130 144 -130 340z" />
<glyph unicode="&#x2693;" horiz-adv-x="1669" d="M-1 428.5q0 15.5 10 26.5l209 251l45 -56l159 -197q10 -13 8 -28t-15 -25q-22 -17 -46 0l-48 39q33 -124 129 -206.5t233 -112.5q12 -1 21 0t21.5 15t12.5 42v797q0 20 -12 32t-24 14l-11 2h-82q-40 0 -68.5 28t-28.5 68t28 68t69 28h82h3q4 1 7.5 2t9 3.5t10 6t8.5 8.5 t6.5 12.5t2.5 16.5v20q-63 28 -101.5 87t-38.5 131q0 97 69 166.5t167 69.5t168 -69.5t70 -166.5q0 -72 -39.5 -131t-102.5 -87v-21q0 -9 2.5 -16t7 -12t9 -8.5t9.5 -5.5t9 -3.5t7 -2.5h4h84q39 0 67.5 -28t28.5 -68q0 -39 -28.5 -67.5t-67.5 -28.5h-84q-5 0 -13 -1.5 t-21.5 -13.5t-13.5 -32v-798q0 -28 12.5 -42t22 -15t21.5 0q137 30 233.5 112.5t129.5 206.5l-48 -39q-13 -10 -27.5 -8t-25.5 13q-17 25 0 48l159 197l44 56l210 -251q10 -13 8.5 -31t-14.5 -29q-12 -10 -28 -10t-27 10l-61 52q-34 -210 -178.5 -366.5t-349.5 -209.5 q-2 -2 -4 -2q-29 -7 -50.5 -26t-28.5 -44q-8 -32 -34 -52.5t-60 -20.5q-33 0 -58.5 20.5t-33.5 52.5q-7 25 -28.5 44t-50.5 26q-3 0 -5 2q-205 53 -349.5 209.5t-178.5 366.5l-60 -52q-13 -11 -31 -9.5t-30 15.5q-10 12 -10 27.5zM717 1501q0 -39 21 -70v10q0 40 28 68 t68 28t68 -27.5t28 -68.5v-10q23 32 23 70q0 48 -35 82t-84 34t-83 -34t-34 -82z" />
<glyph unicode="&#x26a1;" horiz-adv-x="1155" d="M0 722l792 956q8 8 19 9t19 -6q13 -11 8 -27l-213 -704l530 -212l-788 -954q-7 -8 -18.5 -9t-19.5 6q-13 12 -8 27l213 705z" />
<glyph unicode="&#x2709;" horiz-adv-x="2280" d="M0 71v1320q0 16 5 38l942 -944q79 -79 194 -79q113 0 192 79l944 944q3 -20 3 -38v-1320q0 -74 -52.5 -127t-126.5 -53h-1920q-74 0 -127.5 53t-53.5 127zM129 1563q26 8 52 8h1920q24 0 50 -8l-949 -948q-25 -25 -62 -25t-62 25z" />
<glyph unicode="&#x270f;" horiz-adv-x="1905" d="M0 -229l122 576l1286 1287q43 43 103.5 43t102.5 -42l249 -249q43 -43 42.5 -102.5t-42.5 -102.5l-1287 -1287zM139 -89l398 92l48 50l-305 305l-49 -49z" />
<glyph unicode="&#x2712;" horiz-adv-x="1821" d="M15 277q-34 -34 9.5 -118t119 -160.5t158.5 -120.5t119 -8l456 457q-113 78 -220 185q-48 48 -94.5 102.5t-68.5 85.5l-23 31zM570 761.5q-16 48.5 7 70.5q23 23 47 84t35 124l8 42q11 63 61.5 127t108.5 89l813 363q59 25 69 10.5t-36 -60.5l-416 -414 q-87 -89 -108 -109q-43 21 -93.5 13t-86.5 -43q-46 -46 -46 -111t46 -112q47 -47 112 -47t111 47q35 35 43.5 85t-12.5 93q29 30 108 109l416 416q46 46 60 36t-11 -69l-363 -814q-26 -58 -89.5 -107.5t-127.5 -60.5l-41 -8q-63 -11 -124 -35t-84 -47t-70.5 -7t-93.5 62 l-181 179q-46 46 -62 94.5z" />
<glyph unicode="&#x2713;" horiz-adv-x="1885" d="M0 708.5q0 -71.5 50 -121.5l503 -491q50 -50 124 -50q72 0 122 50l1035 1014q52 50 52 121t-52 120q-52 50 -123.5 50t-123.5 -50l-910 -893l-380 372q-52 50 -123.5 50t-123.5 -50q-50 -50 -50 -121.5z" />
<glyph unicode="&#x274c;" horiz-adv-x="1406" d="M0 199q0 73 53 126l400 400l-400 401q-53 52 -53 125t53 125t125.5 52t124.5 -52l401 -401l400 401q52 52 125 52t125 -52t52 -125t-52 -125l-400 -401l400 -400q52 -53 52 -126t-52 -125q-51 -52 -125 -52t-125 52l-400 400l-401 -400q-51 -52 -125 -52t-125 52 q-53 52 -53 125z" />
<glyph unicode="&#x2753;" d="M0 731q0 195 76 373t204.5 306.5t306 204.5t373.5 76q195 0 373 -76t306.5 -204.5t204.5 -306.5t76 -373t-76 -373t-204.5 -306.5t-306.5 -204.5t-373 -76q-196 0 -373.5 76t-306 204.5t-204.5 306.5t-76 373zM683 1091l63 -208q94 60 189 60q102 0 102 -46 q0 -9 -3.5 -16.5t-12.5 -15t-14.5 -11t-20.5 -11.5t-19 -10l-82 -43q-44 -24 -56.5 -51t-12.5 -75v-77h239v32q0 15 0.5 21t5 12.5t13.5 10.5q1 0 21.5 10t36 17.5t37.5 21.5t37 27q40 34 61 75t21 114q0 101 -85.5 170t-216.5 69q-175 0 -303 -76zM781 408q0 -65 42 -100.5 t113 -35.5q69 0 111 35.5t42 100.5t-42 101t-111 36q-71 0 -113 -36t-42 -101z" />
<glyph unicode="&#x2754;" d="M0 731q0 196 76 373.5t204.5 306t306 204.5t373.5 76q195 0 373 -76t306.5 -204.5t204.5 -306t76 -373.5q0 -195 -76 -372.5t-204.5 -306.5t-306.5 -205t-373 -76q-196 0 -373.5 76t-306 205t-204.5 306.5t-76 372.5zM240 731q0 -146 57 -279.5t153.5 -230t230 -153.5 t279.5 -57t279.5 57t230 153.5t153.5 230t57 279.5q0 196 -96.5 361.5t-262.5 262t-361 96.5t-361 -96.5t-262.5 -262t-96.5 -361.5zM683 1093l63 -208q92 59 190 59q101 0 101 -47q0 -8 -3.5 -15t-7.5 -11.5t-12.5 -10.5t-13.5 -9t-17 -9l-16 -8l-82 -44q-44 -24 -56.5 -51 t-12.5 -75v-75h239v32q0 15 1 21t5 11.5t13 10.5q2 1 21.5 10t35.5 17t38 21.5t38 26.5q39 35 60 76t21 113q0 101 -85.5 170.5t-216.5 69.5q-170 0 -303 -75zM781 408q0 -65 42 -100.5t113 -35.5q69 0 111 35.5t42 100.5t-42 101t-111 36q-71 0 -113 -36t-42 -101z" />
<glyph unicode="&#x2755;" d="M0 731q0 196 76 373.5t204.5 306t306 204.5t373.5 76q195 0 373 -76t306.5 -204.5t204.5 -306t76 -373.5q0 -195 -76 -373t-204.5 -306.5t-306.5 -204.5t-373 -76q-196 0 -373.5 76t-306 204.5t-204.5 306.5t-76 373zM240 731q0 -196 96.5 -361.5t262.5 -262t361 -96.5 q196 0 361.5 96.5t262 262t96.5 361.5q0 195 -96.5 361t-262 262.5t-361.5 96.5q-146 0 -279.5 -57t-230 -153.5t-153.5 -230t-57 -279.5zM794 1134q-7 72 39 128t119 63q72 7 128 -39t63 -118q2 -18 0 -34l-55 -501q-4 -49 -42.5 -80.5t-88.5 -26.5q-43 4 -73.5 34.5 t-35.5 72.5zM818 291q0 64 45 106q41 42 105.5 42t105.5 -42q45 -42 45 -106t-45 -106q-42 -45 -106 -45q-63 0 -105 45q-45 42 -45 106z" />
<glyph unicode="&#x2757;" d="M0 731q0 196 76 373.5t204.5 306t306 204.5t373.5 76q195 0 372.5 -76t306.5 -204.5t205 -306t76 -373.5q0 -195 -76 -373t-205 -306.5t-306.5 -204.5t-372.5 -76q-196 0 -373.5 76t-306 204.5t-204.5 306.5t-76 373zM793 1134l55 -501q5 -42 35.5 -72.5t73.5 -34.5 q49 -5 87.5 26t43.5 81l55 501v34q-8 72 -64 118t-128 39t-118.5 -63t-39.5 -128zM818 291q0 -62 44 -106t106 -44t106 44t44 106t-44 106q-42 42 -106 42t-106 -42q-44 -44 -44 -106z" />
<glyph unicode="&#x9881;" d="M0 736q0 77 15 169q102 -7 193.5 40t143.5 138q52 94 47 196t-62 187q132 114 308 176q47 -85 131 -135.5t184 -50.5t183.5 50.5t130.5 135.5q174 -62 308 -176q-44 -81 -44 -174.5t48 -176.5q49 -85 133 -132t179 -47q22 -101 22 -200q0 -66 -14 -153 q-92 -2 -172.5 -49.5t-128.5 -130.5q-51 -90 -48.5 -188.5t54.5 -181.5q-135 -124 -298 -190q-47 86 -131.5 137t-184.5 51q-107 0 -195.5 -57.5t-131.5 -152.5q-169 54 -313 169q57 84 61.5 185.5t-48.5 195.5q-54 95 -150.5 142.5t-201.5 35.5q-18 84 -18 187zM600 736 q0 -149 105.5 -254.5t254.5 -105.5t254.5 105.5t105.5 254.5t-105.5 254.5t-254.5 105.5t-254.5 -105.5t-105.5 -254.5z" />
<glyph unicode="&#xe000;" horiz-adv-x="1904" d="M0 -73q69 41 120 95.5t81.5 110.5t55 116.5t49 120.5t55 116.5t82 110.5t120.5 96q110 65 234 65q119 0 227.5 -59.5t180.5 -165.5q77 -115 78.5 -249.5t-62 -250.5t-173.5 -196q-78 -56 -219.5 -91.5t-294.5 -35.5q-179 0 -323.5 53t-210.5 164zM277 -71 q103 -40 257 -40q130 0 245 28t165 65q71 51 114 126.5t47 160t-48 163.5q-47 70 -115.5 108.5t-144.5 38.5q-73 0 -142 -40q-43 -26 -74.5 -56t-56 -72.5t-39 -74.5t-38.5 -93q-26 -67 -42.5 -105t-51.5 -99.5t-76 -109.5zM862 857l151 228q144 -35 265 -115 q120 -81 205 -196l-153 -229q-77 131 -197 212q-120 79 -271 100zM1073 1175l341 508q28 41 75.5 51t88.5 -16l272 -181q41 -28 51 -75.5t-18 -88.5l-339 -509q-87 117 -207 197q-120 81 -264 114z" />
<glyph unicode="&#xe001;" horiz-adv-x="2245" d="M4 913.5q10 17.5 41 17.5h139q51 242 214.5 429.5t394.5 271.5l8 3q57 18 68 21q12 4 19 6l61 13q6 1 17 3t16 2l24.5 3.5t27.5 3.5q34 3 70 3q4 0 9.5 0.5t8.5 0.5h1h2q332 -2 588 -203q49 -37 56 -98.5t-31 -110.5q-37 -49 -98.5 -56t-110.5 31q-179 139 -407 139 q-30 0 -61 -3q-2 0 -20 -3q-12 -1 -39 -5q-4 0 -8.5 -1t-10 -2.5t-8.5 -2.5l-26 -7q-6 -1 -35 -9l-7 -3q-148 -52 -257 -164.5t-156 -261.5h88q31 0 41 -17.5t-6 -42.5l-276 -453q-12 -16 -28 -16q-7 0 -13.5 4t-9.5 8l-3 4l-277 453q-16 25 -6 42.5zM478 74.5 q-7 61.5 31 109.5q37 49 98.5 56.5t110.5 -30.5q180 -140 407 -140q29 0 61 3q3 0 10 0.5t10 1.5q6 1 12.5 2t14.5 2t12 2q3 1 8.5 2.5t10 2.5t8.5 1l26 7q5 2 17 5t18 5q4 2 6 2q148 52 257.5 165t156.5 262h-89q-30 0 -40 17t6 42l276 454q12 16 28 16q7 0 13.5 -4t9.5 -8 l3 -4l277 -454q16 -25 6 -42t-41 -17h-139q-52 -243 -215.5 -430t-393.5 -271l-8 -3q-22 -8 -68 -22q-3 0 -9 -2t-10 -3q-30 -9 -62 -13q-5 -1 -16 -3t-16 -3l-52 -7q-10 -1 -22 -1.5t-26 -1t-22 -0.5q-4 0 -9.5 -1t-8.5 -1l-2 2l-2 -2v2q-329 0 -587 203q-49 37 -56 98.5z " />
<glyph unicode="&#xe002;" d="M616 731q0 143 101 244t243 101t243 -101t101 -244t-101 -243q-101 -101 -243 -101t-243 101q-101 100 -101 243z" />
<glyph unicode="&#xe003;" d="M311 168.5q0 152.5 107 260.5q108 107 260 107t260 -107q108 -108 108 -260.5t-108 -259.5q-108 -108 -260 -108t-260 108q-107 107 -107 259.5zM873 1294.5q0 152.5 108 259.5q107 108 259 108t259 -108q108 -107 108 -259.5t-108 -259.5q-107 -108 -259 -108t-259 108 q-108 107 -108 259.5z" />
<glyph unicode="&#xe004;" horiz-adv-x="1848" d="M0 1291q0 151 106 258q107 107 258.5 107t258.5 -107q70 -70 94.5 -164t0 -188t-94.5 -164q-107 -107 -258.5 -107t-258.5 107q-106 107 -106 258zM544 171.5q0 151.5 106 258.5q107 106 258.5 106t258.5 -106q70 -70 94.5 -164.5t0 -188.5t-94.5 -164t-164.5 -94.5 t-188.5 0t-164 94.5q-106 107 -106 258.5zM1119 1291q0 151 107 258q106 107 257.5 107t258.5 -107t107 -258t-107 -258t-258.5 -107t-257.5 107q-107 107 -107 258z" />
<glyph unicode="&#xe005;" horiz-adv-x="1848" d="M0 177q0 153 110 262q107 107 260 107q89 0 164 -37l525 524q63 -103 167 -163l-525 -527q53 -103 34.5 -222t-103.5 -207q-107 -107 -262 -107q-153 0 -260 107q-110 110 -110 263zM177 177q0 -81 56 -137q58 -58 137 -58t137 58t58 137t-58 137q-57 57 -137 57 t-137 -57q-56 -56 -56 -137zM1110 1286q0 153 108 261q109 109 262 109q152 0 261 -109q108 -108 108 -261t-108 -261t-261 -108q-154 0 -262 108t-108 261zM1286 1286q0 -80 57 -137q56 -56 137 -56t137 56t56 137t-56 137q-57 57 -137 57t-137 -57t-57 -137z" />
<glyph unicode="&#xe006;" horiz-adv-x="1849" d="M0 1240q0 150 106 256t257 106q150 0 256 -106q61 -61 88 -142h306q-14 -58 -14 -115q0 -56 14 -114h-306q-26 -79 -88 -142q-106 -106 -256 -106q-151 0 -257 106q-106 107 -106 257zM174 1239q0 -79 55 -135q55 -55 134 -55q77 0 135 55q56 56 56 135t-56 135t-135 56 q-81 0 -134 -56q-55 -56 -55 -135zM572.5 130.5q-24.5 93.5 0 187.5t94.5 164q107 107 258 107q149 0 256 -107t107 -257.5t-107 -257.5q-106 -106 -256 -106q-152 0 -258 106q-70 70 -94.5 163.5zM734 225q0 -79 56 -135q53 -56 135 -56q78 0 134 56q55 56 55 135t-55 135 q-59 56 -134 56q-79 0 -135 -56t-56 -135zM1053 695l163 302q-96 107 -92.5 252t105.5 247q106 106 257 106t257 -106q70 -70 94.5 -163t0 -186.5t-94.5 -163.5q-106 -106 -257 -106q-32 0 -70 5l-162 -299q-83 78 -201 112zM1296 1239q0 -79 55 -135q55 -55 135 -55 q77 0 135 55q55 56 55 135t-55 135q-56 56 -135 56q-82 0 -135 -56q-55 -56 -55 -135z" />
<glyph unicode="&#xe007;" horiz-adv-x="1849" d="M0 1240q0 150 106 256t256 106q151 0 257 -106q62 -63 88 -142h306q-14 -58 -14 -114q0 -57 14 -115h-306q-24 -71 -75 -128l226 -414q44 6 65 6q151 0 258 -107q70 -70 94.5 -163.5t0 -187.5t-94.5 -164q-106 -106 -258 -106q-151 0 -257 106q-103 104 -105.5 251 t96.5 253l-225 412q-28 -6 -70 -6q-150 0 -256 106q-106 107 -106 257zM174 1239q0 -79 55 -134q53 -56 133 -56q82 0 135 56q55 55 55 134t-55 135q-53 56 -135 56q-80 0 -133 -56q-55 -56 -55 -135zM734 225q0 -79 55 -135q59 -56 134 -56q79 0 135 56t56 135t-56 135 q-53 56 -135 56q-78 0 -134 -56q-55 -56 -55 -135zM1053 696l163 301q-97 107 -93.5 251.5t106.5 247.5q106 106 257 106q150 0 257 -106q70 -70 94.5 -163t0 -186.5t-94.5 -163.5q-107 -106 -257 -106q-42 0 -70 6l-162 -299q-87 80 -201 112zM1296 1239q0 -79 55 -134 q53 -56 135 -56q79 0 135 56q55 55 55 134t-55 135q-56 56 -135 56q-82 0 -135 -56q-55 -56 -55 -135z" />
<glyph unicode="&#xe008;" horiz-adv-x="1821" d="M17 613q-20 204 48 395.5t213 335.5q130 130 299 198t340 68t340.5 -68t299.5 -198t198 -299t68 -340t-68 -340.5t-198 -299.5q-127 -127 -293.5 -195.5t-346.5 -68.5q-26 0 -78 4l-47 4q-80 -22 -159 -22q-65 0 -148 19q-93 -31 -194 -8t-174 96q-70 70 -94.5 165.5 t2.5 185.5q-48 166 -4 336zM173 448q104 71 232.5 59t220.5 -104q89 -89 103.5 -213.5t-49.5 -228.5q165 17 279 134q136 134 136 326t-136 326q-136 136 -326 136q-191 0 -327 -136q-124 -122 -133 -299zM208 889q180 165 425 165q123 0 239.5 -47t207.5 -138 q118 -118 162.5 -275.5t7 -316.5t-148.5 -282q192 49 334 191q103 103 159 238t56 281t-55.5 280.5t-159.5 238.5t-237 159t-281 55q-146 0 -280.5 -55.5t-237.5 -158.5q-141 -141 -191 -335z" />
<glyph unicode="&#xe009;" horiz-adv-x="1882" d="M7 1241q-25 101 35 160l372 372v-2q42 39 136 2.5t185 -127.5q73 -73 112 -151t31 -130v-435q0 -36 -26 -62t-63 -26q-36 0 -62 26t-26 62v233l-211 -210q-41 -41 -106 -41q-40 0 -86 17q-88 33 -168 113q-98 98 -123 199zM178 1288q7 -50 78 -121q69 -70 120 -78 l271 270q-50 30 -111 88q-55 59 -88 111zM669 247q0 123 48 235.5t129 193.5t193.5 129t235.5 48q165 0 304.5 -81t221 -220.5t81.5 -304.5t-81.5 -305t-221 -221t-304.5 -81q-123 0 -235.5 48t-193.5 129t-129 193.5t-48 236.5z" />
<glyph unicode="&#xe00a;" d="M0 931v283q0 67 34.5 124t91.5 89q27 -74 114 -137l88 -63l-2 -5l-39 -120q-36 -127 23 -207q52 -72 144 -72q76 0 165 63l93 66l64 -47q-10 -94 -80 -158t-166 -64h-282q-103 0 -175.5 72.5t-72.5 175.5zM258 1493q11 36 97 35h221l67 205q29 84 67.5 84t66.5 -84h1 l67 -205h220q89 0 100.5 -35.5t-60.5 -87.5l-4 -4l-173 -124l66 -203l1 -1v-1q28 -83 -3.5 -106.5t-102.5 28.5l-2 1l-2 3l-173 124l-176 -125l-2 -3q-71 -52 -103 -28.5t-4 106.5l2 2v1l66 203l-173 123l-2 2l-2 2q-71 52 -60 88zM682 238q0 126 49 240.5t132 197 t198 131.5t241 49t240.5 -49t197 -131.5t131.5 -197t49 -240.5t-49 -241t-131.5 -198t-197 -132t-240.5 -49t-241 49t-198 132t-132 198t-49 241z" />
<glyph unicode="&#xe00b;" d="M0 731q0 195 76 373t204.5 306.5t306.5 204.5t373 76t373 -76t306.5 -204.5t204.5 -306.5t76 -373t-76 -373t-204.5 -306.5t-306.5 -204.5t-373 -76t-373 76t-306.5 204.5t-204.5 306.5t-76 373zM469 423q0 -83 58 -141t140 -58h410q82 0 140 58t58 141v97q-30 14 -53 32 l-89 64l-87 -63q-81 -58 -155 -58q-86 0 -134 67q-55 73 -22 193l36 112l3 6l-89 64q-49 35 -80 82q-60 -20 -98 -71.5t-38 -116.5v-408zM707.5 1125.5q-10.5 -34.5 55.5 -82.5l3 -1l2 -2l162 -115l-63 -190v-1l-1 -1q-26 -78 3.5 -100t96.5 26l2 3l165 117l161 -116l2 -2 l2 -2q67 -48 96.5 -26t3.5 100v2l-63 190l162 115l4 3q67 48 56.5 82.5t-93.5 34.5h-207l-63 190v1q-26 78 -63 78t-62 -78v-1l-63 -190h-207q-81 0 -91.5 -34.5z" />
<glyph unicode="&#xe00c;" d="M0 925l288 766h186l265 -702l26 -66l-197 2l-55 154h-272l-55 -154h-186zM281 1219h191l-95 276zM682 391q0 168 83 310.5t225.5 225t311.5 82.5q126 0 240.5 -49t197 -131.5t131.5 -197t49 -240.5t-49 -241t-131.5 -198t-197 -132t-240.5 -49q-169 0 -311.5 83 t-225.5 226t-83 311z" />
<glyph unicode="&#xe00d;" horiz-adv-x="1883" d="M0 158.5q0 153.5 109 262.5q108 107 262 107q89 0 166 -39l657 654q-41 79 -41 167q0 151 107 257t259 106q151 0 257.5 -106t106.5 -257t-106.5 -257.5t-257.5 -106.5q-79 0 -154 35l-661 -658q54 -102 35.5 -221.5t-105.5 -204.5q-108 -108 -263 -108q-152 0 -262 108 q-109 108 -109 261.5zM48 1482l141 141l733 -333l69 -29l-39 -37l-112 -111l-158 76l-207 -207l76 -159l-141 -141zM177 159q0 -81 56 -137q59 -57 138 -57q82 0 139 57q56 56 56 137t-56 137q-57 57 -139 57q-79 0 -138 -57q-56 -56 -56 -137zM264 1399l136 -280l145 144z M1330 1310q0 -77 55.5 -132.5t133.5 -55.5t133 55.5t55 132.5q0 78 -55 132.5t-133 54.5t-133.5 -54.5t-55.5 -132.5z" />
<glyph unicode="&#xe00e;" horiz-adv-x="1882" d="M1 11.5q0 153.5 109 262.5t261 109q88 0 166 -40l656 656q-41 82 -41 168q0 151 107 258.5t259 107.5q151 0 257.5 -107t106.5 -259q0 -151 -106.5 -258t-257.5 -107q-80 0 -155 35l-659 -660q53 -104 34.5 -223t-104.5 -205q-109 -109 -263 -109q-152 0 -261 109 t-109 262.5zM6.5 1241q-24.5 101 35.5 160l372 372l1 -2q42 39 135.5 2.5t184.5 -127.5q73 -73 112 -151t31 -130v-435q0 -36 -26 -62t-62 -26q-37 0 -63 26t-26 62v233l-211 -210q-39 -42 -106 -42q-124 0 -253 131q-100 98 -124.5 199zM176 12q0 -81 58 -139 q57 -57 137 -57q82 0 139 57q56 58 56 139t-56 137q-56 57 -139 57q-81 0 -137 -57q-58 -56 -58 -137zM178 1288q7 -50 78 -121t121 -78l270 270q-52 33 -111 88q-55 59 -88 111zM1329 1167q0 -78 55.5 -133.5t133.5 -55.5t133 55.5t55 133.5t-55 133t-133 55t-133.5 -55 t-55.5 -133z" />
<glyph unicode="&#xe00f;" horiz-adv-x="1884" d="M12.5 63.5q-25.5 95.5 0 191t97.5 166.5q108 108 263 108q153 0 262 -108t109 -261.5t-109 -262.5q-108 -107 -262 -107q-156 0 -263 107q-72 71 -97.5 166.5zM177 159q0 -80 57 -137t139 -57q80 0 137 57q57 55 57 137q0 81 -57 137q-57 57 -137 57q-82 0 -139 -57 t-57 -137zM660 580q0 25 17 42l110 109q17 17 42 17t42 -17l76 -75q17 -17 17 -41.5t-17 -41.5l-112 -110q-17 -17 -41 -17t-41 17l-76 75q-17 17 -17 42zM958 876.5q0 24.5 17 41.5l111 111q17 17 41.5 17t41.5 -17l77 -76q17 -17 17 -41.5t-17 -41.5l-111 -111 q-18 -17 -42.5 -17t-41.5 17l-76 76q-17 17 -17 41.5zM1154 1310q0 151 107 257t258 106q152 0 259 -106t107 -257q0 -150 -107.5 -257t-258.5 -107t-258 107t-107 257zM1330 1310q0 -77 55.5 -132.5t133.5 -55.5t133 55.5t55 132.5q0 78 -55 133t-133 55t-133.5 -55 t-55.5 -133z" />
<glyph unicode="&#xe010;" horiz-adv-x="1883" d="M0 1298q0 157 110.5 268.5t267.5 111.5t268.5 -111.5t111.5 -268.5q0 -86 -40 -168l539 -538q-107 -67 -168 -171l-540 539q-80 -40 -171 -40q-157 0 -267.5 110.5t-110.5 267.5zM1139 158.5q0 154.5 109 263.5q61 61 142 88v609h-161q-32 0 -43 18.5t6 43.5l291 470 q12 18 28 18q8 0 15 -4.5t10 -8.5l3 -5l292 -470q17 -25 6 -43.5t-43 -18.5h-164v-608q82 -26 145 -89q109 -109 109 -263.5t-109 -264.5q-111 -109 -264 -109q-152 0 -263 109q-109 110 -109 264.5zM1320 158.5q0 -80.5 55 -135.5q56 -58 136 -58q83 0 136 58q56 56 56 136 t-56 136t-136 56q-77 0 -136 -56q-55 -56 -55 -136.5z" />
<glyph unicode="&#xe011;" horiz-adv-x="2155" d="M12.5 48.5q-25.5 96.5 0 193t97.5 168.5q110 110 265 110q142 0 250 -97l77 49q-17 89 10 178t93 155q61 61 144 89v69q-80 26 -144 90q-71 72 -96.5 168.5t0 192.5t96.5 168q109 109 265 109q155 0 264 -109q72 -72 97.5 -168t0 -192.5t-97.5 -168.5q-62 -64 -144 -90 v-69q83 -28 144 -89q65 -65 91.5 -151t12.5 -174l91 -58q109 98 252 98q155 0 265 -110q72 -72 97.5 -168.5t0 -193t-97.5 -168.5q-111 -109 -265 -109q-153 0 -264 109q-65 66 -92 154t-12 176l-88 57q-106 -100 -251.5 -101t-252.5 96l-78 -51q16 -89 -11 -177t-93 -154 q-111 -109 -264 -109q-154 0 -265 109q-72 72 -97.5 168.5zM182 145.5q0 -80.5 56 -136.5q56 -57 137 -57t136 57q56 56 56 136.5t-56 136.5q-57 57 -136 57q-80 0 -137 -57q-56 -56 -56 -136.5zM877 1317.5q0 -80.5 56 -136.5q58 -58 137 -58q78 0 136 58q56 56 56 136.5 t-56 136.5t-136 56q-81 0 -137 -56t-56 -136.5zM1589 145.5q0 -80.5 56 -136.5q55 -57 136 -57t137 57q56 56 56 137q0 80 -56 136q-57 57 -137 57q-79 0 -136 -57q-56 -56 -56 -136.5z" />
<glyph unicode="&#xe012;" horiz-adv-x="1850" d="M0 154q0 149 106 253q105 105 253 105q41 0 78 -9l250 499q-14 12 -21 19q-104 104 -104 253t104 253q104 106 253.5 106t253.5 -106q106 -104 106 -253t-106 -253q-9 -8 -19 -16l257 -502q41 9 82 9q148 0 253 -105q104 -104 104 -253t-104 -253q-106 -106 -253 -106 t-253 106q-106 104 -106 253t106 253q11 11 18 17l-258 502q-75 -19 -158 -1l-250 -500q2 -2 6.5 -5.5t8 -6.5t6.5 -6q104 -104 104 -253t-104 -253q-108 -106 -254 -106q-147 0 -253 106q-106 104 -106 253zM174 154q0 -76 55 -131q54 -54 130 -54q75 0 131 54 q54 56 54 131q0 77 -54 131t-131 54q-78 0 -130 -54q-55 -53 -55 -131zM1307 154q0 -76 55 -131q54 -54 131 -54q75 0 131 54q54 54 54 131t-54 131t-131 54q-79 0 -131 -54q-55 -53 -55 -131z" />
<glyph unicode="&#xe013;" d="M0 145q0 155 109 264t264 109t264 -109t109 -264t-109.5 -264.5t-263.5 -109.5t-263.5 109.5t-109.5 264.5zM182 145q0 -79 56 -135t135 -56t134.5 56t55.5 135t-55.5 135t-134.5 56t-135 -56t-56 -135zM631 574l474 483l-97 95q-23 22 -18 42.5t35 27.5l529 129 q20 3 31 -8q5 -5 7 -12.5t2 -12.5l-1 -6l-119 -531q-6 -30 -25.5 -35.5t-42.5 16.5l-132 129l-474 -483q-37 58 -74 94q-35 35 -95 72zM1197 1446q40 109 135.5 177t214.5 68q155 0 264 -109t109 -263q0 -112 -60.5 -204t-158.5 -136l66 294l1 10q8 53 -7 102.5t-51 84.5 q-61 59 -149 59h-2l-37 -3l-8 -3z" />
<glyph unicode="&#xe014;" horiz-adv-x="1890" d="M7 1325q0 152 107.5 259t259.5 107q119 0 215 -70.5t132 -180.5h317q-28 -120 1 -237h-320q-29 -80 -89 -139.5t-139 -85.5v-324q-118 27 -236 0v324q-109 37 -178.5 132.5t-69.5 214.5zM12.5 84.5q-25.5 96.5 0 192.5t97.5 168q87 87 207.5 104.5t223.5 -36.5l654 650 q-37 76 -37 162q0 151 107.5 258.5t259.5 107.5q151 0 258 -107t107 -259t-107 -259.5t-258 -107.5q-88 0 -164 39l-654 -651q53 -103 34.5 -223t-104.5 -206q-109 -109 -263.5 -109t-263.5 109q-72 71 -97.5 167.5zM184 1325q0 -78 55.5 -134t134.5 -56q78 0 133 56t55 134 t-55 133.5t-133 55.5q-79 0 -134.5 -55.5t-55.5 -133.5z" />
<glyph unicode="&#xe015;" d="M0 85v246q0 3 3 3h114q3 0 3 -4v-245q0 -4 -3 -4h-114q-3 0 -3 4zM0 432v247q0 2 3 2h114q3 0 3 -3v-246q0 -3 -3 -3h-114q-3 0 -3 3zM0 778v247q0 4 3 4h114q3 0 3 -4v-246q0 -3 -3 -3h-114q-3 0 -3 2zM0 1131v247q0 4 3 4h114q3 0 3 -4v-245q0 -5 -3 -5h-114q-3 0 -3 3 zM18 -58l1 1q1 1 2 1l104 46q3 0 4 -3q12 -28 38 -44.5t56 -16.5v-120q-66 0 -122 36t-82 96zM18 1521v2l1 2q26 60 82 95.5t122 35.5v-120q-30 0 -56 -16.5t-38 -44.5q-1 -2 -4 -2l-104 46zM313 -77q0 3 4 3h245q5 0 5 -3v-114q0 -3 -4 -3h-246q-4 0 -4 3v114zM313 1539 v115q0 2 4 2h245q5 0 5 -2v-115q0 -3 -4 -3h-246q-4 0 -4 3zM355 451q0 113 80 193.5t192 80.5q113 0 193.5 -80.5t80.5 -193.5q0 -112 -80.5 -192t-193.5 -80t-192.5 79.5t-79.5 192.5zM535 451q0 -37 27.5 -64.5t64.5 -27.5q38 0 65.5 27t27.5 65t-27.5 66t-65.5 28 q-37 0 -64.5 -28t-27.5 -66zM666 -77q0 3 4 3h245q4 0 4 -3v-114q0 -3 -4 -3h-245q-4 0 -4 3v114zM666 1539v115q0 2 4 2h245q4 0 4 -2v-115q0 -3 -4 -3h-245q-4 0 -4 3zM683 1011q0 113 80.5 193.5t193.5 80.5t193 -80.5t80 -193.5t-80 -193t-193 -80t-193.5 80t-80.5 193z M864 1011q0 -38 27.5 -65t65.5 -27t65 27t27 65t-27 65.5t-65 27.5t-65.5 -27.5t-27.5 -65.5zM1014 -77q0 3 3 3h246q3 0 3 -3v-114q0 -3 -3 -3h-247q-2 0 -2 3v114zM1014 1539v115q0 2 3 2h246q3 0 3 -2v-115q0 -3 -3 -3h-247q-2 0 -2 3zM1019 451q0 113 80.5 193.5 t193.5 80.5q112 0 192 -80.5t80 -193.5t-79.5 -192.5t-192.5 -79.5t-193.5 80t-80.5 192zM1200 451q0 -38 27.5 -65t65.5 -27q37 0 64.5 27.5t27.5 64.5q0 38 -27.5 66t-64.5 28q-38 0 -65.5 -28t-27.5 -66zM1360 -77q0 3 5 3h245q4 0 4 -3v-114q0 -3 -4 -3h-247q-3 0 -3 3 v114zM1360 1539v115q0 2 5 2h245q4 0 4 -2v-115q0 -3 -4 -3h-247q-3 0 -3 3zM1697 -74q30 0 56 16.5t38 44.5q1 3 4 3l104 -46l3 -2v-3l-1 -1q-26 -60 -82 -96t-122 -36v120zM1697 1536v120q66 0 122 -35.5t82 -95.5l1 -4q0 -1 -1 -1t-2 -1l-104 -46q-3 0 -4 2 q-12 28 -38 44.5t-56 16.5zM1800 85v245q0 4 3 4h114q3 0 3 -3v-246q0 -4 -3 -4h-114q-3 0 -3 4zM1800 438v245q0 4 3 4h114q3 0 3 -4v-245q0 -4 -3 -4h-114q-3 0 -3 4zM1800 785v246q0 3 3 3h114q3 0 3 -3v-247q0 -2 -3 -2h-114q-3 0 -3 3zM1800 1133v245q0 4 3 4h114 q3 0 3 -4v-247q0 -3 -3 -3h-114q-3 0 -3 5z" />
<glyph unicode="&#xe016;" horiz-adv-x="2205" d="M0 168v1366q0 65 52.5 111t126.5 46h1846q74 0 127.5 -46t53.5 -111v-1366q0 -65 -53.5 -111.5t-127.5 -46.5h-497v-119q0 -49 -35 -84.5t-85 -35.5h-614q-50 0 -85 35.5t-35 84.5v119h-495q-74 0 -126.5 46.5t-52.5 111.5zM240 250h1726v332h-406q-19 -54 -66.5 -88.5 t-106.5 -34.5q-76 0 -128.5 53t-52.5 129q0 65 41 114l-106 171q-33 -5 -40 -5t-39 5l-104 -169q42 -52 42 -116q0 -76 -53.5 -129t-129.5 -53q-59 0 -105.5 34.5t-65.5 88.5h-406v-332zM240 702h406q19 54 65.5 88t105.5 34q17 0 39 -5l104 170q-41 52 -41 115 q0 76 53 129.5t129 53.5t129 -53.5t53 -129.5q0 -62 -41 -114l107 -171q22 5 38 5q59 0 106.5 -34t66.5 -88h406v749h-1726v-749z" />
<glyph unicode="&#xe017;" d="M0 1226q0 98 70.5 168.5t168.5 70.5h1442q98 0 168.5 -70.5t70.5 -168.5q0 -100 -70 -170t-169 -70h-1442q-99 0 -169 70t-70 170zM2 87q0 37 26.5 63.5t64.5 26.5h1737q37 0 63.5 -26.5t26.5 -63.5t-26.5 -63t-63.5 -26h-1737q-38 0 -64.5 26t-26.5 63zM5 584 q0 62 43.5 106t105.5 44h1608q62 0 106 -44t44 -106t-44 -106t-106 -44h-1608q-62 0 -105.5 44t-43.5 106z" />
<glyph unicode="&#xe018;" d="M4 -190l1 5l125 537q6 30 27 35.5t43 -17.5l115 -115l211 210q36 -57 73 -95q42 -41 96 -74l-210 -210l114 -115q23 -23 17.5 -43t-35.5 -26l-538 -127q-19 -3 -30 8q-6 6 -8 14t-1 13zM579 727q0 156 111 266.5t267 110.5q157 0 267.5 -110.5t110.5 -266.5 q0 -157 -110.5 -267.5t-267.5 -110.5q-156 0 -267 110.5t-111 267.5zM759 727q0 -82 58 -140.5t140 -58.5t140 58t58 141t-57.5 140.5t-140.5 57.5q-82 0 -140 -58t-58 -140zM1223 1163l214 214l-115 114q-23 23 -17 43.5t36 26.5l537 127q20 3 31 -8q5 -5 7 -13t2 -13 l-1 -6l-126 -537q-6 -30 -27 -35.5t-43 17.5l-115 115l-214 -214q-37 58 -74 95q-40 40 -95 74z" />
<glyph unicode="&#xf004;" horiz-adv-x="1674" d="M0 1107q0 51 37 88t89 37t88 -37l624 -622l623 622q37 37 89 37t88 -37q37 -37 37 -88.5t-37 -88.5l-800 -800l-801 800q-37 39 -37 89z" />
<glyph unicode="&#xf005;" horiz-adv-x="1673" d="M0 356.5q0 52.5 37 88.5l800 800l800 -800q36 -36 36 -88q0 -53 -36 -90q-37 -36 -89 -36t-89 36l-622 624l-623 -624q-37 -36 -89 -36t-88 36q-37 37 -37 89.5z" />
<glyph unicode="&#xf006;" horiz-adv-x="1014" d="M0 13.5q0 51.5 37 88.5l624 623l-624 624q-37 37 -37 88.5t37 88.5t89 37t89 -37l800 -801l-800 -800q-39 -37 -89 -37t-89 37q-37 37 -37 88.5z" />
<glyph unicode="&#xf007;" horiz-adv-x="1014" d="M0 737l801 801q37 37 88 37q50 0 89 -37q36 -37 36 -89t-36 -89l-624 -623l624 -624q36 -36 36 -88t-36 -89q-37 -36 -89 -36t-88 36z" />
<glyph unicode="&#xf008;" horiz-adv-x="2198" d="M139 141q0 -61 44 -104.5t104 -43.5h1625q61 0 104 43.5t43 104.5t-43 104t-104 43h-1625q-60 0 -104 -43t-44 -104zM139 731q0 -61 44 -104t104 -43h1625q61 0 104 43t43 104t-43 104.5t-104 43.5h-1625q-60 0 -104 -43.5t-44 -104.5zM139 1322q0 -61 44 -104t104 -43 h1625q61 0 104 43t43 104t-43 104.5t-104 43.5h-1625q-60 0 -104 -43.5t-44 -104.5z" />
<glyph unicode="&#xf009;" d="M0 141q0 -61 43 -104.5t104 -43.5h66q61 0 104 43.5t43 104.5t-43 104t-104 43h-66q-61 0 -104 -43t-43 -104zM0 731q0 -61 43 -104t104 -43h66q61 0 104 43t43 104t-43 104.5t-104 43.5h-66q-61 0 -104 -43.5t-43 -104.5zM0 1322q0 -61 43 -104t104 -43h66q61 0 104 43 t43 104t-43 104.5t-104 43.5h-66q-61 0 -104 -43.5t-43 -104.5zM480 141q0 -61 43 -104.5t104 -43.5h1146q61 0 104 43.5t43 104.5t-43 104t-104 43h-1146q-61 0 -104 -43t-43 -104zM480 731q0 -61 43 -104t104 -43h1146q61 0 104 43t43 104t-43 104.5t-104 43.5h-1146 q-61 0 -104 -43.5t-43 -104.5zM480 1322q0 -61 43 -104t104 -43h1146q61 0 104 43t43 104t-43 104.5t-104 43.5h-1146q-61 0 -104 -43.5t-43 -104.5z" />
<glyph unicode="&#xf00a;" d="M0 -120v586q0 44 31 75.5t75 31.5h585q44 0 75.5 -31.5t31.5 -75.5v-586q0 -44 -31.5 -75t-75.5 -31h-585q-44 0 -75 31t-31 75zM0 997v586q0 44 31 75t75 31h585q44 0 75.5 -31t31.5 -75v-586q0 -44 -31.5 -75.5t-75.5 -31.5h-585q-44 0 -75 31.5t-31 75.5zM1121 -120 v586q0 44 31.5 75.5t74.5 31.5h587q43 0 74.5 -31.5t31.5 -75.5v-586q0 -44 -31 -75t-75 -31h-587q-43 0 -74.5 31t-31.5 75zM1121 997v586q0 43 31.5 74.5t74.5 31.5h587q44 0 75 -31.5t31 -74.5v-586q0 -44 -31.5 -75.5t-74.5 -31.5h-587q-43 0 -74.5 31.5t-31.5 75.5z " />
<glyph unicode="&#xf00b;" d="M0 -120v586q0 44 31.5 75.5t74.5 31.5h587q43 0 74.5 -31.5t31.5 -75.5v-586q0 -44 -31.5 -75t-74.5 -31h-587q-44 0 -75 31t-31 75zM0 997v586q0 43 31 74.5t75 31.5h587q43 0 74.5 -31.5t31.5 -74.5v-586q0 -44 -31.5 -75.5t-74.5 -31.5h-587q-43 0 -74.5 31.5 t-31.5 75.5zM181 -46h437v438h-437v-438zM181 1071h437v438h-437v-438zM1121 -120v586q0 44 31.5 75.5t74.5 31.5h587q43 0 74.5 -31.5t31.5 -75.5v-586q0 -44 -31 -75t-75 -31h-587q-43 0 -74.5 31t-31.5 75zM1121 997v586q0 43 31.5 74.5t74.5 31.5h587q44 0 75 -31.5 t31 -74.5v-586q0 -44 -31.5 -75.5t-74.5 -31.5h-587q-43 0 -74.5 31.5t-31.5 75.5zM1302 -46h439v438h-439v-438zM1302 1071h439v438h-439v-438z" />
<glyph unicode="&#xf00c;" horiz-adv-x="2219" d="M0 410q0 -16 17 -27.5t42 -11.5t42.5 11.5t17.5 27.5v643q0 16 -17.5 27t-42.5 11t-42 -11t-17 -27v-643zM254 290q0 -16 17.5 -27.5t42.5 -11.5t42.5 11.5t17.5 27.5v883q0 16 -17.5 27t-42.5 11t-42.5 -11t-17.5 -27v-883zM542 210q0 -32 23.5 -55.5t55.5 -23.5h978 q32 0 55 23.5t23 55.5v1041q0 34 -23 57t-55 23h-978q-33 0 -56 -23.5t-23 -56.5v-1041zM1845 290v883q0 16 17.5 27t41.5 11q25 0 43 -11t18 -27v-883q0 -16 -18 -27.5t-43 -11.5q-24 0 -41.5 11.5t-17.5 27.5zM2099 410v643q0 16 17.5 27t42.5 11t42.5 -11t17.5 -27v-643 q0 -16 -17.5 -27.5t-42.5 -11.5t-42.5 11.5t-17.5 27.5z" />
<glyph unicode="&#xf00d;" horiz-adv-x="2219" d="M0 413v640q0 16 18 26.5t43 10.5t42 -10.5t17 -26.5v-640q0 -16 -17 -27.5t-42 -11.5t-43 11.5t-18 27.5zM255 293v878q0 16 17.5 27.5t42.5 11.5q24 0 42 -11.5t18 -27.5v-878q0 -16 -18 -27t-42 -11q-25 0 -42.5 11t-17.5 27zM543 214v1037q0 32 23 55t55 23h978 q32 0 55.5 -23t23.5 -55v-1037q0 -32 -23.5 -55.5t-55.5 -23.5h-978q-32 0 -55 23.5t-23 55.5zM722 314h776v837h-776v-837zM1846 293v878q0 16 17 27.5t42 11.5t43 -11.5t18 -27.5v-878q0 -16 -18 -27t-43 -11t-42 11t-17 27zM2101 413v640q0 16 17 26.5t42 10.5t42 -10.5 t17 -26.5v-640q0 -16 -17 -27.5t-42 -11.5t-42 11.5t-17 27.5z" />
<glyph unicode="&#xf00e;" horiz-adv-x="1506" d="M0 24q0 -55 38 -94t93 -39h260q55 0 93 39t38 94v1416q0 55 -38 93t-93 38h-260q-55 0 -93 -38t-38 -93v-1416zM983 24q0 -55 38.5 -94t92.5 -39h261q54 0 92.5 39t38.5 94v1416q0 55 -38.5 93t-92.5 38h-261q-54 0 -92.5 -38t-38.5 -93v-1416z" />
<glyph unicode="&#xf00f;" horiz-adv-x="1349" d="M0 37v1388q0 79 45.5 105.5t107.5 -15.5l1156 -715q41 -29 41 -69q0 -18 -10 -35.5t-20 -25.5l-11 -8l-1156 -716q-62 -41 -107.5 -14.5t-45.5 105.5z" />
<glyph unicode="&#xf010;" horiz-adv-x="1795" d="M0 66v1390q0 84 43 94.5t131 -36.5l1100 -695v637q0 43 36.5 80t79.5 37h232q81 0 127 -35t46 -82v-1390q0 -47 -46 -82t-127 -35h-232q-43 0 -79.5 37t-36.5 80v579l-1100 -696q-88 -40 -131 -7.5t-43 124.5z" />
<glyph unicode="&#xf011;" horiz-adv-x="1682" d="M0 81v1300q0 50 35.5 85.5t85.5 35.5h239q50 0 85 -35.5t35 -85.5v-557l1057 655q60 39 102.5 14t42.5 -100v-1323q0 -76 -42.5 -101t-102.5 15l-1057 654v-557q0 -50 -35.5 -85.5t-84.5 -35.5h-239q-49 0 -85 36t-36 85z" />
<glyph unicode="&#xf012;" horiz-adv-x="3014" d="M0 35v1391q0 79 45 106t109 -15l1092 -677v586q0 79 45 106t109 -15l1110 -688v585q0 53 37 90.5t90 37.5h251q53 0 90 -37.5t37 -90.5v-1366q0 -53 -37 -90t-90 -37h-251q-53 0 -90 37t-37 90v585l-1110 -688q-64 -41 -109 -15t-45 105v587l-1092 -677q-64 -41 -109 -15 t-45 105z" />
<glyph unicode="&#xf013;" horiz-adv-x="3014" d="M0 48v1366q0 53 37 90.5t90 37.5h251q53 0 90 -37.5t37 -90.5v-585l1111 688q62 42 107.5 15t45.5 -106v-586l1093 677q62 42 107.5 15t45.5 -106v-1391q0 -79 -45.5 -105t-107.5 15l-1093 677v-587q0 -79 -45.5 -105t-107.5 15l-1111 688v-585q0 -53 -37 -90.5 t-90 -37.5h-251q-53 0 -90 37.5t-37 90.5z" />
<glyph unicode="&#xf014;" horiz-adv-x="2468" d="M0.5 529q-4.5 92 19.5 176.5t71 159t118 132.5t158 92q158 60 319 26q75 165 228 265.5t340 100.5q127 0 242.5 -49.5t199 -133t133 -199t49.5 -242.5q0 -19 -4 -55q3 0 7.5 2t6.5 3q164 64 325.5 -8.5t225.5 -236.5q40 -114 24 -221.5t-88 -198t-181 -132.5 q-72 -26 -148 -28h-611v344h139q38 0 50.5 22t-7.5 53l-350 564q-14 20 -33 20q-9 0 -17.5 -5t-12.5 -10l-4 -5l-350 -564q-20 -31 -6.5 -53t51.5 -22h137v-344l-459 1q-175 0 -322.5 99.5t-211.5 267.5q-34 87 -38.5 179z" />
<glyph unicode="&#xf015;" horiz-adv-x="2469" d="M-0.5 575q5.5 112 48.5 211t127.5 180t194.5 125q132 56 316 30q81 162 232 261t337 99q169 0 311 -84.5t223 -226t81 -304.5v-59h15q165 65 325.5 -7.5t229.5 -232.5q65 -165 -7.5 -326t-232.5 -230l-34 -8.5t-33 -8.5t-27.5 -6t-29.5 -4.5t-26 -1.5h-1484 q-173 0 -316.5 99.5t-208.5 275.5q-47 106 -41.5 218zM917.5 787.5q-12.5 -19.5 8.5 -41.5l269 -449q15 -16 30 -16q7 0 14.5 4t11.5 8l4 4l286 449q12 24 -0.5 42.5t-45.5 18.5h-105v209h-315v-209h-120q-25 0 -37.5 -19.5z" />
<glyph unicode="&#xf016;" d="M0 731q0 196 76 373.5t204.5 306t306 204.5t373.5 76q195 0 373 -76t306.5 -204.5t204.5 -306t76 -373.5q0 -195 -76 -373t-204.5 -306.5t-306.5 -204.5t-373 -76q-196 0 -373.5 76t-306 204.5t-204.5 306.5t-76 373zM181 731q0 -100 27 -203q72 195 211 337 q-2 4 -4 12.5t-2 9.5h-11q-100 0 -210 -28q-11 -66 -11 -128zM222 982q95 18 180 18q4 0 11 -0.5t11 -0.5q21 42 60 67t87 25q57 0 104 -37q184 94 397 98q10 23 22 38q-150 197 -385 279q-172 -59 -300.5 -187t-186.5 -300zM277 358q86 -158 234.5 -263.5t330.5 -133.5 q174 101 281 263q-40 46 -40 106q0 70 52 119q-71 130 -182 228.5t-249 152.5q-50 -68 -133 -68q-39 0 -76 20q-173 -181 -218 -424zM734 955q1 -3 1.5 -9t0.5 -9q162 -61 292.5 -175.5t212.5 -267.5q24 99 24 191q0 113 -38 240h-3q-55 0 -97.5 32t-59.5 82 q-177 -7 -333 -84zM895 1509q171 -98 292 -260q18 5 37 5q63 0 109.5 -43t52.5 -105q186 -61 331 -187q-65 257 -275.5 425t-481.5 168q-10 0 -20.5 -0.5t-24 -1.5t-20.5 -1zM1030 -45q99 8 204 47q0 6 2 23.5t2 27.5q0 46 -9 114q-2 1 -7 1q-78 -119 -192 -213zM1333 966 q44 -145 44 -281q0 -114 -28 -226q64 -49 64 -129q0 -85 -74 -137q11 -71 11 -136q178 103 284.5 282.5t106.5 391.5v3q-155 188 -381 263q-14 -19 -27 -31z" />
<glyph unicode="&#xf017;" d="M0 731q0 196 76 373.5t204.5 306t306 204.5t373.5 76q173 0 331.5 -58.5t285.5 -166.5q85 -64 146 -154q197 -258 197 -581q0 -195 -76 -373t-204.5 -306.5t-306.5 -204.5t-373 -76q-196 0 -373.5 76t-306 204.5t-204.5 306.5t-76 373zM192 859q104 28 210 28h11 q0 -1 2 -9.5t4 -12.5q-142 -145 -211 -336q23 -88 69 -172q45 244 218 425q35 -20 76 -20q83 0 133 68q138 -54 249 -152.5t182 -228.5q-52 -49 -52 -119q0 -59 40 -107q-110 -163 -280 -262q59 -9 117 -9q35 0 71 3q114 95 191 213h3l2 -1q10 -63 10 -114l-3 -51 q64 24 116 55q0 65 -11 136q74 52 74 137q0 80 -64 129q28 112 28 226q0 136 -44 281q15 13 26 31q227 -75 380 -261q0 91 -22 184q-148 127 -331 186q-6 62 -52.5 105t-109.5 43q-19 0 -37 -5q-122 163 -293 260q-90 -9 -183 -39q233 -84 383 -280q-12 -15 -22 -38 q-213 -4 -397 -98q-47 37 -104 37q-48 0 -87 -25t-60 -67q-4 0 -11 0.5t-11 0.5q-85 0 -180 -18q-19 -57 -30 -123zM734 955q163 80 333 84q17 -50 59.5 -82t97.5 -32h3q37 -124 37 -240q0 -98 -24 -191q-80 152 -211 266.5t-293 176.5q0 3 -0.5 9t-1.5 9z" />
<glyph unicode="&#xf018;" d="M0 731q0 196 76 373.5t204.5 306t306.5 204.5t373 76t373 -76t306.5 -204.5t204.5 -306t76 -373.5q0 -195 -76 -373t-204.5 -306.5t-306.5 -204.5t-373 -76t-373 76t-306.5 204.5t-204.5 306.5t-76 373zM181 731q0 -156 59.5 -298t161 -245.5t241 -167t294.5 -68.5 q-15 17 -23 69q-2 13 -5 50.5t-7 56.5q-2 13 -36 111q-10 31 -22 39.5t-46 10.5q-18 1 -51 1.5t-56 2t-53 4.5t-51 11.5t-42 22t-34 36.5t-18 54q-22 127 78 211q51 42 107 56.5t131 12.5q50 -1 86 -28q45 -37 91 -39q10 -1 45 -4t57.5 -4.5t52 2.5t48.5 14v13q0 4 2 15.5 t2.5 19t-2 15.5t-10.5 12q-9 4 -42 1.5t-40 8.5q-18 17 4.5 34t61.5 32t44 20q29 30 -12 38q-40 8 -79 -9q-8 -4 -13 -8q-18 -17 -36 -59q-5 -13 -18.5 -33.5t-18.5 -30.5q-3 5 -11 12.5t-11 11.5q-6 7 -23 41q-2 4 -5 12.5t-5 13.5t-6 12.5t-8 10t-11 5.5t-14 -1 q-2 -21 14 -47t16 -40q1 -27 -12 -24.5t-29 26.5q-4 6 -11 18.5t-11 18t-12 12.5t-18.5 8.5t-24.5 -0.5q-26 -4 -41 -15q-4 -3 -15 -16t-20 -16q-6 -35 -54 -33q-2 0 -12.5 0.5t-17 1t-15.5 2t-15 4.5t-9 8q-5 10 4.5 43.5t17.5 43.5t21.5 13.5t39 2.5t27.5 -1 q4 18 -10 33.5t-16 20.5q-2 11 -2 16.5t7 8t13 2.5h15t13 1q37 7 61 31q1 1 7.5 6.5t9.5 7.5l10.5 7t11 5t11.5 2.5t12 -1.5q4 -1 12 -9.5t13 -9.5q7 -2 32 7q26 9 39 21t27 36q26 42 8 71q-12 17 -31 12t-29 -25q-3 -7 -6 -22t-7.5 -25.5t-12.5 -16.5q-10 -7 -32 -8.5 t-34 4.5q-9 4 -13 12.5t-4 15t1.5 20.5t1.5 18q0 8 2 15t4.5 12t7.5 11t8.5 9.5t10 9.5t10.5 10q16 16 33.5 24.5t39.5 8.5t35 -1t41.5 -8t37.5 -9q35 -7 74 36q6 8 17.5 17.5t16 17.5t4.5 23q0 14 -2.5 48.5t-3.5 58t3.5 53t15.5 48.5q-128 47 -264 47q-96 0 -193 -25 l-1 -5q0 -38 4 -43q9 -11 33 -15t46 -5t37 -13.5t9 -37.5q-7 -28 -39.5 -62.5t-65.5 -58.5q-41 -30 -100 -38q-1 0 -11.5 -1.5t-15 -1.5t-16 -1t-18 0t-16.5 2t-15.5 3.5t-11 6.5t-8 10.5t-2.5 14.5q1 18 17.5 32.5t34.5 21t44 14.5t34 11q2 25 -7 33.5t-24.5 4t-34 -11.5 t-35.5 -12t-30 2q-5 16 11.5 27t18.5 15q9 21 -18 38q-59 -32 -107 -72q21 -3 35 -13t13 -29q0 -10 -4.5 -18t-8.5 -12t-12.5 -11.5t-12.5 -10.5q-30 -28 -44 -51q-6 -9 -14 -43.5t-23 -43.5q-23 -13 -31.5 -1t-10.5 38v10v7t-2.5 5.5t-7.5 5.5q-13 4 -37 -2 q-139 -199 -139 -444zM1191 583q-3 -62 41 -109q55 -57 107 -66q21 -4 58.5 3t50.5 7q1 -34 -39 -108q-44 -76 -67 -100q-5 -5 -14.5 -13.5t-14 -13t-11 -12.5t-8 -14t-1.5 -15t4 -19q2 -5 8.5 -18t6.5 -16t-2 -19q-3 -8 -8 -12.5t-14 -8.5t-13 -7q-9 -6 -23.5 -17 t-26 -19.5t-24.5 -15.5q238 78 389 281.5t151 459.5q0 26 -4 74q-8 -11 -9 -24q-5 -35 -5 -43q0 -7 1.5 -28.5t0.5 -37.5t-8 -24q-6 -7 -13 -8t-15 4t-14.5 11t-15 14t-13.5 11q-18 12 -29 18.5t-26.5 12t-30.5 4.5t-32 -9q-36 -18 -80 -18q-7 0 -22.5 1t-25.5 1t-22.5 -2.5 t-20.5 -7.5q2 -22 15.5 -41t34.5 -20q10 0 15 3.5t9.5 9.5t10.5 9q15 10 47 8q3 -52 0 -63t-13 -25.5t-12 -25.5q-1 -5 -3.5 -19.5t-4.5 -21t-7.5 -16t-13.5 -16.5q-16 -13 -35 -18.5t-35 4.5q-6 5 -16.5 19.5t-18.5 21.5q-6 5 -11 9t-10 10t-7.5 9.5t-8 12t-8.5 12.5 q-12 17 -42.5 37t-39.5 30q-8 -5 -9.5 -8.5t-2.5 -17.5z" />
<glyph unicode="&#xf019;" d="M0 731q0 196 76 373.5t204.5 306t306.5 204.5t373 76t373 -76t306.5 -204.5t204.5 -306t76 -373.5q0 -195 -76 -373t-204.5 -306.5t-306.5 -204.5t-373 -76t-373 76t-306.5 204.5t-204.5 306.5t-76 373zM320 1175q28 5 36 1q5 -3 7.5 -5t3 -5t0.5 -7v-10q2 -59 42 -37 q15 9 22.5 44t12.5 43q11 18 46 51q4 3 12.5 10.5t12.5 11.5t8.5 12t4.5 18q1 19 -13.5 29t-35.5 13q-90 -71 -159 -169zM491 419q6 -36 24.5 -61t40 -38t56.5 -20t60 -8t66 -2t60 -2q34 -2 46 -10.5t22 -39.5q4 -11 13 -34.5t14.5 -41t8.5 -34.5q4 -20 7 -58t5 -51 q8 -50 23 -67q4 0 11.5 -0.5t11.5 -0.5q121 0 246 40q15 9 39 28t30 23q4 2 13 6t14 8.5t8 13.5q4 6 2.5 14t-2.5 12t-5.5 12t-6.5 14q-4 10 -4.5 19t1.5 15.5t8 14t11 12t14 13t14 13.5q27 27 67 100q41 74 40 108q-14 1 -51.5 -6.5t-58.5 -3.5q-51 9 -106 66 q-45 47 -42 110q1 13 2.5 17t9.5 9q10 -11 41 -31.5t42 -36.5q4 -5 10.5 -14.5t9.5 -14t9.5 -11.5t14.5 -13t18.5 -21t17.5 -20q16 -10 35.5 -4.5t35.5 18.5q8 7 13.5 17t7 17t4 20.5t3.5 18.5q3 11 12.5 26t12.5 25t0 64q-33 0 -48 -8q-4 -2 -13 -13t-21 -10q-22 1 -35 20 t-15 41q8 6 20.5 8t21 2t26 -1t22.5 -1q37 0 80 18q17 8 32 9.5t30.5 -4.5t26.5 -12t29 -19q5 -4 13.5 -11.5t15 -13.5t14.5 -11t15 -4t13 8q7 8 8 24.5t-0.5 38t-1.5 27.5l5 42q1 6 9 24q-22 227 -162 406t-350 255q-15 -24 -18.5 -59t0.5 -86.5t4 -62.5q0 -15 -4.5 -23.5 t-16 -17.5t-17.5 -17q-38 -43 -74 -36q-10 2 -38 9t-41 8t-35 1t-39 -8.5t-34 -24.5q-3 -3 -12 -11.5t-12.5 -12.5t-9 -11.5t-8 -15t-2.5 -16.5q0 -3 -1.5 -18t-1 -20.5t4.5 -14.5t13 -14q12 -6 33 -4.5t32 8.5q8 6 12.5 17t8 26t6.5 22q10 20 29 25t31 -12q18 -28 -8 -72 q-15 -24 -28 -36t-38 -20q-2 -1 -8.5 -4t-12 -4t-11.5 0q-5 2 -13 10.5t-12 9.5q-24 7 -62 -28q-28 -26 -61 -30q-4 -1 -13 -1h-15t-13 -2.5t-7 -8t2 -16.5q2 -6 15.5 -21t10.5 -33q-6 0 -22 0.5t-26 0t-22 -4t-18 -11.5q-8 -12 -17.5 -45t-4.5 -42q9 -16 69 -16 q48 -4 54 32q9 4 19.5 16t15.5 16q15 12 41 15q14 2 24.5 0.5t18.5 -8.5t12 -12t11 -17.5t11 -18.5q20 -31 34 -27q8 3 7 25q0 14 -16 39.5t-14 45.5q11 0 16.5 1t12 -8t9 -13.5t7 -15.5t6.5 -15q11 -29 21 -42q1 -1 10 -9.5t12 -14.5q3 4 17 27t20 37q17 41 37 59 q21 19 72 19q44 0 43 -20q-1 -8 -12 -19q-6 -6 -44 -21t-61 -32t-5 -34q11 -10 40.5 -8t41.5 -3q8 -4 11 -11.5t2.5 -14t-3 -19t-2.5 -16.5v-12q-24 -14 -57.5 -16.5t-88.5 2.5t-57 5q-43 2 -91 39q-22 17 -39 22t-48 7q-146 5 -237 -70q-102 -85 -80 -212zM574 1336 q13 -7 30.5 -2t36 12t34 11.5t24.5 -4t7 -33.5q-8 -3 -34 -11t-44 -15t-34.5 -21.5t-17.5 -32.5q0 -8 2.5 -14t8 -10t11.5 -7t15.5 -3.5t16 -1.5t18 0t16 1t15 1.5t11.5 1.5q59 8 100 37q92 69 105 122q6 25 -9 37.5t-37 13.5t-46 5t-33 15q-4 5 -4 43q0 4 1 5 q-133 -44 -180 -70q26 -19 18 -38q-2 -4 -19 -15t-12 -27z" />
<glyph unicode="&#xf01a;" d="M0 982q0 64 49 109.5t117 45.5h440l336 -510l183 1064h627q70 0 119 -46t49 -111t-49 -111t-119 -46h-349l-278 -1606l-702 1056h-257q-68 0 -117 45.5t-49 109.5z" />
<glyph unicode="&#xf01b;" d="M0 731q0 196 76 373.5t204.5 306t306 204.5t373.5 76q195 0 373 -76t306.5 -204.5t204.5 -306t76 -373.5q0 -195 -76 -373t-204.5 -306.5t-306.5 -204.5t-373 -76q-196 0 -373.5 76t-306 204.5t-204.5 306.5t-76 373zM181 731q0 -158 61.5 -302.5t166 -249t249 -166.5 t302.5 -62t303 62t249.5 166.5t166.5 249t62 302.5t-62 302.5t-166.5 249t-249.5 166.5t-303 62t-302.5 -62t-249 -166.5t-166 -249t-61.5 -302.5zM421 794q0 32 24 55t58 23h220l167 -255l93 533h313q35 0 60 -23.5t25 -55.5t-25 -55.5t-60 -23.5h-174l-139 -802l-351 527 h-129q-34 0 -58 22.5t-24 54.5z" />
<glyph unicode="&#xf01c;" d="M0 731q0 196 76 373.5t204.5 306t306.5 204.5t373 76t373 -76t306.5 -204.5t204.5 -306t76 -373.5q0 -195 -76 -373t-204.5 -306.5t-306.5 -204.5t-373 -76t-373 76t-306.5 204.5t-204.5 306.5t-76 373zM421 794q0 -32 24 -54.5t58 -22.5h129l351 -527l139 802h174 q35 0 60 23.5t25 55.5t-25 55.5t-60 23.5h-313l-92 -533l-168 255h-220q-34 0 -58 -23t-24 -55z" />
<glyph unicode="&#xf01d;" horiz-adv-x="2348" d="M11.5 1595.5q25.5 27.5 93.5 -0.5l2175 -875q43 -17 59.5 -42t3 -50.5t-53.5 -46.5l-387 -186l-270 -478q-37 -58 -96.5 -63.5t-109.5 43.5l-53 54q-5 5 -7 6l-119 121l-292 -137q-65 -29 -133 -4t-99 90l-706 1475q-31 66 -5.5 93.5zM425.5 1324.5q-5.5 -7.5 48.5 -55.5 l776 -692q54 -49 136.5 -64.5t142.5 10.5q61 26 60 72.5t-64 83.5l-1030 616q-64 37 -69.5 29.5z" />
<glyph unicode="&#xf01e;" d="M0 731q0 195 76 373t204.5 306.5t306.5 204.5t373 76t373 -76t306.5 -204.5t204.5 -306.5t76 -373t-76 -373t-204.5 -306.5t-306.5 -204.5t-373 -76t-373 76t-306.5 204.5t-204.5 306.5t-76 373zM181 731q0 -212 104.5 -391.5t283.5 -284t391 -104.5t391.5 104.5 t284.5 284t105 391.5q0 158 -62 302.5t-166.5 249t-249.5 166.5t-303 62t-302.5 -62t-249 -166.5t-166 -249t-61.5 -302.5zM423 1141q13 14 47 1l1083 -437q22 -8 30.5 -20t2 -25t-26.5 -23l-193 -93l-135 -238q-19 -29 -48.5 -32t-54.5 22l-26 27q-3 3 -4 3l-59 60 l-145 -68q-32 -14 -66 -1.5t-50 44.5l-352 734q-16 32 -3 46zM630 1007q-1 -2 5 -9.5t19 -19.5l386 -344q28 -24 68.5 -31.5t70.5 5.5q31 13 30.5 36t-32.5 42l-513 306q-16 9 -24.5 13t-9.5 2z" />
<glyph unicode="&#xf01f;" d="M0 731q0 195 76 373t204.5 306.5t306.5 204.5t373 76t373 -76t306.5 -204.5t204.5 -306.5t76 -373t-76 -373t-204.5 -306.5t-306.5 -204.5t-373 -76t-373 76t-306.5 204.5t-204.5 306.5t-76 373zM410 1141q-13 -14 3 -46l352 -734q16 -32 49.5 -44.5t65.5 1.5l146 68 l59 -60l3 -3l27 -27q24 -25 54 -22t48 32l135 238l193 93q31 16 29.5 35.5t-33.5 32.5l-1084 437q-34 13 -47 -1zM616 1007q3 4 34 -15l515 -306q31 -19 31.5 -42t-29.5 -36q-31 -13 -71.5 -5.5t-68.5 31.5l-386 344q-28 25 -25 29z" />
<glyph unicode="&#xf020;" d="M0 731q0 195 76 372.5t205 306.5t306.5 205t372.5 76t373 -76t306.5 -205t204.5 -306.5t76 -372.5t-76 -372.5t-204.5 -306.5t-306.5 -205t-373 -76t-372.5 76t-306.5 205t-205 306.5t-76 372.5zM813 269q0 -95 66.5 -161.5t161.5 -66.5q6 0 22 -2q167 25 303.5 122 t215.5 247t79 323q0 184 -89 342t-242.5 253.5t-336.5 104.5q124 -196 124 -429q0 -166 -63 -314.5t-176 -261.5q-65 -68 -65 -157z" />
<glyph unicode="&#xf022;" horiz-adv-x="985" d="M6 935.5q-24 61.5 32 98t180 36.5h476l144 437l1 3q29 89 67.5 135t78.5 44v-1491l-380 -276l-6 -4q-101 -72 -168 -74.5t-82.5 60.5t20.5 182l1 3l1 2l144 437l-373 266l-5 5l-6 3q-101 72 -125 133.5z" />
<glyph unicode="&#xf024;" horiz-adv-x="1021" d="M6 908q-25 64 33 101.5t187 37.5h495l150 456l1 2q30 92 69 139t81 47v-345l-163 -491h-514l416 -297l-43 -134l-117 -354l421 301v-236l-393 -281l-6 -4q-107 -79 -180 -79q-66 0 -82 65.5t23 187.5l2 7l149 452l-388 278l-5 5l-6 3q-105 75 -130 139z" />
<glyph unicode="&#xf025;" horiz-adv-x="2085" d="M4.5 914q10.5 17 40.5 17h141q35 161 122 301.5t209.5 241.5t280.5 159t328 58q195 0 372.5 -76t306.5 -204t205 -305.5t76 -372.5t-76 -373t-205 -307t-306.5 -205.5t-372.5 -76.5q-330 0 -591 204q-49 38 -56.5 99.5t30.5 109.5q38 49 99.5 56.5t109.5 -30.5 q182 -140 408 -140q180 0 332 89t240.5 241.5t88.5 332.5q0 134 -52.5 256.5t-141 211t-211 141t-256.5 52.5q-219 0 -392.5 -129.5t-238.5 -333.5h89q30 0 40 -17t-6 -42l-276 -454q-12 -16 -28 -16q-7 0 -13.5 4t-9.5 8l-3 4l-278 454q-16 25 -5.5 42z" />
<glyph unicode="&#xf028;" d="M0 1101q0 211 150.5 360.5t362.5 149.5q165 0 300 -97l-29 -511q1 -25 19 -42.5t43 -17.5h21q25 0 37 -16.5t5 -40.5l-117 -353q-7 -24 -2.5 -27t18.5 17l397 546q14 19 7.5 33.5t-31.5 14.5h-158q-25 0 -36 16t-1 38l167 373q118 67 254 67q212 0 362.5 -149.5 t150.5 -360.5q0 -194 -130 -340l-702 -827q-52 -62 -127.5 -62t-128.5 62l-701 827q-131 146 -131 340z" />
<glyph unicode="&#xf029;" horiz-adv-x="1868" d="M3 438q10 51 52.5 85.5t94.5 34.5h305l74 347h-278q-57 0 -94 44q-35 45 -23 104q10 52 52 86t94 34h305l65 307q11 52 53.5 86.5t94.5 34.5q60 0 95 -44t22 -104l-59 -280h343l65 307q11 52 53 86.5t94 34.5q60 0 95 -44q36 -42 23 -104l-59 -280h277q58 0 95 -44 q35 -45 23 -104q-10 -52 -52 -86t-94 -34h-305l-75 -347h278q58 0 95 -44q35 -45 23 -105q-11 -52 -52.5 -86t-93.5 -34h-307l-64 -307q-11 -52 -53 -86t-94 -34q-58 0 -95 43q-35 45 -23 104l60 280h-344l-66 -307q-11 -52 -52.5 -86t-93.5 -34q-58 0 -95 43 q-35 45 -23 104l60 280h-278q-59 0 -95 45q-36 42 -23 104zM726 558h343l74 347h-344z" />
<glyph unicode="&#xf02a;" horiz-adv-x="1886" d="M0 792q0 14 7 28t13 20l7 7l772 561q42 32 72.5 11t30.5 -82v-228l55 -4q197 -17 371.5 -111t298 -240t193.5 -339t67 -402q-124 219 -330.5 358t-455.5 160q-101 9 -199 -3v-281q0 -61 -30.5 -82t-72.5 11l-772 562q-27 23 -27 54z" />
<glyph unicode="&#xf02b;" horiz-adv-x="1894" d="M3.5 563q11.5 19 43.5 19h129v704q0 65 45 110.5t110 45.5h983l-212 -314h-615v-546h130q32 0 43 -19t-6 -45l-294 -480q-12 -16 -29 -16q-7 0 -14 4t-11 8l-3 4l-294 480q-17 26 -5.5 45zM581 22l211 313h615v547h-130q-32 0 -43 19t6 44l294 480q11 17 28 17 q7 0 14.5 -4t11.5 -8l3 -5l294 -480q17 -25 5.5 -44t-43.5 -19h-129v-704q0 -65 -45.5 -110.5t-110.5 -45.5h-981z" />
<glyph unicode="&#xf02c;" d="M0 750q0 68 48.5 116t116.5 48h705l-227 227q-48 48 -48 116t48 117q49 48 117.5 48t116.5 -48l506 -508q49 -48 49 -116t-49 -116l-496 -497q-48 -48 -116.5 -48t-116.5 48t-48 116t48 117l216 215h-705q-68 0 -116.5 48.5t-48.5 116.5zM1192 -64q0 68 48.5 116.5 t116.5 48.5h147q36 0 61.5 25t25.5 61v1090q0 35 -25.5 60t-61.5 25h-147q-68 0 -116.5 48.5t-48.5 116.5t48.5 116t116.5 48h147q173 0 294.5 -121t121.5 -293v-1090q0 -173 -122 -294.5t-294 -121.5h-147q-68 0 -116.5 48.5t-48.5 116.5z" />
<glyph unicode="&#xf02d;" d="M0 187q0 -172 121.5 -294t293.5 -122h148q68 0 116.5 48.5t48.5 116.5t-48.5 116.5t-116.5 48.5h-148q-35 0 -60.5 25t-25.5 61v1090q0 35 25.5 60t60.5 25h148q68 0 116.5 48.5t48.5 116.5t-48.5 116t-116.5 48h-148q-172 0 -293.5 -121t-121.5 -293v-1090zM488 703 q0 68 48.5 116t116.5 48h705l-225 227q-49 48 -49 116.5t49 116.5q48 48 116 48t116 -48l507 -508q48 -48 48 -116t-48 -116l-497 -497q-48 -48 -116 -48t-117 48q-48 48 -48 116t49 117l215 215h-705q-67 0 -116 49t-49 116z" />
<glyph unicode="&#xf02e;" d="M0 187v148q0 68 48.5 116t116.5 48t116 -48t48 -116v-148q0 -36 25.5 -61t60.5 -25h1090q35 0 60.5 25t25.5 61v148q0 68 48 116t116 48t116.5 -48t48.5 -116v-148q0 -172 -121.5 -294t-293.5 -122h-1090q-172 0 -293.5 122t-121.5 294zM317 922q0 68 49 116 q48 48 116 48t116 -48l216 -216v705q0 68 48 116t116 48t116.5 -48t48.5 -116v-705l226 226q48 48 116 48t116 -48q49 -48 49 -116.5t-49 -116.5l-506 -506q-50 -50 -117 -50q-66 0 -116 50l-496 496q-49 49 -49 117z" />
<glyph unicode="&#xf02f;" d="M0 187v148q0 68 48.5 116t116.5 48t116 -48t48 -116v-148q0 -36 25.5 -61t61.5 -25h1089q35 0 60.5 25t25.5 61v148q0 68 48 116t116 48t116.5 -48t48.5 -116v-148q0 -172 -121.5 -294t-293.5 -122h-1089q-172 0 -294 121.5t-122 294.5zM318 1020.5q0 68.5 48 116.5 l506 506q48 48 117 48q68 0 116 -48l497 -496q48 -49 48 -117t-48 -116q-49 -48 -117 -48t-116 48l-216 216v-706q0 -68 -48 -116.5t-116 -48.5q-67 0 -116 48.5t-49 116.5v706l-226 -226q-48 -48 -116 -48t-116 48t-48 116.5z" />
<glyph unicode="&#xf031;" horiz-adv-x="1416" d="M0 984q0 143 56 275q51 125 151 226q97 97 225 150q130 56 275 56q148 0 276 -56q127 -53 225 -150q100 -100 152 -226q56 -132 56 -275t-56 -275q-36 -81 -74 -134l-468 -711q-46 -70 -110 -70t-111 70l-467 711q-46 64 -74 134q-56 132 -56 275zM445 984 q0 -110 76 -186q78 -78 186 -78q111 0 187 78q77 75 77 186q0 109 -77 186q-76 78 -187 78q-108 0 -186 -78q-76 -78 -76 -186z" />
<glyph unicode="&#xf032;" horiz-adv-x="2160" d="M0 344v1077q0 74 53.5 126.5t127.5 52.5h1800q74 0 126.5 -52.5t52.5 -126.5v-1077q0 -74 -52.5 -127.5t-126.5 -53.5h-520q17 -161 59 -186q29 -17 54.5 -27.5t36.5 -12.5l11 -2v-72h-1080v72q36 3 101 42q43 27 60 186h-522q-74 0 -127.5 53.5t-53.5 127.5z" />
<glyph unicode="&#xf033;" horiz-adv-x="1435" d="M0 -49v1560q0 74 52.5 127t126.5 53h1077q74 0 126.5 -53t52.5 -127v-1560q0 -74 -52.5 -127t-126.5 -53h-1077q-74 0 -126.5 53t-52.5 127zM631 90q0 -38 26.5 -64t63.5 -26t63 26.5t26 63.5t-26 63t-63 26t-63.5 -26t-26.5 -63z" />
<glyph unicode="&#xf034;" horiz-adv-x="1140" d="M0 -23v1509q0 85 59 145t143 60h736q84 0 143.5 -60t59.5 -145v-1509q0 -85 -59.5 -145.5t-143.5 -60.5h-736q-84 0 -143 60t-59 146zM480 102q0 -38 26.5 -64.5t63.5 -26.5t64 27t27 64t-27 63t-64 26t-63.5 -26t-26.5 -63z" />
<glyph unicode="&#xf035;" horiz-adv-x="1619" d="M0 -49v1560q0 74 52.5 127t126.5 53h1261q74 0 126.5 -53t52.5 -127v-1560q0 -74 -52.5 -127t-126.5 -53h-1261q-74 0 -126.5 53t-52.5 127zM367 553q0 -121 59 -223t161.5 -161.5t222.5 -59.5q184 0 314.5 130t130.5 314t-130.5 314.5t-314.5 130.5q-90 0 -172 -35.5 t-141.5 -95t-94.5 -142t-35 -172.5zM487 568q6 129 99.5 219.5t223.5 90.5q122 0 213 -80.5t108 -199.5q0 -1 -0.5 -3.5t-0.5 -4.5q0 -43 -31 -74t-74 -31q-44 0 -73 29q-111 111 -266 111q-110 0 -199 -57zM1200 1360q0 -37 26.5 -63t63.5 -26t63 26t26 63t-26 63.5 t-63 26.5q-38 0 -64 -26t-26 -64z" />
<glyph unicode="&#xf039;" d="M0 731q0 195 76 373t204.5 306.5t306.5 204.5t373 76t373 -76t306.5 -204.5t204.5 -306.5t76 -373t-76 -372.5t-204.5 -306.5t-306.5 -205t-373 -76t-373 76t-306.5 205t-204.5 306.5t-76 372.5zM360 731q0 -162 80.5 -300.5t218.5 -219t301 -80.5t301 80.5t218.5 219 t80.5 300.5q0 163 -80.5 301t-218.5 218.5t-301 80.5t-301 -80.5t-218.5 -218.5t-80.5 -301zM722 424q202 13 341.5 161t139.5 352q0 55 -11 108q73 -54 115.5 -137t42.5 -177q0 -161 -114.5 -275t-275.5 -114q-133 0 -238 82z" />
<glyph unicode="&#xf03a;" horiz-adv-x="2281" d="M0 350v765q0 127 89 217.5t213 90.5h1125q121 0 208 -86t93 -208l426 272q52 35 89.5 13t37.5 -89v-1184q0 -67 -37.5 -90t-89.5 12l-426 273q-5 -123 -92.5 -208.5t-208.5 -85.5h-1125q-125 0 -213.5 90.5t-88.5 217.5zM1303 1073q0 -37 26.5 -63.5t63.5 -26.5 t63.5 26.5t26.5 63.5t-26.5 63.5t-63.5 26.5t-63.5 -26.5t-26.5 -63.5z" />
<glyph unicode="&#xf03b;" horiz-adv-x="2160" d="M0 83v356h470q56 0 105 20q65 -173 202 -298q-145 -78 -307 -78h-470zM0 1023v355h470q132 0 252 -51.5t206.5 -138t138 -206.5t51.5 -252q0 -120 85.5 -205.5t206.5 -85.5h173q3 0 8 -0.5t8 -0.5v108q0 32 19 43.5t45 -5.5l480 -295q17 -11 17 -28q0 -7 -4 -14.5 t-8 -10.5l-5 -4l-480 -294q-26 -17 -45 -6t-19 43v110q-3 0 -8 -1t-8 -1h-173q-132 0 -252 51.5t-206.5 138t-138 206t-51.5 251.5q0 121 -85.5 207t-206.5 86h-470zM1102 1301q140 77 308 77h173q3 0 8 -0.5t8 -0.5v110q0 32 19 43.5t45 -5.5l480 -296q17 -12 17 -28 q0 -8 -4 -15t-8 -10l-5 -3l-480 -295q-26 -17 -45 -6t-19 43v109q-3 0 -8 -0.5t-8 -0.5h-173q-53 0 -105 -21q-66 175 -203 299z" />
<glyph unicode="&#xf03d;" horiz-adv-x="2651" d="M0 997q0 221 140 408.5t380 296.5t523 109q213 0 406 -64.5t332 -173.5t221.5 -259.5t82.5 -316.5q0 -133 -52.5 -257t-148.5 -224.5t-224 -176t-287.5 -116.5t-329.5 -41q-212 0 -397 61l-238 -166q-133 -85 -187.5 -49.5t-22.5 198.5l48 248q-117 108 -181.5 242.5 t-64.5 280.5zM1331 38q242 48 441 169t324.5 297.5t153.5 381.5q182 -73 291.5 -210t109.5 -301q0 -101 -45 -196t-126 -171l35 -175q20 -114 -17.5 -139t-131.5 35l-167 118q-130 -44 -279 -44q-179 0 -334 63t-255 172z" />
<glyph unicode="&#xf03f;" horiz-adv-x="1853" d="M0 916q2 44 30 85q31 47 80.5 71.5t99.5 20.5q6 0 17 -2q84 -8 154 14q189 61 489 361q111 111 259.5 150t296.5 0t259 -150t150 -259.5t0 -296.5t-150 -259q-83 -83 -147 -157t-104 -129.5t-67.5 -106t-39.5 -84.5t-17 -68t-4 -54t3 -43q2 -12 2 -18q4 -50 -21 -100 t-71 -81q-41 -27 -85 -29.5t-95 12.5q-1 0 -21.5 5t-41.5 11t-59 21t-76.5 33t-90.5 49t-104 68t-115.5 90.5t-125.5 115.5q-56 56 -104.5 112t-84 105t-65 95t-50 86.5t-35.5 74t-25 63t-15 48t-9 34.5t-4 17q-15 51 -13 95zM201 782q10 -61 48 -137.5t107.5 -168.5 t157.5 -180q181 -180 349 -266t226 -27q43 46 4 156.5t-144 246.5q-16 -22 -29 -35q-68 -67 -165 -67t-165 67q-68 68 -68 166t68 166q13 11 34 27q-136 105 -246 144.5t-156 -3.5q-31 -28 -21 -89z" />
<glyph unicode="&#xf040;" d="M0 -49v1560q0 74 53.5 127t127.5 53h240v-360h1080v360h240q74 0 126.5 -53t52.5 -127v-1560q0 -74 -52.5 -127t-126.5 -53h-240v360h-1080v-360h-240q-74 0 -127.5 53t-53.5 127zM151 41v-120h120v120h-120zM151 222h120v120h-120v-120zM151 521h120v120h-120v-120z M151 822h120v120h-120v-120zM151 1121h120v120h-120v-120zM151 1422h120v120h-120v-120zM421 431h1080v600h-1080v-600zM1649 41v-120h120v120h-120zM1649 222h120v120h-120v-120zM1649 521h120v120h-120v-120zM1649 822h120v120h-120v-120zM1649 1121h120v120h-120v-120z M1649 1422h120v120h-120v-120z" />
<glyph unicode="&#xf044;" horiz-adv-x="1890" d="M0 309.5q0 -64.5 46 -111.5l368 -368q40 -40 95 -45t101 25l-196 197l84 84l199 -200l85 85l-200 199l84 84l199 -198l85 83l-199 200l83 83l200 -198l80 80l-200 198l85 85l200 -199l83 84l-199 200l85 84l199 -200l84 85l-200 199l85 84l199 -200l84 85l-198 200l83 83 l200 -199l85 85l-200 199l84 84l196 -195q27 45 21 99t-44 92l-368 369q-47 46 -111.5 46t-111.5 -47l-1208 -1209q-47 -47 -47 -111.5z" />
<glyph unicode="&#xf045;" horiz-adv-x="2512" d="M0 97l278 278l97 -97l450 450q-62 91 -52 203.5t90 193.5q80 80 192.5 89.5t203.5 -53.5l451 452l-97 97l277 277l278 -277l-278 -278l-97 97l-291 -291q136 32 251 32q207 0 397 -79t336 -225q26 -26 26 -63t-26 -63t-63 -26t-63 26q-122 122 -278.5 186.5t-328.5 64.5 q-198 0 -375 -86q30 -81 10.5 -170t-83.5 -153q-65 -64 -153 -83.5t-169 10.5q-77 -160 -86 -336.5t55 -346t194 -299.5q26 -26 26 -62.5t-26 -62.5q-27 -27 -63 -27q-34 0 -61 27q-197 196 -267 459.5t-4 524.5l-293 -292l97 -97l-277 -278zM167 97l111 -111l109 111 l-109 110zM1781 1710l109 -111l110 111l-110 109z" />
<glyph unicode="&#xf047;" horiz-adv-x="1806" d="M0 1512q0 37 26 63q26 25 64 25t64 -25l1627 -1604q26 -25 26 -62t-26 -62q-25 -26 -63 -26t-64 26l-1628 1602q-26 26 -26 63zM243 617v217q0 37 26.5 63t64.5 26q37 0 63.5 -26t26.5 -63v-217q0 -182 131.5 -311.5t316.5 -129.5q121 0 221 57l130 -129 q-116 -76 -256 -98v-87h280q37 0 63.5 -26t26.5 -62q0 -37 -26.5 -63t-63.5 -26h-741q-37 0 -63.5 26t-26.5 63q0 36 26.5 62t63.5 26h280v86q-151 20 -275.5 106t-196 219.5t-71.5 286.5zM539 627v150l460 -452q-63 -26 -127 -26q-138 0 -235.5 96t-97.5 232zM539 1362v31 q0 136 97.5 232t235.5 96t235.5 -96t97.5 -232v-687zM1320 593q0 4 0.5 12t0.5 12v217q0 37 26 63t63 26q38 0 64.5 -26t26.5 -63v-217q0 -87 -27 -176z" />
<glyph unicode="&#xf048;" horiz-adv-x="1257" d="M0 617v217q0 37 26 63t63 26t63.5 -26t26.5 -63v-217q0 -182 132 -311.5t318 -129.5q185 0 316.5 129.5t131.5 311.5v217q0 37 26.5 63t63.5 26t63.5 -26t26.5 -63v-217q0 -231 -153.5 -403.5t-381.5 -207.5v-87h280q37 0 64 -26t27 -62q0 -37 -26.5 -63t-64.5 -26h-740 q-37 0 -63 26t-26 63q0 36 26 62t63 26h281v86q-151 20 -275.5 106t-196 219.5t-71.5 286.5zM296 627v766q0 136 97.5 232t235.5 96q137 0 234 -96t97 -232v-766q0 -136 -97 -232t-234 -96q-138 0 -235.5 96t-97.5 232z" />
<glyph unicode="&#xf04a;" horiz-adv-x="1619" d="M0 -49v1560q0 74 52.5 127t126.5 53h728q7 0 12 -1h1q78 -6 125 -53l522 -502q22 -24 33 -50q4 -10 5 -13q1 -2 4.5 -10t4.5 -13q5 -23 5 -42v-9v-1047q0 -74 -52.5 -127t-126.5 -53h-1261q-74 0 -126.5 53t-52.5 127zM179 -49h1261v953h-272q-149 0 -254.5 105.5 t-105.5 254.5v247h-629v-1560zM989 1264q0 -74 52.5 -126.5t126.5 -52.5h242l-421 398v-219z" />
<glyph unicode="&#xf04f;" d="M0 731q0 195 76 373t204.5 306.5t306.5 204.5t373 76t373 -76t306.5 -204.5t204.5 -306.5t76 -373t-76 -373t-204.5 -306.5t-306.5 -204.5t-373 -76t-373 76t-306.5 204.5t-204.5 306.5t-76 373zM374 733q0 -120 46 -228.5t124 -187.5t186 -125.5t228 -46.5 q160 0 295.5 78.5t214 214t78.5 295.5q0 159 -78.5 293.5t-214 213t-295.5 78.5q-120 0 -228 -46.5t-186 -125t-124 -186.5t-46 -227zM471 707q13 0 35 -1.5t33 -1.5q214 0 440 80q12 -33 30 -69q-126 -44 -231 -124t-177 -190q-125 129 -130 306zM474 806 q19 115 88.5 210.5t172.5 149.5q123 -147 201 -292q-187 -68 -397 -68h-65zM673 333q140 213 368 288q57 -171 72 -354q-69 -25 -155 -25q-148 0 -285 91zM832 1202q74 19 126 19q196 0 339 -138q-123 -108 -271 -173q-77 145 -194 292zM1070 819q149 68 292 188 q87 -130 87 -274q-113 26 -187 26q-62 0 -159 -18q-5 12 -16 39t-17 39zM1135 647q61 10 127 10q86 0 177 -22q-23 -104 -83 -188.5t-149 -135.5q-24 193 -72 336z" />
<glyph unicode="&#xf050;" d="M0 734q0 194 75.5 371t203.5 305.5t305.5 204.5t372.5 76q196 0 374.5 -76t307.5 -204.5t205 -305.5t76 -371q0 -196 -76 -374t-205 -307t-307.5 -205.5t-374.5 -76.5t-373 76.5t-305 205.5t-203.5 307t-75.5 374zM160 693q4 -141 59.5 -270t153.5 -232 q118 180 289.5 311t377.5 203q-23 45 -48 112q-368 -130 -720 -130q-17 0 -54 3t-58 3zM166 853h106q339 0 649 112q-124 234 -330 478q-169 -90 -281.5 -245.5t-143.5 -344.5zM490 79q223 -149 467 -149q135 0 254 43q-26 294 -118 578q-185 -61 -338.5 -182t-264.5 -290z M751 1502q186 -231 319 -478q242 108 442 283q-111 108 -253.5 166t-301.5 58q-92 0 -206 -29zM1141 875q8 -21 25.5 -65t26.5 -64q157 30 261 30q120 0 306 -42q0 232 -142 449q-227 -190 -477 -308zM1247 592q79 -241 118 -549q145 84 244 223t134 309q-147 35 -289 35 q-109 0 -207 -18z" />
<glyph unicode="&#xf051;" d="M0 731q0 195 76 373t205 306.5t306.5 204.5t372.5 76t373 -76t306.5 -204.5t204.5 -306.5t76 -373t-76 -373t-204.5 -306.5t-306.5 -204.5t-373 -76t-372.5 76t-306.5 204.5t-205 306.5t-76 373zM719 731h107v-518h214v518h144l18 179h-161v90q0 40 12 55.5t59 15.5h89 v179h-143q-125 0 -178.5 -59t-53.5 -174v-107h-107v-179z" />
<glyph unicode="&#xf052;" horiz-adv-x="896" d="M0 731h199v-960h396v960h266l35 331h-299v165q0 38 3.5 58.5t16 40t39.5 27t72 7.5h166v331h-265q-230 0 -330 -109t-100 -321v-199h-199v-331z" />
<glyph unicode="&#xf053;" d="M0 731q0 195 76 373t204.5 306.5t306.5 204.5t373 76t372.5 -76t306.5 -204.5t205 -306.5t76 -373t-76 -373t-205 -306.5t-306.5 -204.5t-372.5 -76t-373 76t-306.5 204.5t-204.5 306.5t-76 373zM376 327q0 -64 38.5 -108.5t96.5 -58.5q53 -15 120 -15q251 0 251 210 q0 51 -27 86t-71 50q-3 1 -34.5 10t-48.5 13q-99 25 -99 71q0 49 55 58q86 17 137 79.5t51 150.5q0 25 -12 58q48 13 55 15v141q-87 -33 -151 -33q-57 33 -124 33q-97 0 -163 -64.5t-66 -160.5q0 -58 33.5 -115.5t81.5 -74.5v-3q-42 -20 -42 -96q0 -58 46 -86v-4 q-127 -43 -127 -156zM518 335q0 72 109 72q116 0 116 -69q0 -74 -105 -74q-120 0 -120 71zM533 861q0 101 85 101q40 0 62 -28.5t22 -71.5q0 -95 -84 -95q-85 0 -85 94zM937 1287q0 -41 28 -71t67 -30t67 30.5t28 70.5q0 41 -27.5 71.5t-67.5 30.5t-67.5 -30t-27.5 -72z M954 475h155q-3 45 -3 101v418q0 47 3 86h-155q4 -38 4 -89v-423q0 -51 -4 -93zM1174 949l41 3h14q6 -1 12 -1v-2h-2v-245q0 -84 16 -135q21 -67 76 -89q33 -14 75 -14q70 0 121 28v136q-35 -24 -77 -24q-59 0 -59 92v253h58q17 0 30 -1t30 -1v131h-118q0 92 3 114h-157 q4 -24 4 -61v-53h-67v-131z" />
<glyph unicode="&#xf054;" d="M0 731q0 195 76 373t204.5 306.5t306.5 204.5t373 76t373 -76t306.5 -204.5t204.5 -306.5t76 -373t-76 -373t-204.5 -306.5t-306.5 -204.5t-373 -76t-373 76t-306.5 204.5t-204.5 306.5t-76 373zM405 667q0 -135 40 -218q48 -91 137 -129q95 -44 191 -54q81 -10 190 -10 q61 0 110 3q128 6 226 45q116 49 163 145q40 85 40 218q0 157 -91 263q19 51 19 111q0 75 -33 143q-68 0 -122 -24t-126 -81q-91 22 -186 22q-107 0 -203 -24q-76 59 -129 83t-121 24q-35 -68 -35 -143q0 -52 19 -112q-89 -104 -89 -262zM552 551q0 82 46.5 136.5 t122.5 54.5q29 0 128 -15q43 -7 104 -7q60 0 103 7q103 15 129 15q76 0 122.5 -54.5t46.5 -136.5q0 -57 -21 -101q-39 -79 -134 -107q-81 -24 -191 -24h-111q-58 0 -98 4q-111 12 -173 60q-74 55 -74 168zM657 551q0 -31 9 -54q8 -30 29 -51t47 -21q27 0 48 22q36 42 36 104 q0 30 -8 55q-9 30 -29.5 51t-46.5 21q-27 0 -48 -22q-37 -43 -37 -105zM1080 551q0 -30 8 -54q8 -30 28.5 -51t46.5 -21q28 0 50 22q35 40 35 104q0 30 -8 55q-8 30 -29 51t-48 21t-46 -22q-37 -41 -37 -105z" />
<glyph unicode="&#xf055;" d="M0 640q0 -240 72 -383q77 -152 239 -225q164 -77 335 -95q154 -18 332 -18q77 0 193 6q97 6 206.5 26.5t188.5 53.5q90 38 166 102.5t118 149.5q70 143 70 383q0 274 -157 458q31 93 31 195q0 135 -58 251q-119 0 -212.5 -42t-221.5 -142q-157 37 -324 37 q-182 0 -356 -40q-131 103 -224.5 145t-212.5 42q-59 -115 -59 -251q0 -103 31 -197q-157 -184 -157 -456zM258 437q0 142 81.5 237t214.5 95q53 0 225 -25q88 -13 181 -13t182 13q175 25 225 25q133 0 214 -95t81 -237q0 -101 -37 -178q-37 -74 -92.5 -117.5t-141.5 -69.5 q-142 -43 -334 -43h-194q-95 0 -172 9q-82 8 -165 35t-137 68q-59 46 -95 122.5t-36 173.5zM443 437q0 -47 15 -95q15 -52 51.5 -89.5t81.5 -37.5q48 0 84 39q63 73 63 183q0 46 -13 94q-15 52 -51.5 89.5t-82.5 37.5q-48 0 -84 -40q-64 -69 -64 -181zM1182 437 q0 -47 15 -95q15 -52 51 -89.5t81 -37.5q49 0 85 39q63 73 63 183q0 43 -14 94q-15 52 -51.5 89.5t-82.5 37.5q-48 0 -82 -40q-65 -69 -65 -181z" />
<glyph unicode="&#xf056;" d="M0 731q0 -265 129 -481q129 -223 350 -351t481 -128q261 0 483 128q222 129 349.5 350.5t127.5 481.5q0 264 -128 483q-129 222 -350.5 349.5t-481.5 127.5q-265 0 -481 -129q-223 -129 -351 -350t-128 -481zM160 731q0 160 63 309t172 257q109 109 257 171.5t308 62.5 t309 -62.5t258 -171.5q108 -108 170.5 -257t62.5 -309q0 -172 -70.5 -328t-198 -269.5t-291.5 -164.5v282q0 105 -86 164q211 19 308.5 107t97.5 279q0 148 -91 249q18 54 18 104q0 74 -34 136q-67 0 -120 -22t-130 -76q-93 21 -192 21q-113 0 -211 -23q-75 55 -129.5 77.5 t-123.5 22.5q-33 -63 -33 -136q0 -52 17 -105q-91 -98 -91 -248q0 -191 97 -278t311 -107q-57 -38 -79 -111q-49 -17 -102 -17q-40 0 -69 18q-9 5 -16.5 10.5t-15.5 13.5t-13 12.5t-13 15.5t-10.5 14t-12 16t-10.5 14q-47 62 -112 62q-35 0 -35 -15q0 -6 17 -20 q32 -28 34 -30q24 -19 27 -24q29 -36 44 -79q56 -125 192 -125q22 0 86 10v-212q-164 51 -291.5 164.5t-198 269.5t-70.5 328z" />
<glyph unicode="&#xf057;" d="M0 731q0 195 76 373t204.5 306.5t306.5 204.5t373 76t373 -76t306.5 -204.5t204.5 -306.5t76 -373t-76 -373t-204.5 -306.5t-306.5 -204.5t-373 -76t-373 76t-306.5 204.5t-204.5 306.5t-76 373zM389 323q0 -10 9 -16q13 -10 55 -32q149 -76 313 -76q206 0 372 105 q80 51 142 122.5t98.5 149t54.5 155.5t17 151v22q72 52 112 119q4 6 4 11q0 8 -6.5 14.5t-14.5 6.5l-15 -5q-39 -16 -45 -17q17 20 33.5 50t16.5 44q0 7 -6.5 13t-14.5 6q-4 0 -10 -2q-74 -40 -131 -53q-74 72 -178 72q-105 0 -179 -74t-74 -179q0 -13 2 -31 q-214 20 -371 162q-28 27 -70 72q-7 8 -17 8q-11 0 -15 -10q-36 -50 -36 -128q0 -90 59 -160q-2 0 -20 8q-14 7 -21 7q-10 0 -17 -6t-7 -16q0 -66 33 -123.5t89 -92.5h-3q-2 1 -5 1q-3 1 -8 1q-8 0 -14 -5.5t-6 -13.5q0 -1 2 -7q20 -63 68.5 -108t113.5 -61 q-106 -66 -235 -66q-3 0 -29 2q-7 0 -16 0.5t-11 0.5q-7 0 -13 -6.5t-6 -14.5z" />
<glyph unicode="&#xf058;" d="M0 154q0 -15 15 -27q25 -17 89 -50q244 -126 512 -126q334 0 607 172q130 82 231 197.5t160.5 241t89 251.5t27.5 245v35q117 84 183 192q6 12 6 18q0 13 -10 23t-23 10q-7 0 -24 -8q-12 -4 -29.5 -10t-30 -10.5t-16.5 -5.5q26 29 54 78.5t28 72.5q0 13 -10 22.5t-24 9.5 q-8 0 -16 -5q-114 -61 -213 -83q-121 115 -289 115q-172 0 -293 -120t-121 -290q0 -30 4 -49q-169 14 -326 81t-282 180q-29 28 -112 117q-12 12 -28 12q-12 0 -25 -16q-26 -39 -41 -95.5t-15 -110.5q0 -149 93 -260l-29 14q-25 11 -37 11q-17 0 -28.5 -10t-11.5 -26 q0 -105 54 -199t146 -150l-12 2q-2 0 -5.5 1t-5.5 1.5t-3 0.5q-13 0 -22.5 -10t-9.5 -22q0 -1 2 -11q34 -104 113 -176.5t185 -97.5q-174 -107 -384 -107q-14 0 -45 3q-42 2 -46 2q-13 0 -22.5 -10t-9.5 -23z" />
<glyph unicode="&#xf059;" d="M0 731q0 195 76 373t204.5 306.5t306.5 204.5t373 76t373 -76t306.5 -204.5t204.5 -306.5t76 -373t-76 -373t-204.5 -306.5t-306.5 -204.5t-373 -76q-196 0 -377 77h2q218 0 348 104t130 248q0 95 -50 163q-41 53 -106 104q-36 28 -49 40q-51 43 -51 85q0 52 67 110 q18 17 56 55q68 72 68 190q0 77 -33.5 146.5t-93.5 106.5h114l116 66h-373q-76 0 -159 -17q-120 -26 -200.5 -120.5t-80.5 -213.5q0 -125 90.5 -209t218.5 -84q13 0 59 4q-1 -5 -6.5 -19.5t-6.5 -16.5q-5 -15 -5 -37q0 -57 55 -127q-63 -1 -128 -11q-169 -28 -256 -92 q-45 -33 -74 -80.5t-37 -96.5q-198 257 -198 585zM353 153q0 55 23 92q39 68 143 102q84 28 182 28q23 0 43 -2q4 -2 54 -37q2 -2 14.5 -11t23.5 -17.5t15 -12.5q3 -3 13.5 -13t20 -19t13.5 -15q1 -4 17 -26q12 -17 15 -30q12 -36 12 -65q0 -109 -87 -157q-77 -44 -182 -44 q-113 0 -210 52q-50 26 -80 72t-30 103zM446 1006q0 86 45 143t122 57q54 0 100 -34.5t73 -89.5q54 -114 54 -220q0 -88 -38.5 -138.5t-118.5 -50.5q-42 0 -83 22q-70 43 -114 138q-40 86 -40 173zM1069 939h218v-218h108v218h219v109h-219v218h-108v-218h-218v-109z" />
<glyph unicode="&#xf05a;" d="M0 131q0 -79 35 -139q61 -112 214 -169q130 -52 279 -52t273.5 40t204.5 106.5t124 152t44 178.5q0 129 -69 222q-53 72 -142 139q-30 23 -66 56q-70 58 -70 114q0 66 92 149q31 27 76 74q40 44 65.5 111t25.5 148q0 104 -45.5 196.5t-126.5 143.5h156l155 90h-504 q-109 0 -216 -22q-161 -36 -270 -164t-109 -289q0 -169 122 -283t296 -114q18 0 80 6q-3 -12 -17 -49q-8 -21 -8 -50q0 -79 74 -172q-76 -1 -174 -15q-225 -36 -346 -123q-70 -52 -111.5 -132t-41.5 -153zM214 185q0 69 31 124q56 97 193 139q119 37 247 37q18 0 57 -3 q1 0 33.5 -22.5t40.5 -27.5q28 -19 73 -56q3 -3 18 -17t26.5 -26t17.5 -20q3 -4 6.5 -9.5t8.5 -13.5t9 -13q12 -19 20 -39q16 -50 16 -89q0 -71 -31 -125.5t-86 -85.5q-104 -60 -246 -60q-156 0 -286 71q-68 35 -108 97t-40 139zM339 1338q0 116 61 193.5t165 77.5 q74 0 136 -46t99 -122q72 -152 72 -297q0 -121 -51.5 -188t-159.5 -67q-57 0 -112 30q-92 52 -156 185q-54 117 -54 234zM1182 1249h296v-296h147v296h295v148h-295v294h-147v-294h-296v-148z" />
<glyph unicode="&#xf05b;" d="M0 731q0 195 76 373t204.5 306.5t306.5 204.5t373 76t373 -76t306.5 -204.5t204.5 -306.5t76 -373t-76 -373t-204.5 -306.5t-306.5 -204.5t-373 -76t-373 76t-306.5 204.5t-204.5 306.5t-76 373zM465 422q0 -77 54.5 -131t131.5 -54h619q77 0 131.5 54t54.5 131v619 q0 77 -54.5 131t-131.5 54h-619q-77 0 -131.5 -54t-54.5 -131v-619zM631 422v412q0 8 6 14.5t14 6.5h124q8 0 14 -6.5t6 -14.5v-412q0 -8 -6 -14.5t-14 -6.5h-124q-8 0 -14 6.5t-6 14.5zM631 982q0 32 23.5 56t55.5 24q33 0 56.5 -23.5t23.5 -56.5t-23 -56q-24 -24 -57 -24 q-32 0 -55.5 23t-23.5 57zM837 422v415q0 8 9.5 13t18.5 5h114q23 0 23 -23q0 3 8 8q46 29 103 29q84 0 130.5 -42.5t46.5 -124.5v-280q0 -8 -6 -14.5t-14 -6.5h-120q-9 0 -16.5 6.5t-7.5 14.5v253q0 34 -10.5 48t-40.5 14q-73 0 -73 -90v-225q0 -8 -6 -14.5t-13 -6.5h-118 q-9 0 -18.5 6.5t-9.5 14.5z" />
<glyph unicode="&#xf05c;" d="M0 131v1200q0 149 105.5 254.5t254.5 105.5h1200q149 0 254.5 -105.5t105.5 -254.5v-1200q0 -149 -105.5 -254.5t-254.5 -105.5h-1200q-149 0 -254.5 105.5t-105.5 254.5zM320 131q0 -16 12 -28t28 -12h240q16 0 28 11.5t12 28.5v800q0 16 -12 28t-28 12h-240 q-16 0 -28 -12t-12 -28v-800zM320 1216q0 -64 45 -109.5t109 -45.5q67 0 110 46q45 45 45 109t-45.5 109.5t-109.5 45.5t-109 -45.5t-45 -109.5zM720 131q0 -16 19 -28t38 -12h228q14 0 24.5 12t10.5 28v436q0 175 143 175q59 0 78 -26t19 -94v-491q0 -16 15 -28t33 -12h232 q16 0 28 11.5t12 28.5v543q0 157 -90.5 240.5t-254.5 83.5q-113 0 -197 -57q-17 -10 -18 -15q0 45 -43 45h-220q-20 0 -38.5 -10t-18.5 -25v-805z" />
<glyph unicode="&#xf05d;" d="M0 131v589h441q49 -171 193 -280.5t326 -109.5t326 109.5t193 280.5h441v-589q0 -149 -105.5 -254.5t-254.5 -105.5h-1200q-149 0 -254.5 105.5t-105.5 254.5zM0 1019v312q0 149 105.5 254.5t254.5 105.5h1200q149 0 254.5 -105.5t105.5 -254.5v-312h-441 q-49 171 -193 281t-326 110t-326 -110t-193 -281h-441zM661 870q0 -125 87.5 -212.5t211.5 -87.5q125 0 213 88t88 212t-88 212t-213 88q-124 0 -211.5 -87.5t-87.5 -212.5z" />
<glyph unicode="&#xf05e;" d="M0 731q0 195 76 373t204.5 306.5t306.5 204.5t373 76t373 -76t306.5 -204.5t204.5 -306.5t76 -373t-76 -373t-204.5 -306.5t-306.5 -204.5t-373 -76t-373 76t-306.5 204.5t-204.5 306.5t-76 373zM551 465q0 -64 44.5 -109t108.5 -45h512q64 0 108.5 45t44.5 109v252h-188 q-20 -73 -81.5 -120t-139.5 -47t-139 47t-83 120h-187v-252zM551 845h187q22 73 83 119t139 46t139.5 -46t81.5 -119h188v132q0 64 -44.5 108.5t-108.5 44.5h-512q-64 0 -108.5 -44.5t-44.5 -108.5v-132zM832 781q0 -53 37.5 -90.5t90.5 -37.5t90.5 37.5t37.5 90.5 t-37.5 90.5t-90.5 37.5t-90.5 -37.5t-37.5 -90.5z" />
<glyph unicode="&#xf05f;" horiz-adv-x="2339" d="M0 1115q0 -90 65.5 -153.5t157.5 -63.5h257v-767l1175 767h462q92 0 157 63.5t65 153.5q0 89 -65 152.5t-157 63.5h-597l-595 -388v388h-702q-92 0 -157.5 -63.5t-65.5 -152.5z" />
<glyph unicode="&#xf060;" d="M0 731q0 195 76 373t204.5 306.5t306.5 204.5t373 76t373 -76t306.5 -204.5t204.5 -306.5t76 -373t-76 -372.5t-204.5 -306.5t-306.5 -205t-373 -76t-373 76t-306.5 205t-204.5 306.5t-76 372.5zM334 825q0 -49 35 -84t84 -35h138v-423l630 423h246q49 0 84 35t35 84 t-35 84.5t-84 35.5h-320l-318 -215v215h-376q-49 0 -84 -35.5t-35 -84.5z" />
<glyph unicode="&#xf061;" horiz-adv-x="2099" d="M0 -229q0 18 2 47.5t22 95t56 101.5q35 35 139 77t235 88.5t192 77.5q77 39 119.5 114t42.5 156q0 55 -66 130q-67 77 -108.5 209.5t-41.5 305.5q0 130 37 231.5t101 162.5t145.5 92.5t174.5 31.5t173.5 -31.5t145 -92.5t101.5 -162.5t37 -231.5q0 -173 -41 -305.5 t-108 -209.5q-67 -76 -67 -130q0 -80 43 -155.5t120 -114.5q61 -31 192 -77.5t234 -88.5t138 -77q36 -36 56 -97t22 -104l3 -43h-2099z" />
<glyph unicode="&#xf062;" horiz-adv-x="2002" d="M0 -229q0 18 2 46t21.5 91.5t54.5 98.5q34 34 132 74.5t222.5 85.5t183.5 75q74 36 114 109.5t40 151.5q0 55 -63 126q-37 44 -64 120q-89 37 -89 149q0 83 29 120q-8 56 -18 165q-2 16 -4.5 42.5t5 90.5t31.5 108q38 67 96.5 92.5t95.5 9.5q1 0 1 1q2 10 9 26.5t29 44 t51 42.5q16 8 52 12.5t87.5 1t107 -15.5t111 -43.5t99.5 -77.5t72.5 -121.5t29.5 -171.5q1 -21 0 -41q-8 -92 -19 -165q29 -37 29 -120q0 -112 -89 -149q-27 -76 -64 -120q-63 -71 -63 -126q0 -78 40 -151.5t114 -109.5q59 -30 183.5 -75t223 -85.5t132.5 -74.5 q35 -35 54 -94t21 -101l2 -41h-2002z" />
<glyph unicode="&#xf063;" horiz-adv-x="2038" d="M0 -229q0 18 2 46.5t22 92.5t55 100q34 35 134 76.5t227 87.5t187 76q66 34 106.5 97t48.5 133h-166q-4 18 -10 48.5t-20 121.5t-24 177t-14.5 197t1.5 199.5t30.5 166.5t67.5 116q38 39 85.5 52.5t69.5 -0.5q2 0 3 1q0 3 5 16q26 69 85 98q36 19 127 16q4 0 14 -0.5 t14 -0.5h3q51 -4 115 -22q55 -16 102 -41t95.5 -71.5t81.5 -108t51 -154.5t12 -206q-7 -137 -19 -250t-23 -176t-21.5 -106t-16.5 -58l-7 -15h-166q8 -71 48 -133.5t106 -96.5q60 -30 187 -76t227.5 -87.5t134.5 -76.5q35 -36 55 -95.5t22 -101.5l2 -42h-2039z" />
<glyph unicode="&#xf064;" horiz-adv-x="2460" d="M0 114q40 16 122 45.5t142.5 53.5t102.5 45q75 39 117 114.5t42 156.5q0 55 -64 130q-38 43 -67 124q-92 36 -92 155q0 88 28 125q-10 80 -18 169q-9 113 54.5 220.5t172 173t225.5 65.5q88 0 173.5 -39.5t148.5 -102.5t99.5 -147.5t29.5 -169.5q-10 -114 -18 -169 q29 -38 29 -125q0 -118 -92 -155q-31 -84 -66 -124q-66 -75 -66 -130q0 -81 42 -156.5t118 -114.5q61 -31 190 -77.5t231 -88.5t136 -77q36 -36 56 -97t22 -104l2 -43h-1800v343zM1445 727q0 71 24 102q-11 67 -15 138q-7 93 44.5 183t140.5 146.5t184 56.5t184 -56.5 t140.5 -146.5t44.5 -183q-4 -71 -15 -138q24 -31 24 -102q0 -97 -75 -127q-23 -67 -54 -102q-18 -21 -26.5 -32.5t-18 -33t-9.5 -41.5q0 -65 34.5 -127.5t96.5 -93.5q36 -18 87.5 -38.5t121.5 -45.5t103 -38v-277h-520q0 8 -0.5 22t-6 53t-15 74.5t-29.5 77t-47 68.5 q-49 50 -109 89.5t-163 76.5q56 69 56 159q0 20 -9.5 41.5t-17.5 33t-25 32.5q-28 31 -55 101q-75 33 -75 128z" />
<glyph unicode="&#xf067;" d="M0 127v1049q0 72 53.5 123.5t127.5 51.5h60q6 68 57.5 114.5t122.5 46.5h400q71 0 122.5 -46.5t56.5 -114.5h739q75 0 128 -51.5t53 -123.5v-1049q0 -72 -53 -124t-128 -52h-1558q-74 0 -127.5 52t-53.5 124z" />
<glyph unicode="&#xf068;" horiz-adv-x="2145" d="M0 131v1042q0 72 51.5 122.5t123.5 50.5h59q5 67 55 113.5t119 46.5h390q68 0 118 -46.5t55 -113.5h719q72 0 123.5 -50.5t51.5 -122.5v-174h135q72 0 113.5 -51t28.5 -123l-203 -694q-13 -72 -74.5 -123t-134.5 -51h-1555q-72 0 -123.5 51t-51.5 123zM175 479l100 346 q14 72 75.5 123t134.5 51h1205v174h-1515v-694zM256 131h1474q10 0 23 10.5t15 21.5l1 8l2 8l188 646h-1474q-9 0 -22.5 -10.5t-14.5 -21.5l-1 -8l-2 -8z" />
<glyph unicode="&#xf069;" d="M0 127v1049q0 72 53.5 123.5t127.5 51.5h61q5 68 56.5 114.5t122.5 46.5h401q71 0 122 -46.5t56 -114.5h741q74 0 126.5 -51.5t52.5 -123.5v-1049q0 -72 -52.5 -124t-126.5 -52h-1560q-74 0 -127.5 52t-53.5 124zM181 127h1560v1049h-1560v-1049z" />
<glyph unicode="&#xf06a;" horiz-adv-x="1699" d="M0 113q0 -141 99 -242q100 -100 240 -100t240 100l987 992q133 133 133 326q0 191 -133 324t-322.5 133t-322.5 -133l-751 -755l112 -115l751 756q88 88 211 88t211 -88q87 -87 87 -210t-87 -212l-988 -992q-53 -53 -128 -53t-128 53q-52 52 -52 128t52 128l822 828 q18 18 43.5 18t43.5 -18q17 -17 17 -43q0 -25 -17 -42l-617 -622l112 -114l616 622q65 65 65 156q0 94 -65 157q-64 65 -154.5 65t-154.5 -65l-823 -828q-99 -101 -99 -242z" />
<glyph unicode="&#xf06d;" d="M0 731q0 195 76 373t204.5 306.5t306.5 204.5t373 76t373 -76t306.5 -204.5t204.5 -306.5t76 -373t-76 -373t-204.5 -306.5t-306.5 -204.5t-373 -76t-373 76t-306.5 204.5t-204.5 306.5t-76 373zM362 667q0 -45 31 -77l314 -313q29 -32 77 -32q45 0 77 32l645 645 q32 32 32 77t-32 76t-77 31t-77 -31l-568 -568l-237 236q-31 32 -76.5 32t-77.5 -32q-31 -31 -31 -76z" />
<glyph unicode="&#xf06e;" d="M0 731q0 195 76 373t204.5 306.5t306.5 204.5t373 76t373 -76t306.5 -204.5t204.5 -306.5t76 -373t-76 -373t-204.5 -306.5t-306.5 -204.5t-373 -76t-373 76t-306.5 204.5t-204.5 306.5t-76 373zM534 413q0 -45 32 -76q31 -32 75 -32q45 0 77 32l242 242l243 -242 q31 -32 76 -32q44 0 76 32q31 31 31 76t-31 76l-243 242l243 244q31 31 31 76t-31 76t-76 31t-76 -31l-243 -244l-242 244q-32 31 -76.5 31t-75.5 -31q-32 -31 -32 -76t32 -76l242 -244l-242 -242q-32 -31 -32 -76z" />
<glyph unicode="&#xf070;" horiz-adv-x="2281" d="M0 391v392q0 55 39 104l211 276q49 69 131 69h1520q81 0 130 -69l211 -276q39 -49 39 -104v-392q0 -66 -47 -113t-113 -47h-1961q-66 0 -113 47t-47 113zM258.5 794.5q14.5 -25.5 56.5 -25.5h432q0 -66 46.5 -113t112.5 -47h469q66 0 112.5 47t46.5 113h432q42 0 56 25.5 t-8 60.5l-113 184q-23 36 -68.5 61.5t-87.5 25.5h-1209q-42 0 -87 -25.5t-68 -61.5l-115 -184q-22 -35 -7.5 -60.5z" />
<glyph unicode="&#xf074;" horiz-adv-x="1693" d="M0 1132q1 71 37 130q41 67 117.5 98t167.5 17q-2 66 -2 102q0 91 141.5 151.5t385.5 60.5q243 0 384.5 -60.5t141.5 -151.5q0 -3 -3 -102q91 14 168 -17t119 -98q36 -59 36.5 -130t-34.5 -141q-27 -54 -93.5 -104t-192.5 -125q-73 -44 -108.5 -66.5t-95.5 -64t-99 -78.5 t-64 -74q-25 -50 -25 -116q0 -100 65.5 -189.5t151.5 -115.5q84 -26 113.5 -55t29.5 -89t-137.5 -101.5t-356.5 -41.5t-357 41.5t-138 101.5t29.5 89t113.5 55q86 26 151.5 115.5t65.5 189.5q0 66 -25 116q-20 30 -54 63t-63.5 56.5t-84.5 60t-79.5 51.5t-85.5 52 q-85 50 -130.5 80t-91.5 70.5t-65 78.5q-34 70 -33 141zM185 1170q-25 -38 4 -100q19 -37 203 -148q-39 118 -57 273q-4 1 -13 4t-13 4q-37 5 -41 5q-59 0 -83 -38zM515 1471q0 -40 97 -68t235 -28q137 0 233.5 28t96.5 68t-96.5 68t-233.5 28t-234.5 -28t-97.5 -68z M1301 922q184 111 203 148q29 61 5 100q-33 51 -125 33q-8 -2 -26 -8q-19 -162 -57 -273z" />
<glyph unicode="&#xf075;" horiz-adv-x="1412" d="M0 -47v805q0 29 20.5 48.5t50.5 19.5h920v305q0 130 -86 221q-85 87 -199 87t-199 -87q-85 -90 -85 -221v-78h-259v78q0 112 41.5 214t115.5 180q73 78 173.5 122t212.5 44t213 -44t174 -122q74 -78 115 -180t41 -214v-305h93q30 0 50.5 -19.5t20.5 -48.5v-805 q0 -26 -16.5 -39t-54.5 -29q-20 -9 -71 -25t-135.5 -37.5t-200.5 -36.5t-229 -15q-317 0 -635 114q-34 11 -52.5 26.5t-18.5 41.5zM383 302.5q0 -24.5 17 -41.5l175 -171q17 -17 42 -17q27 0 42 17l359 351q18 18 18 42.5t-18 42.5q-17 17 -42 17t-42 -17l-317 -310 l-131 128q-18 18 -43 18t-43 -18q-17 -17 -17 -41.5z" />
<glyph unicode="&#xf07b;" horiz-adv-x="1817" d="M16.5 212q-35.5 135 0 270t136.5 236l269 268q101 101 235.5 136.5t269.5 0t236 -136.5q42 -42 42 -101.5t-42 -101.5t-101.5 -42t-101.5 42q-70 70 -168 70t-166 -70l-269 -269q-68 -70 -68 -167.5t68 -167.5q70 -68 167 -68t167 68l55 56q159 -77 336 -72l-187 -187 q-101 -101 -236 -136.5t-270 0t-236 136.5t-136.5 236zM612 579.5q0 59.5 43 101.5q42 42 101.5 42t101.5 -42q68 -70 166 -70t168 70l269 269q70 70 70 167.5t-70 165.5q-68 70 -166 70t-168 -70l-56 -54q-158 75 -335 72l187 187q101 100 236 135.5t270 0t235 -135.5 q101 -101 136.5 -236t0 -270t-136.5 -236l-269 -268q-101 -101 -236 -137t-269.5 0t-234.5 137q-43 42 -43 101.5z" />
<glyph unicode="&#xf07e;" horiz-adv-x="2142" d="M23 785.5q-49 185.5 0 371t188 323.5q104 104 236.5 157.5t273.5 53.5q142 0 274 -53.5t236 -157.5q111 -110 165 -254.5t45.5 -294t-76.5 -284.5q64 -21 106 -63l372 -373q76 -76 76 -182t-76 -182t-181 -76q-107 0 -183 76l-373 372q-41 41 -63 107q-154 -76 -322 -76 q-141 0 -273.5 53.5t-236.5 157.5q-139 139 -188 324.5zM242 971q0 -200 140 -340q68 -68 155.5 -104.5t183.5 -36.5q201 0 340 141q68 67 104.5 155t36.5 184q0 200 -141 341q-140 140 -340 140q-199 0 -339 -140t-140 -340zM1521 1381q0 25 18 42.5t42 17.5h192v191 q0 25 17 42t42 17t42 -17t17 -42v-191h192q24 0 42 -17.5t18 -42.5t-18 -42.5t-42 -17.5h-192v-191q0 -25 -17 -42.5t-42 -17.5q-24 0 -42 18q-17 17 -17 42v191h-192q-24 0 -43 17q-17 19 -17 43z" />
<glyph unicode="&#xf07f;" horiz-adv-x="2142" d="M23 785.5q-49 185.5 0 371t188 323.5q104 104 236.5 157.5t273.5 53.5q142 0 274 -53.5t236 -157.5q111 -110 165 -254.5t45.5 -294t-76.5 -284.5q64 -21 106 -63l372 -373q76 -76 76 -182t-76 -182t-181 -76q-107 0 -183 76l-373 372q-46 46 -63 107q-155 -76 -322 -76 q-141 0 -273.5 53.5t-236.5 157.5q-139 139 -188 324.5zM242 971q0 -200 140 -340q68 -68 155.5 -104.5t183.5 -36.5t184.5 36.5t155.5 104.5q68 67 104.5 155t36.5 184q0 200 -141 341q-67 67 -155.5 103.5t-184.5 36.5q-199 0 -339 -140t-140 -340zM1521 1381 q0 25 17.5 42.5t42.5 17.5h501q25 0 43 -17.5t18 -42.5t-18 -42.5t-43 -17.5h-501q-24 0 -43 17q-17 19 -17 43z" />
<glyph unicode="&#xf080;" horiz-adv-x="1682" d="M0 23v1415q0 54 38.5 93.5t92.5 41.5h1421q54 0 92 -39t38 -94v-1415q0 -55 -38 -94t-92 -41h-1421q-54 0 -92.5 39t-38.5 94z" />
<glyph unicode="&#xf081;" d="M0 198v1005q0 143 101.5 244.5t244.5 101.5h265q58 0 98 -40t40 -96q0 -58 -40 -98t-98 -40h-265q-30 0 -51 -21t-21 -51v-1005q0 -29 21 -50.5t51 -21.5h1205q30 0 51 21.5t21 50.5v123q0 56 40 96.5t96 40.5q57 0 97 -40t40 -97v-123q0 -143 -101 -244t-244 -101h-1205 q-143 0 -244.5 101t-101.5 244zM499 383q93 166 248.5 270.5t343.5 121.5q86 5 150 -4v-211q0 -46 23.5 -62t54.5 8l580 424q21 16 21 40q0 11 -5 21t-11 15l-5 5l-580 423q-31 25 -54.5 9.5t-23.5 -61.5v-174q-13 0 -41 -2q-148 -13 -279.5 -84t-224.5 -180.5 t-146.5 -255.5t-50.5 -303z" />
<glyph unicode="&#xf082;" d="M0 731q0 61 31.5 138t88.5 158.5t144 159.5t189.5 139.5t235 99t271.5 37.5t271.5 -37.5t235 -99t189.5 -139.5t144 -159.5t88.5 -158.5t31.5 -138q0 -60 -31.5 -137t-88.5 -158.5t-144 -159t-189.5 -139t-235 -99t-271.5 -37.5t-271.5 37.5t-235 99t-189.5 139t-144 159 t-88.5 158.5t-31.5 137zM480 731q0 -130 64.5 -240t175 -174t240.5 -64t240.5 64t175 174t64.5 240t-64.5 240.5t-175 175t-240.5 64.5t-240.5 -64.5t-175 -175t-64.5 -240.5zM759 731q0 -83 59 -142t142 -59t142 59t59 142q0 84 -59 143.5t-142 59.5t-142 -59.5t-59 -143.5 z" />
<glyph unicode="&#xf083;" horiz-adv-x="1812" d="M0 1416q0 75 121 138t330 100t455 37q247 0 456 -37t330 -100t121 -138q-21 -165 -79 -466t-113.5 -565t-58.5 -283q-13 -74 -81.5 -138t-165 -105t-204.5 -64.5t-205 -23.5t-205 23.5t-204 64.5t-164.5 105t-81.5 138q-8 43 -67 328.5t-114 570t-70 415.5zM259 958 l77 -375l178 154zM270 1355q0 -65 186 -110.5t450 -45.5q265 0 451 45.5t186 110.5q0 66 -186.5 112t-450.5 46t-450 -46t-186 -112zM383 355l43 -210l101 87zM399 993l207 -178l146 127q-194 12 -353 51zM410 489l207 -179l197 169l-208 179zM511 61q146 -62 304 -77 l-198 169zM696 737l208 -179l197 169l-204 183zM709 232l209 -181l194 171l-208 179zM995 479l207 -178l189 164l-201 182zM1024 -14q145 17 275 73l-96 84zM1041 941l150 -136l217 187q-162 -41 -367 -51zM1280 725l191 -172l84 408zM1294 222l92 -80l40 196z" />
<glyph unicode="&#xf084;" horiz-adv-x="2057" d="M0 365v409q0 53 35 93h-1l191 251q43 61 118 61h135q229 62 551 62q321 0 550 -62h135q75 0 118 -61l191 -251h-1q35 -40 35 -93v-409q0 -59 -42 -101t-101 -42h-1770q-60 0 -102 42t-42 101zM203 488q0 -32 22.5 -54.5t54.5 -22.5h181q31 0 53.5 22.5t22.5 54.5 t-22.5 54.5t-53.5 22.5h-181q-32 0 -54.5 -22.5t-22.5 -54.5zM352 971q0 -46 90.5 -84.5t246.5 -61t340 -22.5t339.5 22.5t246 61t90.5 84.5t-90.5 84.5t-246 61t-339.5 22.5t-340 -22.5t-246.5 -61t-90.5 -84.5zM651 488q0 -32 22.5 -54.5t54.5 -22.5h22q31 0 53.5 22.5 t22.5 54.5t-22.5 54.5t-53.5 22.5h-22q-32 0 -54.5 -22.5t-22.5 -54.5zM826 971q0 20 60 35.5t143 15.5q82 0 141.5 -15.5t59.5 -35.5t-59 -35t-142 -15q-84 0 -143.5 15t-59.5 35z" />
<glyph unicode="&#xf085;" d="M0 731q0 196 76 373.5t204.5 306t306 204.5t373.5 76q195 0 373 -76t306.5 -204.5t204.5 -306t76 -373.5q0 -195 -76 -373t-204.5 -306.5t-306.5 -204.5t-373 -76q-196 0 -373.5 76t-306 204.5t-204.5 306.5t-76 373zM816 1079q0 -59 39.5 -94t104.5 -35q66 0 105 35 t39 94t-39 93.5t-105 34.5q-65 0 -104.5 -35t-39.5 -93zM825 256h271v613h-271v-613z" />
<glyph unicode="&#xf086;" d="M0 731q0 196 76 373.5t204.5 306t306 204.5t373.5 76q195 0 373 -76t306.5 -204.5t204.5 -306t76 -373.5q0 -195 -76 -373t-204.5 -306.5t-306.5 -204.5t-373 -76q-196 0 -373.5 76t-306 204.5t-204.5 306.5t-76 373zM240 731q0 -146 57 -279.5t153.5 -230t230 -153.5 t279.5 -57t279.5 57t230 153.5t153.5 230t57 279.5t-57 279.5t-153.5 230t-230 153.5t-279.5 57t-279.5 -57t-230 -153.5t-153.5 -230t-57 -279.5zM816 1079q0 58 39.5 93t104.5 35q66 0 105 -34.5t39 -93.5t-39 -94t-105 -35q-65 0 -104.5 35t-39.5 94zM825 256v613h271 v-613h-271z" />
<glyph unicode="&#xf087;" d="M0 203v1048q0 72 53.5 123.5t127.5 51.5h120v29q0 73 52.5 124t126.5 51h960q74 0 126.5 -51t52.5 -124v-41q0 2 1.5 5.5t1.5 6.5h117q74 0 127.5 -51.5t53.5 -123.5v-1048q0 -72 -53 -123t-128 -51h-120v-20q0 -73 -52.5 -124.5t-126.5 -51.5h-960q-74 0 -126.5 51.5 t-52.5 124.5v20h-120q-75 0 -128 51t-53 123zM421 9q0 -23 17 -39.5t42 -16.5h960q25 0 43 16.5t18 39.5v694q-43 24 -92 24h-899q-47 0 -89 -24v-694zM421 1263q31 -12 60 -12h960q25 0 60 11v193q0 23 -18 39t-43 16h-960q-25 0 -42 -16t-17 -39v-192z" />
<glyph unicode="&#xf088;" d="M0 114l465 1235h300l426 -1132l251 669h188l290 -772h-197l-53 156h-276l-55 -156h-425l-87 249h-438l-88 -249h-301zM454 589h307l-153 442zM1435 410h192l-96 278z" />
<glyph unicode="&#xf089;" horiz-adv-x="2148" d="M0 350q0 -40 29 -60.5t62 -14.5q31 6 43.5 22t12.5 53v290q0 31 -21.5 52.5t-52.5 21.5q-30 0 -51.5 -21.5t-21.5 -52.5v-290zM230 226q0 -29 20.5 -43.5t52.5 -14.5q33 0 53.5 14.5t20.5 43.5v676q0 30 -21.5 51.5t-52.5 21.5q-30 0 -51.5 -21.5t-21.5 -51.5v-676z M459 194q0 -29 21 -43.5t54 -14.5q32 0 52.5 14.5t20.5 43.5v617q0 31 -21.5 53t-51.5 22q-31 0 -53 -22t-22 -53v-617zM689 191q0 -55 74 -55t74 55v1000q0 84 -51 95q-33 8 -65 -19t-32 -76v-1000zM923 162v6v1082q0 52 31 62q67 16 133 16q153 0 285 -72t213.5 -196.5 t94.5 -274.5q61 26 130 26q140 0 239.5 -99t99.5 -238q0 -140 -99.5 -239t-238.5 -98h-870q-9 3 -13.5 11t-4.5 14z" />
<glyph unicode="&#xf08a;" d="M0 731q0 195 76 373t204.5 306.5t306.5 204.5t373 76t373 -76t306.5 -204.5t204.5 -306.5t76 -373t-76 -373t-204.5 -306.5t-306.5 -204.5t-373 -76t-373 76t-306.5 204.5t-204.5 306.5t-76 373zM337 555q0 -23 17 -34.5t37 -8.5q18 4 25 12.5t7 30.5v168q0 18 -12 30.5 t-30 12.5t-31 -12.5t-13 -30.5v-168zM471 483q0 -16 12 -25t30 -9q19 0 31.5 9t12.5 25v391q0 18 -13 31t-31 13q-17 0 -29.5 -13t-12.5 -31v-391zM603 465q0 -33 44 -33q42 0 42 33v358q0 18 -12.5 30t-29.5 12q-18 0 -31 -12t-13 -30v-358zM737 463q0 -31 42 -31 q44 0 44 31v579q0 48 -30 55q-19 5 -37.5 -10.5t-18.5 -44.5v-579zM872 449q-2 -12 11 -17h503q82 0 139 56.5t58 138.5q0 81 -57.5 138.5t-139.5 57.5q-37 0 -75 -16q-11 133 -110 224t-233 91q-40 0 -78 -9q-18 -7 -18 -36v-628z" />
<glyph unicode="&#xf4ac;" horiz-adv-x="2160" d="M0 842q0 138 54.5 266.5t154.5 233t232.5 182.5t297.5 121t341 43t341 -43t297.5 -121t232.5 -182.5t154.5 -233t54.5 -266.5q0 -172 -85.5 -328t-230 -269t-344.5 -180t-420 -67q-215 0 -413 64l-246 -174q-138 -87 -194 -50.5t-25 205.5l51 256q-121 112 -187 251 t-66 292z" />
<glyph unicode="&#xf4b3;" d="M0 181v1102q0 62 46.5 107t111.5 45h1607q65 0 110 -44t45 -108v-1102q0 -62 -45.5 -107t-109.5 -45h-1607q-65 0 -111.5 45t-46.5 107zM158 182h1607v1103h-1607v-1103zM327 374q0 22 9.5 36.5t23.5 14.5h367q14 0 24 -14.5t10 -36.5t-10 -37.5t-24 -15.5h-367 q-14 0 -23.5 15.5t-9.5 37.5zM327 565q0 22 9.5 36.5t23.5 14.5h659q14 0 24 -15t10 -36q0 -22 -10 -37.5t-24 -15.5h-659q-14 0 -23.5 15.5t-9.5 37.5zM327 801v162q0 28 19.5 48t47.5 20h197q28 0 47.5 -20t19.5 -48v-162q0 -28 -19.5 -47.5t-47.5 -19.5h-197 q-28 0 -47.5 19.5t-19.5 47.5zM406 811h173v141h-173v-141zM1109 565q0 21 10 36t24 15h137q14 0 24 -14.5t10 -36.5t-10 -37.5t-24 -15.5h-137q-14 0 -24 15.5t-10 37.5zM1371 565q0 22 10.5 36.5t24.5 14.5h137q14 0 24 -14.5t10 -36.5t-10 -37.5t-24 -15.5h-137 q-14 0 -24.5 15.5t-10.5 37.5z" />
<glyph unicode="&#xf4c2;" horiz-adv-x="2144" d="M0 131v1042q0 72 51 122.5t124 50.5h59q5 67 55 113.5t119 46.5h390q68 0 118 -46.5t55 -113.5h719q72 0 123.5 -50.5t51.5 -122.5v-174h135q72 0 113.5 -51t27.5 -123l-202 -694q-13 -72 -74.5 -123t-134.5 -51h-1555q-73 0 -124 51t-51 123zM256 131h1474 q9 0 22.5 10.5t14.5 21.5l4 16l188 646h-1474q-9 0 -22.5 -10.5t-14.5 -21.5l-5 -16z" />
<glyph unicode="&#xf4c5;" d="M0 -49v1560q0 74 53.5 127t127.5 53h1560q74 0 126.5 -53t52.5 -127v-1560q0 -74 -52.5 -127t-126.5 -53h-1560q-74 0 -127.5 53t-53.5 127zM181 -49h1560v1080h-1560v-1080zM304 71v360h360v-360h-360zM304 551v360h360v-360h-360zM784 71v360h360v-360h-360zM784 551 v360h360v-360h-360zM1264 71v360h360v-360h-360zM1264 551v360h360v-360h-360z" />
<glyph unicode="&#xf4f0;" d="M0 146v1171q0 80 57 137t137 57h1145q80 0 137.5 -57t57.5 -137v-131h192q80 0 137 -57t57 -137v-846q0 -80 -57 -137t-137 -57h-1532q-80 0 -137 57t-57 137zM179 234q1 -41 29.5 -70t69.5 -31h1061q13 0 15 13v1081q0 43 -30.5 73t-73.5 30h-967q-43 0 -73 -29.5 t-31 -71.5v-995zM330 377q0 37 27 63.5t64 26.5h272q37 0 63.5 -26.5t26.5 -63.5t-26.5 -63.5t-63.5 -26.5h-272q-37 0 -64 26.5t-27 63.5zM330 731q0 37 27 64t64 27h692q37 0 63.5 -26.5t26.5 -64.5q0 -37 -26.5 -63.5t-63.5 -26.5h-692q-37 0 -64 26.5t-27 63.5z M330 1086q0 37 26.5 63.5t64.5 26.5h692q37 0 63.5 -26t26.5 -64q0 -37 -26.5 -64t-63.5 -27h-692q-37 0 -64 27t-27 64zM1534 233q1 -41 28.5 -69.5t68.5 -30.5h11q41 2 69 31t28 71v757q0 15 -13 15h-192v-774z" />
<glyph unicode="&#xf4f7;" horiz-adv-x="2160" d="M0 210v1041q0 133 95.5 226.5t229.5 93.5h1510q134 0 229.5 -93.5t95.5 -226.5v-1041q0 -132 -95.5 -225.5t-229.5 -93.5h-1510q-134 0 -229.5 93.5t-95.5 225.5zM234 1251q0 -37 26.5 -63t64.5 -26q37 0 63.5 26t26.5 63t-26.5 64t-63.5 27t-64 -27t-27 -64zM601 749 q0 -130 64.5 -240.5t175 -175t240.5 -64.5t240.5 64.5t175 175t64.5 240.5t-64.5 240.5t-175 175t-240.5 64.5t-240.5 -64.5t-175 -175t-64.5 -240.5zM781 749q0 -125 88 -213t212 -88t212 88t88 213q0 124 -87.5 211.5t-212.5 87.5t-212.5 -87.5t-87.5 -211.5z" />
<glyph unicode="&#xf50d;" horiz-adv-x="1828" d="M22 782.5q-47 177.5 0 354.5t179 308q99 99 225.5 150.5t261.5 51.5q134 0 260.5 -51.5t225.5 -150.5q106 -106 157 -243.5t43 -280.5t-73 -271q58 -17 100 -59l357 -356q71 -72 71 -173.5t-71 -173.5q-72 -72 -174 -72t-174 72l-355 355q-44 42 -61 102 q-143 -73 -306 -73q-135 0 -261.5 51t-225.5 150q-132 132 -179 309.5zM230 958.5q0 -190.5 133 -323.5q134 -134 325 -134q189 0 323 134t134 324t-134 324q-136 134 -323 134q-189 0 -325 -134q-133 -134 -133 -324.5z" />
<glyph unicode="&#xf510;" horiz-adv-x="1412" d="M0 -47v805q0 29 20.5 48.5t50.5 19.5h92v305q0 112 41.5 214t115.5 180q73 78 173.5 122t212.5 44t213 -44t174 -122q74 -78 115 -180t41 -214v-305h93q30 0 50.5 -19.5t20.5 -48.5v-805q0 -26 -16.5 -39t-54.5 -29q-20 -9 -71 -25t-135.5 -37.5t-200.5 -36.5t-229 -15 q-317 0 -635 114q-34 11 -52.5 26.5t-18.5 41.5zM422 826h569v305q0 130 -86 221q-85 87 -199 87t-199 -87q-85 -90 -85 -221v-305zM480 141q0 -23 17 -40q18 -18 40 -18q24 0 40 18l129 128l129 -128q16 -18 40 -18q22 0 40 18q17 17 17 40.5t-17 39.5l-129 129l129 128 q17 17 17 40.5t-17 40.5t-40 17t-40 -17l-129 -129l-129 129q-17 17 -40 17t-40 -17t-17 -40.5t17 -40.5l129 -128l-129 -129q-17 -17 -17 -40z" />
<glyph unicode="&#xf512;" horiz-adv-x="1411" d="M0 -47v806q0 29 20.5 49.5t49.5 20.5h93v304q0 111 41 212.5t115 179.5q74 79 174 122.5t213 43.5q112 0 212.5 -44t174.5 -122q73 -78 114 -179.5t41 -212.5v-304h94q29 0 49 -20.5t20 -49.5v-806q0 -14 -4.5 -24t-16 -18t-20 -12.5t-28.5 -13.5q-39 -16 -109.5 -37.5 t-226 -49t-301.5 -27.5q-309 0 -635 114q-34 12 -52 27t-18 41zM422 829h568v304q0 129 -86 220q-82 85 -198 87q-117 -1 -199 -87q-85 -90 -85 -220v-304z" />
<glyph unicode="&#xf513;" horiz-adv-x="2189" d="M65 749v384q0 111 40 212.5t112 179.5q73 79 171.5 122.5t208.5 43.5t208.5 -44t170.5 -122t112 -179t40 -213v-304h927q29 0 49.5 -20.5t20.5 -49.5v-806q0 -18 -10.5 -31t-21.5 -19t-38 -18q-22 -9 -71.5 -24.5t-134.5 -37.5t-201 -37t-229 -15q-317 0 -635 114 q-35 12 -53 27t-18 41v806q0 29 21 49.5t50 20.5h93v304q0 127 -85 219q-82 87 -195 87q-116 0 -195 -87q-84 -91 -84 -219v-94l-123 -148h123v-142l-121 -91z" />
<glyph unicode="&#xf514;" horiz-adv-x="1676" d="M3 -48q-8 64 11 157l90 424q49 185 163 185h250v808q0 68 94 116.5t227 48.5t227 -48.5t94 -116.5v-808h250q115 0 164 -185l90 -424q19 -93 11 -157t-40 -104.5t-70 -58.5t-79 -18h-1293q-41 0 -79 18t-70 58.5t-40 104.5zM357 407q0 -103 141 -176.5t340 -73.5 q200 0 341 73.5t141 176.5q0 54 -43 102t-118 83v-183q0 -68 -94 -117t-227 -49t-227 49t-94 117v183q-75 -35 -117.5 -83t-42.5 -102zM670 1526q0 -36 49 -62t119 -26t119.5 26t49.5 62t-49.5 61.5t-119.5 25.5t-119 -25.5t-49 -61.5z" />
<glyph unicode="&#xf525;" horiz-adv-x="1203" d="M0 373q0 29 3 56h-3q0 116 24 239.5t54.5 211.5t58.5 190t36.5 175.5t-11.5 168.5q6 -1 17 -5.5t43 -27.5t63 -58.5t71.5 -107t74.5 -164.5q55 51 95.5 106t76.5 131t55 177.5t19 225.5q11 -7 30 -20t73.5 -65t104.5 -116t110.5 -175.5t104 -239t73.5 -312t30 -390.5 q0 -163 -80.5 -301.5t-219 -219.5t-301.5 -81q-164 0 -302.5 81t-219 219.5t-80.5 301.5zM389 223q0 -89 62.5 -151.5t150.5 -62.5t150.5 62.5t62.5 151.5q0 100 -19 185t-46.5 135t-55 85t-46.5 48l-19 14q0 -83 -23 -135t-65 -91q-19 52 -42.5 84t-38.5 38l-14 6 q11 -42 -3 -95.5t-34 -123t-20 -131.5h1q-1 -6 -1 -19z" />
<glyph unicode="&#xf526;" d="M0 -89v1142q0 43 31 73.5t74 30.5h250q43 0 73.5 -30.5t30.5 -73.5v-1142q0 -43 -30.5 -74t-73.5 -31h-250q-43 0 -74 31t-31 74zM742 -89v777q0 43 30.5 74t73.5 31h250q43 0 73.5 -31t30.5 -74v-777q0 -43 -30 -73.5t-74 -30.5h-250q-43 0 -73.5 30.5t-30.5 73.5z M1462 -89v1642q0 43 30.5 73.5t73.5 30.5h250q43 0 73.5 -30.5t30.5 -73.5v-1642q0 -44 -30.5 -74.5t-73.5 -30.5h-250q-43 0 -73.5 31t-30.5 74z" />
<glyph unicode="&#xf527;" horiz-adv-x="2504" d="M0 1024q0 118 83.5 201.5t201.5 83.5q119 0 202 -83.5t83 -201.5q0 -81 -43 -149l577 -576q40 24 81 34v797q-95 23 -156.5 100t-61.5 177q0 118 83.5 201t202.5 83q118 0 201 -83t83 -201q0 -100 -61.5 -177t-156.5 -100v-797q41 -10 81 -34l577 576q-42 69 -42 149 q0 119 83 202t201 83t201.5 -83.5t83.5 -201.5t-83.5 -202t-201.5 -84q-75 0 -148 44l-577 -577q43 -68 43 -148q0 -119 -83 -202.5t-201 -83.5q-119 0 -202.5 83.5t-83.5 202.5q0 80 43 148l-577 577q-73 -44 -148 -44q-118 0 -201.5 84t-83.5 202z" />
<glyph unicode="&#xf528;" d="M960 1272v419q266 0 486.5 -126.5t347 -347t126.5 -486.5h-419q0 148 -72 272.5t-196.5 196.5t-272.5 72z" />
<glyph unicode="&#xf529;" d="M0 731q1 61 44.5 104.5t104.5 43.5h262q61 0 105 -43.5t44 -104.5t-44 -104.5t-105 -43.5h-262q-62 0 -105.5 43.5t-43.5 104.5zM238 157q0 61 44 104l187 186q43 43 104 43.5t104 -42.5q43 -44 43 -105t-43 -104l-187 -186q-43 -43 -104 -43t-104 43q-44 43 -44 104z M238 1305q0 61 43 105q43 43 104.5 43t104.5 -43l187 -186q43 -44 43 -105t-43 -104t-104 -43t-104 43l-188 186q-43 43 -43 104zM813 -81v264q0 61 43.5 104t104.5 43t104.5 -43t43.5 -104v-264q0 -61 -43.5 -104.5t-104.5 -43.5t-104.5 43.5t-43.5 104.5zM813 1280v263 q0 61 43 104.5t104 43.5q62 0 105.5 -43.5t43.5 -104.5v-263q0 -61 -43.5 -104.5t-105.5 -44.5q-61 0 -104 44t-43 105zM1202 343q0 61 43 105q43 43 104 43t104 -43l187 -186q43 -43 43 -104.5t-43 -104.5q-44 -43 -105 -43t-104 43l-186 186q-43 43 -43 104zM1202 1119 q0 61 43 105l186 186q43 43 104 43t104 -43q43 -44 43 -105t-43 -104l-186 -186q-43 -43 -104 -43t-104 43t-43 104zM1361 731q0 61 44 104.5t105 43.5h263q61 0 104 -43.5t43 -104.5t-43 -104.5t-104 -43.5h-263q-62 0 -105.5 43.5t-43.5 104.5z" />
<glyph unicode="&#xf530;" d="M0 -89v777q0 44 30.5 74.5t73.5 29.5h250q43 0 73.5 -30.5t30.5 -73.5v-777q0 -43 -30.5 -73.5t-73.5 -30.5h-250q-43 0 -73.5 30.5t-30.5 73.5zM742 -89v1142q0 43 30.5 73.5t73.5 30.5h250q43 0 73.5 -30.5t30.5 -73.5v-1142q0 -43 -30.5 -73.5t-73.5 -30.5h-250 q-44 0 -74 30.5t-30 73.5zM1462 -89v1641q0 44 30.5 74.5t73.5 30.5h250q43 0 73.5 -31t30.5 -74v-1641q0 -43 -30.5 -74t-73.5 -31h-250q-43 0 -73.5 31t-30.5 74z" />
</font>
</defs>
</svg>
